<?xml version="1.0" encoding="utf-8"?>
<!-- Generator: Adobe Illustrator 21.0.2, SVG Export Plug-In . SVG Version: 6.00 Build 0)  -->
<svg version="1.1" id="Layer_1" xmlns="http://www.w3.org/2000/svg" xmlns:xlink="http://www.w3.org/1999/xlink" x="0px" y="0px"
	 viewBox="0 0 204.2 58.1" style="enable-background:new 0 0 204.2 58.1;" xml:space="preserve">
<style type="text/css">
	.st0{fill:#FFFFFF;stroke:#FFFFFF;stroke-width:0.75;stroke-miterlimit:10;}
	.st1{fill:#FFFFFF;}
</style>
<title>Asset 27</title>
<g id="Layer_2">
	<g id="Layer_2-2">
		<path class="st0" d="M66,31.8c-4.1,0-7.7-3.3-7.7-8.2v-0.1c0-4.6,3.2-8.2,7.4-8.2c4.4,0,7.2,3.6,7.2,8.1c0,0.4-0.3,0.7-0.7,0.7
			H59.9c0.3,3.9,3.1,6.2,6.1,6.2c1.9,0,3.7-0.8,5.1-2.1c0.1-0.1,0.3-0.2,0.5-0.2c0.4,0,0.7,0.3,0.7,0.7c0,0,0,0,0,0
			c0,0.2-0.1,0.4-0.2,0.5C70.5,30.9,68.3,31.9,66,31.8z M71.3,22.9c-0.2-3.2-2-6.1-5.6-6.1c-3.1,0-5.5,2.6-5.8,6.1H71.3z"/>
		<path class="st0" d="M78.9,9.7c0-0.4,0.3-0.8,0.7-0.8c0,0,0,0,0,0c0.4,0,0.8,0.3,0.8,0.7c0,0,0,0,0,0v21.1c0,0.4-0.3,0.7-0.7,0.8
			c0,0,0,0-0.1,0c-0.4,0-0.8-0.3-0.8-0.7c0,0,0,0,0-0.1V9.7z"/>
		<path class="st0" d="M93.6,31.8c-4.1,0-7.7-3.3-7.7-8.2v-0.1c0-4.6,3.2-8.2,7.4-8.2c4.4,0,7.2,3.6,7.2,8.1c0,0.4-0.3,0.7-0.7,0.7
			H87.5c0.3,3.9,3.1,6.2,6.2,6.2c1.9,0,3.7-0.8,5.1-2.1c0.1-0.1,0.3-0.2,0.5-0.2c0.4,0,0.7,0.3,0.7,0.7c0,0,0,0,0,0
			c0,0.2-0.1,0.4-0.2,0.5C98.1,31,95.9,31.9,93.6,31.8z M98.9,22.9c-0.2-3.2-2-6.1-5.6-6.1c-3.1,0-5.5,2.6-5.8,6.1H98.9z"/>
		<path class="st0" d="M104.2,23.7L104.2,23.7c0-4.5,3.5-8.2,8-8.3c2.2,0,4.4,0.9,5.9,2.5c0.1,0.1,0.2,0.3,0.2,0.5
			c0,0.4-0.3,0.8-0.7,0.8c0,0,0,0,0,0c-0.2,0-0.4-0.1-0.6-0.2c-1.3-1.4-3-2.2-4.9-2.2c-3.6,0.1-6.4,3-6.3,6.6c0,0,0,0.1,0,0.1v0.1
			c-0.1,3.6,2.7,6.7,6.4,6.8c0,0,0,0,0.1,0c1.9,0,3.7-0.9,4.9-2.2c0.1-0.1,0.3-0.2,0.5-0.2c0.4,0,0.7,0.3,0.7,0.7
			c0,0.2-0.1,0.3-0.2,0.5c-2.9,3.3-8,3.6-11.3,0.7C105.2,28.2,104.2,26,104.2,23.7L104.2,23.7z"/>
		<path class="st0" d="M124,27.4V17.2h-1.7c-0.4,0-0.7-0.3-0.7-0.7c0-0.4,0.3-0.7,0.7-0.7h1.7v-4.4c0-0.4,0.3-0.8,0.7-0.8
			c0,0,0,0,0,0c0.4,0,0.8,0.3,0.8,0.7c0,0,0,0,0,0v4.4h4.9c0.4,0,0.7,0.3,0.7,0.7c0,0.4-0.3,0.7-0.7,0.7h-4.9v10.1
			c0,2.2,1.3,3,3.1,3c0.6,0,1.2-0.1,1.8-0.3c0.4,0,0.7,0.3,0.7,0.7c0,0.3-0.2,0.6-0.5,0.6c-0.7,0.3-1.5,0.4-2.2,0.4
			C126,31.7,124,30.4,124,27.4z"/>
		<path class="st0" d="M136.2,16.4c0-0.4,0.3-0.8,0.8-0.8c0.4,0,0.8,0.3,0.8,0.8v3.8c1.4-3,4.1-4.7,6.3-4.7c0.4,0,0.8,0.4,0.8,0.8
			c0,0,0,0,0,0c0,0.4-0.4,0.8-0.8,0.8c-3.3,0.3-6.3,2.8-6.3,7.8v5.8c0,0.4-0.3,0.8-0.8,0.8c-0.4,0-0.8-0.3-0.8-0.8V16.4z"/>
		<path class="st0" d="M148,23.7L148,23.7c-0.1-4.5,3.5-8.2,8-8.3c0,0,0.1,0,0.1,0c4.4,0,8,3.6,8,8c0,0,0,0.1,0,0.1v0.1
			c0.1,4.5-3.5,8.1-8,8.2c0,0-0.1,0-0.1,0c-4.4,0-8-3.6-8-8C148,23.8,148,23.7,148,23.7z M162.5,23.7L162.5,23.7
			c0.1-3.7-2.7-6.7-6.3-6.8c0,0-0.1,0-0.1,0c-3.6,0-6.4,3-6.4,6.5c0,0.1,0,0.1,0,0.2v0.1c-0.1,3.6,2.7,6.7,6.3,6.8c0,0,0.1,0,0.1,0
			c3.6,0,6.5-2.9,6.4-6.5C162.5,23.8,162.5,23.7,162.5,23.7L162.5,23.7z"/>
		<path class="st0" d="M183.9,30.8c0,0.4-0.3,0.7-0.7,0.8c0,0,0,0-0.1,0c-0.4,0-0.8-0.3-0.8-0.7c0,0,0,0,0-0.1v-2.9
			c-1.3,2.3-3.8,3.8-6.4,3.9c-4.3-0.1-7.7-3.6-7.6-7.9c0-0.1,0-0.1,0-0.2v-0.1c-0.2-4.3,3.1-8,7.5-8.2c0.1,0,0.1,0,0.2,0
			c2.7,0,5.1,1.4,6.4,3.8V9.7c0-0.4,0.3-0.7,0.7-0.8c0,0,0,0,0.1,0c0.4,0,0.8,0.3,0.8,0.7c0,0,0,0,0,0.1L183.9,30.8z M169.9,23.5
			L169.9,23.5c0,4.2,2.9,6.8,6.1,6.8c3.6-0.1,6.5-3.1,6.4-6.7c0,0,0,0,0,0v-0.1c0.1-3.6-2.7-6.6-6.3-6.7c0,0,0,0,0,0
			C172.7,16.9,170,19.3,169.9,23.5L169.9,23.5z"/>
		<path class="st0" d="M196.9,31.8c-4.1,0-7.7-3.3-7.7-8.2v-0.1c0-4.6,3.2-8.2,7.4-8.2c4.4,0,7.2,3.6,7.2,8.1c0,0.4-0.3,0.7-0.7,0.7
			h-12.3c0.3,3.9,3.1,6.2,6.1,6.2c1.9,0,3.7-0.8,5.1-2.2c0.1-0.1,0.3-0.2,0.5-0.2c0.4,0,0.7,0.3,0.7,0.7c0,0,0,0,0,0
			c0,0.2-0.1,0.4-0.2,0.5C201.4,30.9,199.2,31.9,196.9,31.8z M202.2,22.9c-0.2-3.2-2-6.1-5.6-6.1c-3.1,0-5.5,2.6-5.8,6.1H202.2z"/>
		<g id="Group-3">
			<path id="Fill-1" class="st1" d="M25.4,14.9c-0.3,0-0.5-0.1-0.6-0.4l-1.9-3.2l-1.6,3c-0.2,0.3-0.6,0.5-1,0.2
				c-0.2-0.1-0.3-0.3-0.3-0.5l-1.4-7.7L17.1,11c-0.1,0.3-0.4,0.5-0.7,0.5h-3.6c-0.4,0-0.7-0.3-0.7-0.7s0.3-0.7,0.7-0.7h3.1l2.2-6.8
				c0.1-0.4,0.5-0.6,0.9-0.5c0.2,0.1,0.4,0.3,0.5,0.5l1.5,8.6l1.2-2.2c0.2-0.3,0.6-0.5,1-0.3c0.1,0.1,0.2,0.2,0.3,0.3l1.6,2.7
				l2.8-11.8C28,0.2,28.3-0.1,28.7,0C29,0,29.2,0.3,29.3,0.6l1.8,9.5l5.7,0.2c0.4,0,0.7,0.4,0.7,0.8c0,0.4-0.4,0.7-0.8,0.7l-6.3-0.3
				c-0.3,0-0.6-0.3-0.7-0.6l-1.3-6.7l-2.4,10.2c-0.1,0.3-0.3,0.5-0.6,0.6L25.4,14.9"/>
		</g>
		<g id="Group-6">
			<g>
				<path id="Fill-4" class="st1" d="M24.9,53.5c-8.2,0-14.8-6.6-14.8-14.8S16.7,24,24.8,24c8.2,0,14.8,6.6,14.8,14.8v0
					C39.6,46.9,33,53.5,24.9,53.5 M43,31l-0.6,0l-0.2-0.5c-1-2.1-2.5-4.1-4.2-5.7l-0.6-0.6l5.7-9.7l0.5-0.1c1.6-0.3,2.8-1.8,2.5-3.4
					s-1.8-2.8-3.4-2.5c-1.6,0.3-2.8,1.8-2.5,3.4c0.1,0.3,0.2,0.7,0.3,1l0.3,0.5L35,22.5L34.2,22c-2.8-1.6-6-2.4-9.3-2.5l0,0
					c-3.3,0-6.5,0.9-9.3,2.5l-0.9,0.5L9,13.3l0.2-0.5c0.2-0.4,0.3-0.8,0.3-1.3c0-1.7-1.4-3-3-3s-3,1.4-3,3c0,1.5,1.2,2.8,2.7,3
					l0.5,0.1l5.7,9.6l-0.6,0.6c-1.7,1.6-3.2,3.5-4.2,5.7l-0.2,0.5L6.8,31c-4.1,0.5-7,4.2-6.5,8.3c0.4,3.3,2.9,5.9,6.1,6.4l0.6,0.1
					l0.2,0.5c3,7.1,10,11.7,17.7,11.7l0,0c7.7,0,14.7-4.6,17.7-11.8l0.2-0.5l0.6-0.1c4-0.7,6.8-4.5,6.1-8.6
					C48.9,33.9,46.3,31.4,43,31"/>
			</g>
		</g>
		<path id="Fill-7" class="st1" d="M32.6,35.4c0,1.2-1,2.1-2.1,2.1c-1.2,0-2.1-1-2.1-2.1c0-1.2,1-2.1,2.1-2.1S32.6,34.2,32.6,35.4
			L32.6,35.4"/>
		<path id="Fill-9" class="st1" d="M21.4,35.4c0,1.2-1,2.1-2.1,2.1c-1.2,0-2.1-1-2.1-2.1c0-1.2,1-2.1,2.1-2.1l0,0
			C20.4,33.2,21.4,34.2,21.4,35.4L21.4,35.4"/>
		<path class="st1" d="M84.5,45c0-0.7,0.5-1.3,1.2-1.3c0,0,0,0,0,0c0.7,0,1.2,0.6,1.2,1.3v0.5c0.7-1.2,2.1-1.9,3.5-1.9
			c2.5,0,4,1.7,4,4.2v5.9c0,0.7-0.6,1.2-1.3,1.2c-0.7,0-1.3-0.5-1.3-1.2c0,0,0,0,0,0v-5.2c0-1.7-0.9-2.7-2.4-2.7
			c-1.4-0.1-2.5,1-2.6,2.4c0,0.1,0,0.3,0,0.4v5.1c0,0.7-0.6,1.3-1.3,1.3c-0.7,0-1.3-0.6-1.3-1.3L84.5,45z"/>
		<path class="st1" d="M103.1,51.7L103.1,51.7c0-2.4,1.9-3.6,4.6-3.6c1,0,2,0.1,3,0.5v-0.3c0-1.6-1-2.4-2.8-2.4
			c-0.8,0-1.7,0.1-2.5,0.4c-0.1,0-0.3,0.1-0.4,0.1c-0.6,0-1.1-0.5-1.1-1c0,0,0,0,0,0c0-0.4,0.3-0.8,0.7-1c1.1-0.4,2.3-0.7,3.6-0.7
			c1.3-0.1,2.7,0.3,3.7,1.2c0.9,0.9,1.3,2.2,1.2,3.4v5.5c0,0.7-0.6,1.2-1.2,1.2c0,0,0,0,0,0c-0.6,0.1-1.2-0.4-1.2-1.1c0,0,0,0,0,0
			v-0.4c-0.9,1.1-2.2,1.7-3.7,1.6C105,55.1,103.1,53.9,103.1,51.7z M110.7,50.9v-0.8c-0.8-0.3-1.7-0.4-2.5-0.4
			c-1.6,0-2.6,0.7-2.6,1.8l0,0c0,1.1,0.9,1.7,2.2,1.7C109.4,53.3,110.7,52.3,110.7,50.9L110.7,50.9z"/>
		<path class="st1" d="M122.9,51.8V46h-0.4c-0.6,0-1.1-0.5-1.1-1.1c0-0.6,0.5-1.1,1.1-1.1h0.4v-1.9c0-0.7,0.6-1.3,1.3-1.3
			c0.7,0,1.3,0.6,1.3,1.3v1.9h2c0.6,0,1.1,0.5,1.1,1.1c0,0.6-0.5,1.1-1.1,1.1l0,0h-2v5.5c-0.1,0.7,0.3,1.3,1,1.4c0.1,0,0.2,0,0.4,0
			c0.2,0,0.4,0,0.6-0.1c0.6,0,1.1,0.5,1.1,1c0,0.4-0.3,0.8-0.7,1c-0.6,0.2-1.2,0.3-1.8,0.3C124.2,55.1,122.9,54.3,122.9,51.8z"/>
		<path class="st1" d="M137.3,40.8c0.1-0.8,0.9-1.3,1.7-1.2c0.6,0.1,1.1,0.6,1.2,1.2v0.1c-0.1,0.8-0.9,1.3-1.7,1.2
			c-0.6-0.1-1.1-0.6-1.2-1.2V40.8z M137.5,45c0-0.7,0.5-1.3,1.2-1.3c0,0,0,0,0,0c0.7,0,1.3,0.6,1.3,1.3c0,0,0,0,0,0.1v8.8
			c0,0.7-0.6,1.3-1.3,1.3c-0.7,0-1.3-0.6-1.3-1.3L137.5,45z"/>
		<path class="st1" d="M154.3,55.1h-0.1c-0.7,0-1.3-0.5-1.4-1.1l-3.7-8.5c-0.1-0.2-0.1-0.4-0.1-0.6c0-0.7,0.7-1.2,1.4-1.2
			c0.5,0,1,0.4,1.1,0.9l2.9,7.4l2.9-7.4c0.2-0.5,0.7-0.9,1.2-0.9c0.7,0,1.2,0.5,1.2,1.2c0,0,0,0,0,0c0,0.2-0.1,0.4-0.1,0.6l-3.7,8.5
			C155.5,54.6,154.9,55.1,154.3,55.1z"/>
		<path class="st1" d="M172.9,55.2c-3.1,0.1-5.6-2.3-5.7-5.4c0-0.1,0-0.3,0-0.4l0,0c-0.1-3,2.2-5.6,5.2-5.8c0.1,0,0.1,0,0.2,0
			c2.9,0,5.3,2.3,5.3,5.2c0,0.1,0,0.1,0,0.2c0,0.7-0.5,1.2-1.2,1.2c0,0,0,0,0,0h-7c0.1,1.6,1.6,2.9,3.2,2.8c1,0,1.9-0.4,2.6-1
			c0.2-0.2,0.4-0.2,0.6-0.2c0.6,0,1,0.4,1,1c0,0.3-0.1,0.6-0.3,0.8C175.8,54.6,174.4,55.2,172.9,55.2z M175.4,48.6
			c-0.2-1.6-1.1-2.9-2.8-2.9c-1.6,0.1-2.8,1.3-2.9,2.9H175.4z"/>
	</g>
</g>
</svg>
