<?xml version="1.0" encoding="utf-8"?>
<!-- Generator: Adobe Illustrator 21.0.2, SVG Export Plug-In . SVG Version: 6.00 Build 0)  -->
<svg version="1.1" id="snow" xmlns="http://www.w3.org/2000/svg" xmlns:xlink="http://www.w3.org/1999/xlink" x="0px" y="0px"
	 viewBox="0 0 1662.7 290" style="enable-background:new 0 0 1662.7 290;" xml:space="preserve">
<style type="text/css">
	.st0{display:none;}
	.st1{opacity:0.9;fill:url(#SVGID_1_);enable-background:new    ;}
	.st2{opacity:0.9;fill:url(#SVGID_2_);enable-background:new    ;}
	.st3{opacity:0.9;fill:url(#SVGID_3_);enable-background:new    ;}
	.st4{enable-background:new    ;}
	.st5{fill:url(#SVGID_4_);}
</style>
<g id="Layer_2" class="st0">
	
		<image style="display:inline;overflow:visible;enable-background:new    ;" width="2880" height="1822" xlink:href="ern_bkgd.png"  transform="matrix(0.4979 0 0 0.4979 158.8784 -656.4073)">
	</image>
</g>
<linearGradient id="SVGID_1_" gradientUnits="userSpaceOnUse" x1="831.4691" y1="6502.4556" x2="831.4691" y2="7567.5801" gradientTransform="matrix(1 0 0 1 0 -6440)">
	<stop  offset="0" style="stop-color:#FFFFFF"/>
	<stop  offset="1" style="stop-color:#006C96"/>
</linearGradient>
<path class="st1" d="M92.7,132.4c0,0,22.3-13.3,37.7,2c0,0,21.8-28.8,70.5-16.9c0,0,19.8-47.6,72.4-36.7c0,0,30.9-69.3,136.5-53.8
	c34.6,5.1,72.2,26.1,108.6,76.6c0,0,92.3-54.6,122.1,29.8c0,0,107.2-45.6,195.5,37.7c0,0,23.8-33.7,63.5-14.9
	c0,0,15.9-26.8,54.6-32.7c0,0,105.2-89.3,192.5,26.8c0,0,17.9-26.8,74.4-5c0,0,46.6-47.6,79.4-38.7c0,0,82.4-110.1,220.3-15.9
	c0,0,34.7-28.8,72.4,6c0,0,81.4-8.9,69.5,54.6v132.5H-0.9V136.3C-0.9,136.3,50.1,84.8,92.7,132.4z"/>
<linearGradient id="SVGID_2_" gradientUnits="userSpaceOnUse" x1="-775.7701" y1="-5210.3105" x2="-775.7701" y2="-5538.6953" gradientTransform="matrix(-1 0 0 -1 656.3799 -5044)">
	<stop  offset="0" style="stop-color:#FFFFFF"/>
	<stop  offset="1" style="stop-color:#00607A"/>
</linearGradient>
<path class="st2" d="M1662.6,180.5c0,0-13.8-8.7-24.8,0.8c0,0-15.7-17.6-50.7-10.4c0,0-14.2-29.2-52-22.6c0,0-92.7-84.8-176.3,14
	c0,0-66.4-33.5-87.8,18.3c-0.1-3.6-61.4-18.7-69.5,11.6v93.7h461.3L1662.6,180.5z"/>
<linearGradient id="SVGID_3_" gradientUnits="userSpaceOnUse" x1="359.9077" y1="-5203.4697" x2="359.9077" y2="-5683.8081" gradientTransform="matrix(1 0 0 -1 0 -5044)">
	<stop  offset="0" style="stop-color:#FFFFFF"/>
	<stop  offset="1" style="stop-color:#00607A"/>
</linearGradient>
<path class="st3" d="M-0.9,194.6c2.1,1.9,5.3,3.7,8.3,5.8c0,0,21.5-20.7,55.7-9.1c0,0,13.7-16.4,47-20.2c0,0,90.5-54.9,165.6,16.4
	c0,0,15.3-16.4,64.1-3.1c0,0,40.1-29.2,68.3-23.8c0,0,70.9-67.7,189.5-9.7c0,0,29.9-17.6,62.3,3.6c0,0,70-5.5,59.8,33.5v99.6
	l-720.6,2.2L-0.9,194.6z"/>
<g class="st4">
	<g>
		<g>
			
				<linearGradient id="SVGID_4_" gradientUnits="userSpaceOnUse" x1="831.5063" y1="6678.7373" x2="831.5063" y2="6366.9771" gradientTransform="matrix(1 0 0 1 0 -6440)">
				<stop  offset="0" style="stop-color:#FFFFFF"/>
				<stop  offset="1" style="stop-color:#006C96"/>
			</linearGradient>
			<path class="st5" d="M1662.8,209.8c-2.7,1-12.3,2.4-18.5,4.1c-23-20.8-61.2-34.5-104.4-34.5c-39.9,0-75.5,11.7-98.8,29.9
				c-16.8-5.2-35.6-8-55.5-8c-25.2,0-48.8,4.7-68.7,12.8c-38.8-14.8-86.6-23.4-138-23.4c-67.4,0-128.1,14.8-171.2,38.6
				c-45.3-29.2-104.5-46.8-169.4-46.8c-26.5,0-51.9,3-75.9,8.4c-22.8-9.7-48.1-15-74.4-15c-48,0-91.8,17.6-125.4,46.8
				c-32-23.8-77-38.6-126.8-38.6c-38.2,0-73.4,8.7-102.2,23.4c-14.7-8-32.1-12.8-50.8-12.8c-14.8,0-28.7,2.9-41.1,8
				c-17.3-18.2-43.7-29.9-73.2-29.9c-32,0-60.2,13.7-77.3,34.5c-11.4-4.1-23.8-6.4-36.8-6.4c-20.7,0-38.6,5.7-54.2,15.4l0,73.5
				l1662.6,0.2V209.8z"/>
		</g>
	</g>
</g>
</svg>
