<?xml version="1.0" encoding="utf-8"?>
<!-- Generator: Adobe Illustrator 21.0.2, SVG Export Plug-In . SVG Version: 6.00 Build 0)  -->
<svg version="1.1" id="Layer_1" xmlns="http://www.w3.org/2000/svg" xmlns:xlink="http://www.w3.org/1999/xlink" x="0px" y="0px"
	 viewBox="0 0 850 189" style="enable-background:new 0 0 850 189;" xml:space="preserve">
<style type="text/css">
	.st0{fill:none;stroke:#FEFEFE;stroke-width:5;stroke-linecap:round;stroke-linejoin:round;}
	.st1{fill:#FFFFFF;}
	.st2{filter:url(#Adobe_OpacityMaskFilter);}
	.st3{mask:url(#mask-2_1_);fill:#FFFFFF;}
	.st4{fill:#FEFEFE;}
</style>
<title>logo</title>
<desc>Created with Sketch.</desc>
<g id="Electrode">
	<g id="_x2D_1280:-ERN-home" transform="translate(-246.000000, -130.000000)">
		<g id="header">
			<g id="logo" transform="translate(249.000000, 130.000000)">
				<polyline id="Stroke-1" class="st0" points="704,169.9 743.4,169.9 757.2,86 774.2,179.7 782.9,157.6 793.3,186 805.7,127.9 
					814.2,169.2 844,169.2 				"/>
				<polyline id="Stroke-3" class="st0" points="0,167.4 18.9,167.4 26.4,149.7 38.1,186 51.2,135 58.1,168.9 196,168.9 
					204.5,183.1 216.8,154.6 228.2,168.9 273,168.9 				"/>
				<path id="Fill-5" class="st1" d="M315.8,157.4c3.3,0,5.3-1.8,5.3-4.5v-0.1c0-3-2-4.5-5.4-4.5h-6.8v9.1H315.8z M302,145.5
					c0-1.9,1.5-3.5,3.4-3.5h10.8c4,0,7,1.1,9.1,3.2c1.7,1.8,2.7,4.3,2.7,7.3v0.1c0,5-2.4,8.1-6.2,9.7l4.8,5.9
					c0.7,0.9,1.1,1.6,1.1,2.7c0,1.9-1.6,3.2-3.3,3.2c-1.6,0-2.6-0.8-3.4-1.8l-6.7-8.6h-5.5v6.9c0,1.9-1.5,3.5-3.4,3.5
					c-1.9,0-3.4-1.5-3.4-3.5V145.5z"/>
				<path id="Fill-7" class="st1" d="M337,170.5v-25c0-2,1.5-3.5,3.4-3.5h17.3c1.7,0,3.1,1.4,3.1,3.2c0,1.7-1.4,3.1-3.1,3.1h-13.9
					v6.5h11.9c1.7,0,3.1,1.4,3.1,3.2c0,1.7-1.4,3.1-3.1,3.1h-11.9v6.7h14.1c1.7,0,3.1,1.4,3.1,3.2c0,1.7-1.4,3.1-3.1,3.1h-17.5
					C338.5,174,337,172.4,337,170.5"/>
				<path id="Fill-9" class="st1" d="M387.4,161.2l-4.5-10.6l-4.5,10.6H387.4z M367.4,170.2l11.3-25.4c0.8-1.8,2.2-2.8,4.2-2.8h0.4
					c1.9,0,3.3,1.1,4.1,2.8l11.3,25.4c0.2,0.5,0.4,1,0.4,1.4c0,1.9-1.5,3.4-3.4,3.4c-1.7,0-2.8-1-3.4-2.4l-2.2-5.1h-14.2l-2.3,5.3
					c-0.6,1.4-1.8,2.2-3.3,2.2c-1.8,0-3.3-1.5-3.3-3.3C367,171.2,367.2,170.7,367.4,170.2L367.4,170.2z"/>
				<path id="Fill-11" class="st1" d="M404,158.6L404,158.6c0-9.2,6.6-16.6,16.1-16.6c4.6,0,7.8,1.3,10.3,3.2
					c0.7,0.5,1.3,1.6,1.3,2.8c0,1.9-1.5,3.4-3.4,3.4c-0.9,0-1.5-0.4-2-0.7c-1.9-1.5-3.9-2.3-6.3-2.3c-5.2,0-9,4.5-9,9.9v0.1
					c0,5.5,3.7,10,9,10c2.9,0,4.8-0.9,6.7-2.5c0.5-0.5,1.2-0.8,2-0.8c1.7,0,3.2,1.5,3.2,3.2c0,1.1-0.5,2-1.1,2.5c-2.8,2.5-6,4-11,4
					C410.8,175,404,167.8,404,158.6"/>
				<path id="Fill-13" class="st1" d="M448.6,148.4h-6.5c-1.7,0-3.1-1.4-3.1-3.2c0-1.8,1.4-3.2,3.1-3.2h19.8c1.7,0,3.1,1.5,3.1,3.2
					c0,1.8-1.4,3.2-3.1,3.2h-6.5v22.1c0,1.9-1.5,3.5-3.4,3.5c-1.9,0-3.4-1.5-3.4-3.5V148.4z"/>
				<path id="Fill-15" class="st1" d="M488,145.7c0-2,1.5-3.6,3.5-3.6h0.7c1.7,0,2.7,0.8,3.6,2.1l13.4,18.1v-16.7
					c0-1.9,1.5-3.5,3.4-3.5c1.9,0,3.4,1.6,3.4,3.5v25.8c0,2-1.5,3.6-3.5,3.6h-0.2c-1.7,0-2.7-0.8-3.6-2.1l-13.9-18.7v17.4
					c0,1.9-1.5,3.5-3.4,3.5c-1.9,0-3.4-1.6-3.4-3.5V145.7z"/>
				<path id="Fill-17" class="st1" d="M544.4,161.2l-4.5-10.6l-4.5,10.6H544.4z M524.4,170.2l11.3-25.4c0.8-1.8,2.2-2.8,4.2-2.8h0.4
					c1.9,0,3.3,1.1,4.1,2.8l11.3,25.4c0.2,0.5,0.4,1,0.4,1.4c0,1.9-1.5,3.4-3.4,3.4c-1.7,0-2.8-1-3.4-2.4l-2.2-5.1h-14.2l-2.3,5.3
					c-0.6,1.4-1.8,2.2-3.3,2.2c-1.8,0-3.3-1.5-3.3-3.3C524,171.2,524.2,170.7,524.4,170.2L524.4,170.2z"/>
				<path id="Fill-19" class="st1" d="M567.6,148.4h-6.5c-1.7,0-3.1-1.4-3.1-3.2c0-1.8,1.4-3.2,3.1-3.2h19.8c1.7,0,3.1,1.5,3.1,3.2
					c0,1.8-1.4,3.2-3.1,3.2h-6.5v22.1c0,1.9-1.5,3.5-3.4,3.5c-1.9,0-3.4-1.5-3.4-3.5V148.4z"/>
				<path id="Fill-21" class="st1" d="M593,145.6c0-2,1.5-3.6,3.5-3.6c2,0,3.5,1.6,3.5,3.6v25.9c0,2-1.5,3.6-3.5,3.6
					c-2,0-3.5-1.6-3.5-3.6V145.6z"/>
				<path id="Fill-23" class="st1" d="M618.8,172.2l-10.4-25c-0.2-0.6-0.4-1.1-0.4-1.7c0-2,1.6-3.5,3.5-3.5c1.8,0,3,1.1,3.6,2.5
					l8,20.8l8.1-21.1c0.5-1.2,1.7-2.3,3.4-2.3c1.9,0,3.5,1.5,3.5,3.4c0,0.6-0.2,1.2-0.4,1.6l-10.5,25.2c-0.7,1.7-2.1,2.8-4,2.8h-0.5
					C620.8,175,619.5,173.9,618.8,172.2"/>
				<path id="Fill-25" class="st1" d="M645,170.5v-25c0-2,1.5-3.5,3.4-3.5h17.3c1.7,0,3.1,1.4,3.1,3.2c0,1.7-1.4,3.1-3.1,3.1h-13.9
					v6.5h11.9c1.7,0,3.1,1.4,3.1,3.2c0,1.7-1.4,3.1-3.1,3.1h-11.9v6.7h14.1c1.7,0,3.1,1.4,3.1,3.2c0,1.7-1.4,3.1-3.1,3.1h-17.5
					C646.5,174,645,172.4,645,170.5"/>
				<g id="Group-29" transform="translate(475.000000, 0.000000)">
					<g id="Clip-28">
					</g>
					<defs>
						<filter id="Adobe_OpacityMaskFilter" filterUnits="userSpaceOnUse" x="0.1" y="0.2" width="48.4" height="28.5">
							<feColorMatrix  type="matrix" values="1 0 0 0 0  0 1 0 0 0  0 0 1 0 0  0 0 0 1 0"/>
						</filter>
					</defs>
					<mask maskUnits="userSpaceOnUse" x="0.1" y="0.2" width="48.4" height="28.5" id="mask-2_1_">
						<g class="st2">
							<polygon id="path-1_1_" class="st1" points="0.1,0.2 48.5,0.2 48.5,28.7 0.1,28.7 							"/>
						</g>
					</mask>
					<path id="Fill-27_1_" class="st3" d="M25.5,28.7c-0.5,0-0.9-0.3-1.2-0.7l-3.6-6l-3,5.6c-0.3,0.5-0.8,0.8-1.4,0.7
						c-0.6-0.1-1-0.5-1.1-1.1l-2.7-14.8l-2.8,8.7c-0.2,0.6-0.7,1-1.3,1h-7c-0.8,0-1.4-0.6-1.4-1.4c0-0.8,0.6-1.4,1.4-1.4h6l4.2-13.1
						c0.2-0.6,0.8-1,1.4-1c0.6,0,1.1,0.5,1.3,1.1l2.9,16.3l2.3-4.3c0.2-0.4,0.7-0.7,1.2-0.7c0.5,0,1,0.2,1.2,0.7l3.1,5.2l5.3-22.5
						c0.2-0.6,0.7-1.1,1.4-1.1c0.6,0,1.2,0.5,1.3,1.1l3.4,18.1l10.8,0.5c0.8,0,1.3,0.7,1.3,1.4c0,0.8-0.7,1.3-1.4,1.3l-11.9-0.5
						c-0.6,0-1.2-0.5-1.3-1.1L31.4,8.2l-4.6,19.5c-0.1,0.5-0.6,1-1.1,1"/>
				</g>
				<path id="Fill-30" class="st4" d="M533.4,58.1l-1.1-0.1l-0.5-1c-1.9-4-4.6-7.6-7.9-10.7l-1.1-1.1l10.6-18.1l0.9-0.1
					c2.7-0.4,4.7-2.7,4.7-5.5c0-3.1-2.5-5.6-5.6-5.6c-3.1,0-5.6,2.5-5.6,5.6c0,0.9,0.2,1.8,0.7,2.6l0.5,1l-10.5,17l-1.6-0.9
					c-5.3-3-11.3-4.6-17.4-4.6h0h0c-6.1,0-12.1,1.6-17.4,4.6l-1.6,0.9l-10.7-17.3l0.5-1c0.4-0.8,0.5-1.6,0.5-2.4
					c0-3.1-2.5-5.6-5.6-5.6c-3.1,0-5.6,2.5-5.6,5.6c0,2.9,2.1,5.3,5,5.6l1,0.1l10.6,18.1l-1.1,1.1c-3.3,3.1-6,6.7-7.9,10.7l-0.5,1
					l-1.1,0.1C458.4,58.8,453,64.8,453,72c0,6.9,5.1,12.8,11.9,13.8L466,86l0.4,1c5.6,13.3,18.6,22,33.1,22h0h0
					c14.4-0.1,27.4-8.7,33-22l0.4-1l1.1-0.2c6.8-1,11.9-6.9,11.9-13.8C546,64.8,540.6,58.8,533.4,58.1 M499.5,100.4
					c-15.3,0-27.6-12.4-27.6-27.7c0-15.3,12.4-27.7,27.6-27.7c15.3,0,27.6,12.4,27.6,27.7C527.1,88,514.8,100.4,499.5,100.4"/>
				<path id="Fill-32" class="st4" d="M513,67c0,2.2-1.8,4-4,4c-2.2,0-4-1.8-4-4c0-2.2,1.8-4,4-4C511.2,63,513,64.8,513,67"/>
				<path id="Fill-34" class="st4" d="M492,67c0,2.2-1.8,4-4,4c-2.2,0-4-1.8-4-4c0-2.2,1.8-4,4-4C490.2,63,492,64.8,492,67"/>
				<path id="Fill-36" class="st4" d="M110.4,108C91.5,108,76,93.3,76,71.6v-0.3C76,51.2,90,35,109,35c20.4,0,32,16.9,32,35.4
					c0,2.8-2.3,4.9-4.8,4.9H86.4c1.5,15.1,12,23.7,24.2,23.7c8.5,0,14.8-3.4,19.8-8.1c0.8-0.7,1.7-1.2,2.9-1.2c2.5,0,4.5,2,4.5,4.5
					c0,1.2-0.5,2.4-1.6,3.4C129.8,103.8,122.1,108,110.4,108L110.4,108z M130.7,67.6c-1.1-12.7-8.3-23.8-22-23.8
					c-12,0-21,10.1-22.4,23.8H130.7z"/>
				<path id="Fill-38" class="st4" d="M160,11.2c0-2.8,2.4-5.2,5.4-5.2c3.1,0,5.6,2.4,5.6,5.2v88.6c0,2.9-2.3,5.2-5.4,5.2
					c-3.1,0-5.6-2.3-5.6-5.2V11.2z"/>
				<path id="Fill-40" class="st4" d="M224.4,108c-18.9,0-34.4-14.7-34.4-36.4v-0.3c0-20.1,14-36.4,33-36.4c20.4,0,32,16.9,32,35.4
					c0,2.8-2.3,4.9-4.8,4.9h-49.8c1.5,15.1,12,23.7,24.2,23.7c8.5,0,14.8-3.4,19.8-8.1c0.8-0.7,1.7-1.2,2.9-1.2c2.5,0,4.5,2,4.5,4.5
					c0,1.2-0.5,2.4-1.6,3.4C243.8,103.8,236.1,108,224.4,108L224.4,108z M244.7,67.6c-1.1-12.7-8.3-23.8-22-23.8
					c-12,0-21,10.1-22.4,23.8H244.7z"/>
				<path id="Fill-42" class="st4" d="M269,71.8v-0.3c0-19.7,15.3-36.5,35.5-36.5c11.5,0,19.3,4.5,25.5,10.1c0.8,0.7,1.6,2,1.6,3.6
					c0,2.8-2.3,5-5,5c-1.3,0-2.5-0.5-3.4-1.2c-5-4.6-10.6-8.4-18.9-8.4c-14.1,0-24.8,12-24.8,27v0.3c0,15.1,11,27.2,25.5,27.2
					c7.9,0,14.2-3.7,19.3-8.5c0.7-0.7,1.6-1.4,2.9-1.4c2.5,0,4.7,2.3,4.7,4.7c0,1.2-0.5,2.4-1.3,3.2c-6.6,6.6-14.5,11.2-26.1,11.2
					C284.3,108,269,91.4,269,71.8"/>
				<path id="Fill-44" class="st4" d="M354.1,87.4V45.7h-5.6c-2.4,0-4.5-2.1-4.5-4.6c0-2.5,2.1-4.6,4.5-4.6h5.6V20.2
					c0-2.8,2.1-5.2,5.1-5.2c2.8,0,5.2,2.4,5.2,5.2v16.3h17.9c2.5,0,4.7,2.1,4.7,4.6c0,2.5-2.1,4.6-4.7,4.6h-17.9v40.4
					c0,8.4,4.7,11.5,11.6,11.5c3.6,0,5.5-0.9,6.3-0.9c2.4,0,4.4,2,4.4,4.4c0,1.9-1.2,3.3-2.9,4c-2.9,1.2-6.1,1.9-10.1,1.9
					C362.6,107,354.1,101.5,354.1,87.4"/>
				<path id="Fill-46" class="st4" d="M404,40.5c0-2.8,2.3-5.2,5.1-5.2c2.9,0,5.2,2.3,5.2,5.2v13c5.1-11.5,15-18.5,23.7-18.5
					c3.1,0,5.1,2.3,5.1,5.2c0,2.8-1.9,4.8-4.5,5.2c-13.3,1.6-24.2,11.7-24.2,31.7v23.6c0,2.8-2.1,5.2-5.1,5.2
					c-2.9,0-5.2-2.3-5.2-5.2V40.5z"/>
				<path id="Fill-48" class="st4" d="M629,100c0,3-2.3,5.2-5.1,5.2c-2.9,0-5.2-2.3-5.2-5.2v-9.4c-5.6,8.3-13.8,15.4-26.6,15.4
					c-16.6,0-33.1-13.1-33.1-35.9v-0.3c0-22.7,16.5-36.1,33.1-36.1c12.9,0,21.2,7,26.6,14.7V11.2c0-2.9,2.1-5.2,5.1-5.2
					c3,0,5.2,2.3,5.2,5.2V100z M569.6,69.7v0.3c0,16.4,11.4,26.8,24.4,26.8c12.9,0,25.1-10.9,25.1-26.8v-0.3
					c0-16-12.2-26.7-25.1-26.7C580.6,43,569.6,52.9,569.6,69.7L569.6,69.7z"/>
				<path id="Fill-50" class="st4" d="M682.4,108c-18.9,0-34.4-14.7-34.4-36.4v-0.3c0-20.1,14-36.4,33-36.4c20.4,0,32,16.9,32,35.4
					c0,2.8-2.3,4.9-4.8,4.9h-49.8c1.5,15.1,12,23.7,24.2,23.7c8.5,0,14.8-3.4,19.8-8.1c0.8-0.7,1.7-1.2,2.9-1.2c2.5,0,4.5,2,4.5,4.5
					c0,1.2-0.5,2.4-1.6,3.4C701.8,103.8,694.1,108,682.4,108L682.4,108z M702.7,67.6c-1.1-12.7-8.3-23.8-22-23.8
					c-12,0-21,10.1-22.4,23.8H702.7z"/>
			</g>
		</g>
	</g>
</g>
</svg>
