<?xml version="1.0" encoding="utf-8"?>
<!-- Generator: Adobe Illustrator 21.0.2, SVG Export Plug-In . SVG Version: 6.00 Build 0)  -->
<svg version="1.1" id="Layer_1" xmlns="http://www.w3.org/2000/svg" xmlns:xlink="http://www.w3.org/1999/xlink" x="0px" y="0px"
	 viewBox="0 0 567 189" style="enable-background:new 0 0 567 189;" xml:space="preserve">
<style type="text/css">
	.st0{fill:#FFFFFF;}
	.st1{filter:url(#Adobe_OpacityMaskFilter);}
	.st2{mask:url(#mask-2_2_);fill:#FFFFFF;}
	.st3{filter:url(#Adobe_OpacityMaskFilter_1_);}
	.st4{mask:url(#mask-4_2_);fill:#FFFFFF;}
</style>
<title>logo</title>
<desc>Created with Sketch.</desc>
<g>
	<path class="st0" d="M2.3,143.3c0-4,3.3-7.3,7.3-7.3c4,0,7.3,3.3,7.3,7.3v2.3c2.1-5,5.6-9.6,9.9-9.6c4.5,0,7.1,3,7.1,7.1
		c0,3.8-2.5,6.1-5.5,6.8c-7.4,1.7-11.5,7.4-11.5,17.7v13.6c0,4-3.3,7.3-7.3,7.3c-4,0-7.3-3.3-7.3-7.3V143.3z"/>
	<path class="st0" d="M65.3,189.2c-15.4,0-26.8-10.8-26.8-26.5v-0.2c0-14.7,10.4-26.7,25.4-26.7c17.2,0,24.7,14.1,24.7,24.7
		c0,4.2-3,7-6.8,7H52.9c1.4,6.6,6,10.1,12.6,10.1c4,0,7.4-1.2,10.4-3.4c1.1-0.8,2-1.1,3.5-1.1c3.3,0,5.7,2.5,5.7,5.7
		c0,1.9-0.9,3.4-1.9,4.3C78.6,186.8,72.8,189.2,65.3,189.2z M74.7,158.3c-0.9-6.5-4.7-10.9-10.8-10.9c-6,0-10,4.3-11.1,10.9H74.7z"
		/>
	<path class="st0" d="M96.6,173.2v-0.2c0-11.2,8.5-16.4,20.7-16.4c5.2,0,8.9,0.9,12.6,2.1v-0.9c0-6-3.7-9.4-11-9.4
		c-4,0-7.3,0.6-10.1,1.4c-0.9,0.3-1.4,0.4-2.1,0.4c-3.4,0-6-2.6-6-5.9c0-2.6,1.6-4.8,3.9-5.7c4.6-1.7,9.6-2.7,16.4-2.7
		c8,0,13.7,2.1,17.3,5.7c3.8,3.8,5.6,9.5,5.6,16.4v23.4c0,3.9-3.2,7-7.1,7c-4.2,0-7-3-7-6v-0.1c-3.5,3.9-8.4,6.5-15.5,6.5
		C104.6,189,96.6,183.4,96.6,173.2z M130.1,169.9v-2.6c-2.5-1.1-5.8-1.9-9.3-1.9c-6.2,0-10.1,2.5-10.1,7.1v0.2c0,3.9,3.3,6.2,8,6.2
		C125.5,178.9,130.1,175.2,130.1,169.9z"/>
	<path class="st0" d="M153.9,162.6v-0.2c0-14.7,11.2-26.7,26.9-26.7c7.8,0,13.2,2.1,17.5,5.7c1,0.8,2.3,2.5,2.3,5
		c0,3.6-3,6.5-6.6,6.5c-1.9,0-3.4-0.8-4.2-1.4c-2.6-2-5.3-3.3-9.1-3.3c-7.3,0-12.5,6.4-12.5,14v0.2c0,7.9,5.1,14.2,13,14.2
		c3.8,0,6.8-1.3,9.6-3.5c0.8-0.6,2.2-1.3,3.9-1.3c3.4,0,6.1,2.8,6.1,6.2c0,1.9-0.9,3.4-2.1,4.6c-4.3,3.9-9.8,6.6-18.2,6.6
		C165.2,189.2,153.9,177.3,153.9,162.6z"/>
	<path class="st0" d="M213.5,173.4v-24.3h-0.5c-3.4,0-6.2-2.8-6.2-6.2c0-3.5,2.8-6.2,6.2-6.2h0.5v-6.4c0-4,3.3-7.3,7.3-7.3
		c4,0,7.3,3.3,7.3,7.3v6.4h6.4c3.4,0,6.2,2.8,6.2,6.2c0,3.4-2.8,6.2-6.2,6.2h-6.4V171c0,3.4,1.4,5,4.7,5c0.5,0,1.4-0.1,1.7-0.1
		c3.3,0,6,2.7,6,6c0,2.6-1.7,4.7-3.7,5.5c-2.7,1.1-5.2,1.4-8.3,1.4C219.6,188.9,213.5,185.3,213.5,173.4z"/>
	<path class="st0" d="M279.6,143.3c0-4,3.3-7.3,7.3-7.3c4,0,7.3,3.3,7.3,7.3v0.6c3.4-4.3,7.7-8.2,15-8.2c11,0,17.4,7.3,17.4,19.1
		v26.5c0,4-3.3,7.3-7.3,7.3s-7.3-3.3-7.3-7.3v-21.9c0-6.9-3.3-10.4-8.8-10.4c-5.6,0-9.1,3.5-9.1,10.4v21.9c0,4-3.3,7.3-7.3,7.3
		c-4,0-7.3-3.3-7.3-7.3V143.3z"/>
	<path class="st0" d="M336.3,173.2v-0.2c0-11.2,8.5-16.4,20.7-16.4c5.2,0,8.9,0.9,12.6,2.1v-0.9c0-6-3.7-9.4-11-9.4
		c-4,0-7.3,0.6-10.1,1.4c-0.9,0.3-1.4,0.4-2.1,0.4c-3.4,0-6-2.6-6-5.9c0-2.6,1.6-4.8,3.9-5.7c4.6-1.7,9.6-2.7,16.4-2.7
		c8,0,13.7,2.1,17.3,5.7c3.8,3.8,5.6,9.5,5.6,16.4v23.4c0,3.9-3.2,7-7.1,7c-4.2,0-7-3-7-6v-0.1c-3.5,3.9-8.4,6.5-15.5,6.5
		C344.2,189,336.3,183.4,336.3,173.2z M369.7,169.9v-2.6c-2.5-1.1-5.8-1.9-9.3-1.9c-6.2,0-10.1,2.5-10.1,7.1v0.2
		c0,3.9,3.3,6.2,8,6.2C365.1,178.9,369.7,175.2,369.7,169.9z"/>
	<path class="st0" d="M398,173.4v-24.3h-0.5c-3.4,0-6.2-2.8-6.2-6.2c0-3.5,2.8-6.2,6.2-6.2h0.5v-6.4c0-4,3.3-7.3,7.3-7.3
		c4,0,7.3,3.3,7.3,7.3v6.4h6.4c3.4,0,6.2,2.8,6.2,6.2c0,3.4-2.8,6.2-6.2,6.2h-6.4V171c0,3.4,1.4,5,4.7,5c0.5,0,1.4-0.1,1.7-0.1
		c3.3,0,6,2.7,6,6c0,2.6-1.7,4.7-3.7,5.5c-2.7,1.1-5.2,1.4-8.3,1.4C404,188.9,398,185.3,398,173.4z"/>
	<path class="st0" d="M435.2,124.4c0-4.2,3.5-6.8,8.1-6.8c4.6,0,8.1,2.6,8.1,6.8v0.2c0,4.2-3.5,6.9-8.1,6.9c-4.6,0-8.1-2.7-8.1-6.9
		V124.4z M436,143.3c0-4,3.3-7.3,7.3-7.3s7.3,3.3,7.3,7.3v38c0,4-3.3,7.3-7.3,7.3s-7.3-3.3-7.3-7.3V143.3z"/>
	<path class="st0" d="M486.3,189.1h-0.8c-3.9,0-6.6-2.5-8.2-6.3l-15.7-36.3c-0.4-1-0.8-2.2-0.8-3.5c0-3.5,3.2-6.8,7.1-6.8
		c3.9,0,6,2.2,7.1,5.2l11,29.8l11.2-30c1-2.5,3-5,6.8-5s7,3,7,6.9c0,1.2-0.5,2.8-0.8,3.4l-15.7,36.3
		C492.9,186.5,490.3,189.1,486.3,189.1z"/>
	<path class="st0" d="M543.2,189.2c-15.4,0-26.8-10.8-26.8-26.5v-0.2c0-14.7,10.4-26.7,25.4-26.7c17.2,0,24.7,14.1,24.7,24.7
		c0,4.2-3,7-6.8,7h-28.8c1.4,6.6,6,10.1,12.6,10.1c4,0,7.4-1.2,10.3-3.4c1.1-0.8,2-1.1,3.5-1.1c3.3,0,5.7,2.5,5.7,5.7
		c0,1.9-0.9,3.4-1.9,4.3C556.6,186.8,550.7,189.2,543.2,189.2z M552.6,158.3c-0.9-6.5-4.7-10.9-10.8-10.9c-6,0-10,4.3-11.1,10.9
		H552.6z"/>
</g>
<g id="Page-1_7_">
	<g id="Desktop-HD_7_" transform="translate(-249.000000, -205.000000)">
		<g id="Top_7_" transform="translate(238.000000, 204.000000)">
			<g id="electrode-logo_7_" transform="translate(11.000000, 0.000000)">
				<g id="Group-3_24_" transform="translate(562.630966, 0.882872)">
					<path id="Fill-1_24_" class="st0" d="M-186.1,25c-0.4,0-0.8-0.2-1-0.6l-3.1-5.3l-2.6,4.9c-0.2,0.5-0.7,0.7-1.2,0.6
						c-0.5-0.1-0.9-0.5-1-1l-2.3-12.9l-2.4,7.6c-0.2,0.5-0.6,0.8-1.1,0.8h-6.1c-0.7,0-1.2-0.5-1.2-1.2c0-0.7,0.5-1.2,1.2-1.2h5.2
						l3.6-11.4c0.2-0.5,0.7-0.9,1.2-0.8c0.6,0,1,0.4,1.1,1l2.6,14.2l2-3.7c0.2-0.4,0.6-0.6,1-0.6c0.4,0,0.8,0.2,1.1,0.6l2.7,4.5
						l4.6-19.6c0.1-0.6,0.6-0.9,1.2-0.9c0.6,0,1,0.4,1.1,1l3,15.8l9.5,0.4c0.7,0,1.2,0.6,1.1,1.2c0,0.7-0.6,1.2-1.2,1.1l-10.4-0.5
						c-0.6,0-1-0.4-1.1-1l-2.1-11.2l-4,17c-0.1,0.5-0.5,0.8-1,0.9C-185.9,25-186,25-186.1,25"/>
				</g>
				<g id="Group-6_24_" transform="translate(530.151339, 22.876115)">
					<g id="Clip-5_24_">
					</g>
					<defs>
						<filter id="Adobe_OpacityMaskFilter" filterUnits="userSpaceOnUse" x="-195.8" y="-7.7" width="82.7" height="82.5">
							<feColorMatrix  type="matrix" values="1 0 0 0 0  0 1 0 0 0  0 0 1 0 0  0 0 0 1 0"/>
						</filter>
					</defs>
					<mask maskUnits="userSpaceOnUse" x="-195.8" y="-7.7" width="82.7" height="82.5" id="mask-2_2_">
						<g class="st1">
							<polygon id="path-1_2_" class="st0" points="-195.8,74.8 -113.1,74.8 -113.1,-7.7 -195.8,-7.7 							"/>
						</g>
					</mask>
					<path id="Fill-4_24_" class="st2" d="M-154.5,67.2c-13.6,0-24.6-11-24.6-24.6c0-13.6,11-24.6,24.6-24.6
						c13.6,0,24.6,11,24.6,24.6C-129.9,56.2-140.9,67.2-154.5,67.2 M-124.4,29.7l-1-0.1l-0.4-0.9c-1.7-3.5-4.1-6.7-7-9.4l-1-0.9
						l9.5-16.1l0.8-0.1c2.4-0.4,4.2-2.4,4.2-4.9c0-2.7-2.2-5-5-5c-2.7,0-5,2.2-5,5c0,0.8,0.2,1.6,0.6,2.3l0.5,0.9l-9.3,15.1
						l-1.4-0.8c-4.7-2.6-10.1-4.1-15.5-4.1h0h0c-5.4,0-10.8,1.4-15.5,4.1l-1.4,0.8l-9.5-15.3l0.4-0.8c0.3-0.7,0.5-1.4,0.5-2.1
						c0-2.7-2.2-5-5-5c-2.7,0-5,2.2-5,5c0,2.5,1.9,4.7,4.4,4.9l0.9,0.1l9.5,16l-1,0.9c-2.9,2.7-5.3,5.9-7,9.5l-0.4,0.9l-1,0.1
						c-6.4,0.6-11.2,5.9-11.2,12.3c0,6.1,4.6,11.4,10.6,12.2l1,0.1l0.4,0.9c5,11.8,16.5,19.5,29.4,19.5h0h0
						c12.8-0.1,24.4-7.7,29.4-19.5l0.4-0.9l1-0.1c6-0.9,10.6-6.1,10.6-12.2C-113.1,35.6-118,30.3-124.4,29.7"/>
				</g>
				<path id="Fill-7_24_" class="st0" d="M388.5,59.9c0,2-1.6,3.5-3.5,3.5c-2,0-3.5-1.6-3.5-3.5c0-2,1.6-3.5,3.5-3.5
					C386.9,56.3,388.5,57.9,388.5,59.9"/>
				<path id="Fill-9_24_" class="st0" d="M369.9,59.9c0,2-1.6,3.5-3.5,3.5c-2,0-3.5-1.6-3.5-3.5c0-2,1.6-3.5,3.5-3.5
					C368.3,56.3,369.9,57.9,369.9,59.9"/>
				<g id="Group-13_7_" transform="translate(0.000000, 49.058547)">
					<g id="Clip-12_7_">
					</g>
					<defs>
						<filter id="Adobe_OpacityMaskFilter_1_" filterUnits="userSpaceOnUse" x="0.6" y="-17.8" width="57.8" height="63.9">
							<feColorMatrix  type="matrix" values="1 0 0 0 0  0 1 0 0 0  0 0 1 0 0  0 0 0 1 0"/>
						</filter>
					</defs>
					<mask maskUnits="userSpaceOnUse" x="0.6" y="-17.8" width="57.8" height="63.9" id="mask-4_2_">
						<g class="st3">
							<polygon id="path-3_2_" class="st0" points="0.6,-17.8 0.6,46.1 58.5,46.1 58.5,-17.8 							"/>
						</g>
					</mask>
					<path id="Fill-11_7_" class="st4" d="M49.3,10.7C48.4-0.4,42-10.1,29.8-10.1c-10.7,0-18.7,8.9-19.9,20.8H49.3z M31.2,46.1
						c-16.8,0-30.6-12.9-30.6-31.9V14C0.6-3.6,13.1-17.8,30-17.8c18.1,0,28.4,14.8,28.4,31c0,2.5-2,4.3-4.3,4.3H9.9
						c1.3,13.3,10.7,20.7,21.6,20.7c7.6,0,13.2-3,17.7-7.1c0.7-0.6,1.5-1.1,2.6-1.1c2.3,0,4,1.8,4,3.9c0,1.1-0.5,2.1-1.4,3
						C48.5,42.5,41.6,46.1,31.2,46.1L31.2,46.1z"/>
				</g>
				<path id="Fill-14_7_" class="st0" d="M75.4,11.3c0-2.5,2-4.6,4.5-4.6c2.6,0,4.6,2.1,4.6,4.6v78.4c0,2.6-1.9,4.6-4.5,4.6
					c-2.6,0-4.6-2-4.6-4.6V11.3z"/>
				<path id="Fill-16_7_" class="st0" d="M150.6,59.8c-0.9-11.1-7.3-20.8-19.5-20.8c-10.7,0-18.7,8.9-19.9,20.8H150.6z M132.5,95.2
					c-16.8,0-30.6-12.9-30.6-31.9v-0.2c0-17.6,12.4-31.9,29.4-31.9c18.1,0,28.4,14.8,28.4,31c0,2.5-2,4.3-4.3,4.3h-44.3
					c1.3,13.3,10.7,20.7,21.6,20.7c7.6,0,13.2-3,17.7-7.1c0.7-0.6,1.5-1.1,2.6-1.1c2.3,0,4,1.8,4,3.9c0,1.1-0.5,2.1-1.4,3
					C149.8,91.5,142.9,95.2,132.5,95.2L132.5,95.2z"/>
				<path id="Fill-18_7_" class="st0" d="M172.1,63.4v-0.2c0-17.3,13.5-32,31.4-32c10.2,0,17.1,3.9,22.5,8.9
					c0.7,0.6,1.4,1.8,1.4,3.2c0,2.5-2,4.4-4.4,4.4c-1.2,0-2.3-0.5-3-1.1c-4.4-4-9.4-7.3-16.7-7.3c-12.4,0-21.9,10.5-21.9,23.7v0.2
					c0,13.3,9.7,23.8,22.5,23.8c7,0,12.6-3.2,17.1-7.5c0.6-0.6,1.4-1.2,2.6-1.2c2.3,0,4.1,2,4.1,4.1c0,1.1-0.5,2.1-1.2,2.8
					c-5.8,5.8-12.8,9.8-23.1,9.8C185.6,95.2,172.1,80.6,172.1,63.4"/>
				<path id="Fill-20_7_" class="st0" d="M246.7,77.5V40.6h-5c-2.1,0-4-1.9-4-4c0-2.2,1.9-4,4-4h5V18.1c0-2.5,1.9-4.6,4.5-4.6
					c2.5,0,4.6,2.1,4.6,4.6v14.4h15.9c2.3,0,4.1,1.9,4.1,4c0,2.3-1.9,4-4.1,4h-15.9v35.8c0,7.5,4.1,10.2,10.3,10.2
					c3.2,0,4.9-0.8,5.6-0.8c2.1,0,3.9,1.8,3.9,3.9c0,1.7-1.1,3-2.6,3.6c-2.6,1.1-5.5,1.7-9,1.7C254.2,94.8,246.7,90,246.7,77.5"/>
				<path id="Fill-22_7_" class="st0" d="M291.4,36.6c0-2.5,2-4.6,4.5-4.6c2.6,0,4.6,2,4.6,4.6V48c4.5-10.2,13.4-16.3,21.1-16.3
					c2.7,0,4.5,2,4.5,4.6c0,2.5-1.7,4.3-4,4.6c-11.8,1.4-21.6,10.3-21.6,27.9v20.8c0,2.5-1.9,4.6-4.5,4.6c-2.6,0-4.6-2-4.6-4.6V36.6
					z"/>
				<path id="Fill-24_7_" class="st0" d="M438.6,63v0.2c0,14.4,10.1,23.7,21.6,23.7c11.4,0,22.2-9.6,22.2-23.7V63
					c0-14.1-10.8-23.6-22.2-23.6C448.3,39.4,438.6,48.2,438.6,63L438.6,63z M491.1,89.7c0,2.6-2,4.6-4.5,4.6c-2.6,0-4.6-2-4.6-4.6
					v-8.3c-5,7.3-12.2,13.6-23.5,13.6c-14.7,0-29.3-11.6-29.3-31.7v-0.2c0-20,14.6-31.9,29.3-31.9c11.4,0,18.7,6.2,23.5,13V11.3
					c0-2.6,1.9-4.6,4.5-4.6c2.6,0,4.6,2,4.6,4.6V89.7z"/>
				<path id="Fill-26_7_" class="st0" d="M556.4,59.8c-0.9-11.1-7.3-20.8-19.5-20.8c-10.7,0-18.7,8.9-19.9,20.8H556.4z M538.3,95.2
					c-16.8,0-30.6-12.9-30.6-31.9v-0.2c0-17.6,12.4-31.9,29.4-31.9c18.1,0,28.4,14.8,28.4,31c0,2.5-2,4.3-4.3,4.3h-44.3
					c1.3,13.3,10.7,20.7,21.6,20.7c7.6,0,13.2-3,17.7-7.1c0.7-0.6,1.5-1.1,2.6-1.1c2.3,0,4,1.8,4,3.9c0,1.1-0.5,2.1-1.4,3
					C555.5,91.5,548.7,95.2,538.3,95.2L538.3,95.2z"/>
			</g>
		</g>
	</g>
</g>
</svg>
