<?xml version="1.0" encoding="utf-8"?>
<!-- Generator: Adobe Illustrator 21.0.2, SVG Export Plug-In . SVG Version: 6.00 Build 0)  -->
<svg version="1.1" id="Layer_1" xmlns="http://www.w3.org/2000/svg" xmlns:xlink="http://www.w3.org/1999/xlink" x="0px" y="0px"
	 viewBox="0 0 202.3 69.4" style="enable-background:new 0 0 202.3 69.4;" xml:space="preserve">
<style type="text/css">
	.st0{enable-background:new    ;}
	.st1{fill:#FFFFFF;}
</style>
<title>ern_alt2</title>
<g id="Layer_2">
	<g id="Layer_1-2">
		<g class="st0">
			<path class="st1" d="M25.9,50.1c0-0.4,0.3-0.7,0.6-0.7s0.7,0.3,0.7,0.7v3.3c1.2-2.7,3.6-4.1,5.5-4.1c0.4,0,0.7,0.3,0.7,0.7
				s-0.3,0.7-0.7,0.7c-2.9,0.3-5.5,2.5-5.5,6.9v5.1c0,0.4-0.3,0.7-0.6,0.7s-0.7-0.3-0.7-0.7V50.1z"/>
		</g>
		<g class="st0">
			<path class="st1" d="M41.8,63.6c-3.6,0-6.7-2.9-6.7-7.2v-0.1c0-4,2.8-7.2,6.5-7.2c3.9,0,6.3,3.2,6.3,7.1c0,0.3-0.3,0.6-0.6,0.6
				H36.5c0.2,3.4,2.7,5.4,5.4,5.4c2,0,3.3-0.8,4.5-1.9c0.1-0.1,0.2-0.2,0.4-0.2c0.4,0,0.6,0.3,0.6,0.6c0,0.1-0.1,0.3-0.2,0.5
				C45.8,62.7,44.3,63.6,41.8,63.6z M46.5,55.8c-0.2-2.8-1.8-5.3-4.9-5.3c-2.7,0-4.8,2.3-5.1,5.3H46.5z"/>
			<path class="st1" d="M50.6,59.3L50.6,59.3c0-2.9,2.5-4.5,6-4.5c1.9,0,3.2,0.2,4.6,0.6v-0.6c0-2.8-1.7-4.2-4.5-4.2
				c-1.5,0-2.8,0.4-3.9,0.9c-0.1,0.1-0.2,0.1-0.3,0.1c-0.3,0-0.6-0.3-0.6-0.6s0.2-0.5,0.4-0.6c1.4-0.6,2.8-1,4.5-1
				c1.9,0,3.3,0.5,4.3,1.5c0.9,0.9,1.4,2.2,1.4,3.9v8c0,0.4-0.3,0.7-0.6,0.7s-0.6-0.3-0.6-0.7V61c-0.9,1.3-2.6,2.6-5.3,2.6
				C53.4,63.6,50.6,62.2,50.6,59.3z M61.3,58.2v-1.6c-1.2-0.3-2.7-0.6-4.7-0.6c-2.9,0-4.5,1.3-4.5,3.2v0.1c0,2,1.9,3.2,4,3.2
				C58.9,62.4,61.3,60.7,61.3,58.2z"/>
			<path class="st1" d="M66.3,56.5L66.3,56.5c0-3.9,3.1-7.3,7-7.3c2.4,0,3.9,1,5.2,2.2c0.1,0.1,0.2,0.3,0.2,0.5
				c0,0.4-0.3,0.7-0.7,0.7c-0.2,0-0.4-0.1-0.5-0.2c-1.1-1.1-2.4-1.9-4.3-1.9c-3.1,0-5.6,2.6-5.6,5.9v0.1c0,3.3,2.5,6,5.7,6
				c1.8,0,3.2-0.9,4.3-2c0.1-0.1,0.2-0.2,0.4-0.2c0.3,0,0.6,0.3,0.6,0.6c0,0.1-0.1,0.3-0.2,0.4c-1.4,1.4-3,2.4-5.3,2.4
				C69.4,63.6,66.3,60.3,66.3,56.5z"/>
			<path class="st1" d="M83.4,59.8v-9h-1.5c-0.3,0-0.6-0.3-0.6-0.6s0.3-0.6,0.6-0.6h1.5v-3.8c0-0.4,0.3-0.7,0.6-0.7
				c0.4,0,0.7,0.3,0.7,0.7v3.8H89c0.3,0,0.6,0.3,0.6,0.6s-0.3,0.6-0.6,0.6h-4.3v8.9c0,2,1.2,2.7,2.8,2.7c0.9,0,1.4-0.3,1.6-0.3
				c0.3,0,0.6,0.3,0.6,0.6s-0.2,0.5-0.4,0.6c-0.5,0.2-1.2,0.4-1.9,0.4C85.1,63.6,83.4,62.4,83.4,59.8z"/>
			<path class="st1" d="M101.6,50.1c0-0.4,0.3-0.7,0.6-0.7s0.7,0.3,0.7,0.7v2c0.9-1.6,2.5-2.9,5-2.9c3.5,0,5.5,2.4,5.5,5.7v7.9
				c0,0.4-0.3,0.7-0.6,0.7s-0.7-0.3-0.7-0.7v-7.6c0-2.8-1.6-4.7-4.4-4.7c-2.7,0-4.8,2.1-4.8,4.9v7.4c0,0.4-0.3,0.7-0.6,0.7
				c-0.4,0-0.7-0.3-0.7-0.7V50.1z"/>
		</g>
		<g class="st0">
			<path class="st1" d="M117,59.3L117,59.3c0-2.9,2.5-4.5,6-4.5c1.9,0,3.2,0.2,4.6,0.6v-0.6c0-2.8-1.7-4.2-4.5-4.2
				c-1.5,0-2.8,0.4-3.9,0.9c-0.1,0.1-0.2,0.1-0.3,0.1c-0.3,0-0.6-0.3-0.6-0.6s0.2-0.5,0.4-0.6c1.4-0.6,2.8-1,4.5-1
				c1.9,0,3.3,0.5,4.3,1.5c0.9,0.9,1.4,2.2,1.4,3.9v8c0,0.4-0.3,0.7-0.6,0.7s-0.6-0.3-0.6-0.7V61c-0.9,1.3-2.6,2.6-5.3,2.6
				C119.8,63.6,117,62.2,117,59.3z M127.6,58.2v-1.6c-1.2-0.3-2.7-0.6-4.7-0.6c-2.9,0-4.5,1.3-4.5,3.2v0.1c0,2,1.9,3.2,4,3.2
				C125.2,62.4,127.6,60.7,127.6,58.2z"/>
		</g>
		<g class="st0">
			<path class="st1" d="M134.2,59.8v-9h-1.5c-0.3,0-0.6-0.3-0.6-0.6s0.3-0.6,0.6-0.6h1.5v-3.8c0-0.4,0.3-0.7,0.6-0.7
				s0.7,0.3,0.7,0.7v3.8h4.3c0.3,0,0.6,0.3,0.6,0.6s-0.3,0.6-0.6,0.6h-4.3v8.9c0,2,1.2,2.7,2.8,2.7c0.9,0,1.4-0.3,1.6-0.3
				c0.3,0,0.6,0.3,0.6,0.6s-0.2,0.5-0.4,0.6c-0.5,0.2-1.2,0.4-1.9,0.4C136,63.6,134.2,62.4,134.2,59.8z"/>
			<path class="st1" d="M144.3,44.8c0-0.5,0.4-0.8,0.8-0.8s0.8,0.4,0.8,0.8v0.5c0,0.5-0.4,0.8-0.8,0.8s-0.8-0.4-0.8-0.8V44.8z
				 M144.5,50.1c0-0.4,0.3-0.7,0.6-0.7s0.7,0.3,0.7,0.7v12.6c0,0.4-0.3,0.7-0.6,0.7s-0.7-0.3-0.7-0.7V50.1z"/>
		</g>
		<g class="st0">
			<path class="st1" d="M156.4,63.5L156.4,63.5c-0.4,0-0.6-0.2-0.8-0.6L150,50.5c-0.1-0.1-0.1-0.3-0.1-0.4c0-0.4,0.3-0.7,0.7-0.7
				s0.6,0.2,0.7,0.5l5,11.8l5.1-11.9c0.1-0.3,0.3-0.5,0.6-0.5c0.4,0,0.7,0.3,0.7,0.7c0,0.1,0,0.2-0.1,0.4L157,62.9
				C157,63.3,156.8,63.5,156.4,63.5z"/>
		</g>
		<g class="st0">
			<path class="st1" d="M171.7,63.6c-3.6,0-6.7-2.9-6.7-7.2v-0.1c0-4,2.8-7.2,6.5-7.2c3.9,0,6.3,3.2,6.3,7.1c0,0.3-0.3,0.6-0.6,0.6
				h-10.8c0.2,3.4,2.7,5.4,5.4,5.4c2,0,3.3-0.8,4.5-1.9c0.1-0.1,0.2-0.2,0.4-0.2c0.4,0,0.6,0.3,0.6,0.6c0,0.1-0.1,0.3-0.2,0.5
				C175.8,62.7,174.2,63.6,171.7,63.6z M176.4,55.8c-0.2-2.8-1.8-5.3-4.9-5.3c-2.7,0-4.8,2.3-5.1,5.3H176.4z"/>
		</g>
		<g id="Page-1">
			<g id="Desktop-HD">
				<g id="Top">
					<g id="electrode-logo">
						<g id="Group-3">
							<path id="Fill-1" class="st1" d="M134.6,8.9c-0.2,0-0.3-0.1-0.4-0.2l-1.1-1.9l-0.9,1.8c-0.1,0.2-0.4,0.3-0.6,0.2
								c-0.1-0.1-0.2-0.2-0.2-0.3l-0.8-4.6l-0.9,2.7c-0.1,0.2-0.2,0.3-0.4,0.3h-2.2c-0.2,0-0.4-0.2-0.4-0.4c0-0.2,0.2-0.4,0.4-0.4
								h1.9l1.3-4.1c0.1-0.2,0.3-0.3,0.5-0.3c0.1,0,0.3,0.2,0.3,0.3l0.9,5.1l0.7-1.3c0.1-0.2,0.4-0.3,0.6-0.2c0.1,0,0.1,0.1,0.2,0.2
								l1,1.6l1.6-7c0.1-0.2,0.3-0.4,0.5-0.3c0.2,0,0.3,0.2,0.3,0.3l1,5.7l3.4,0.2c0.2,0,0.4,0.2,0.4,0.4c0,0.2-0.2,0.4-0.4,0.4l0,0
								l-3.7-0.2c-0.2,0-0.4-0.2-0.4-0.3l-0.8-4l-1.4,6C135,8.7,134.8,8.9,134.6,8.9L134.6,8.9"/>
						</g>
						<g id="Group-6">
							<g>
								<path id="Fill-4" class="st1" d="M134.3,31.9c-4.9,0-8.8-3.9-8.8-8.8s3.9-8.8,8.8-8.8s8.8,3.9,8.8,8.8
									S139.2,31.9,134.3,31.9L134.3,31.9 M145.1,18.5h-0.3l-0.1-0.3c-0.6-1.3-1.5-2.4-2.5-3.4l-0.4-0.3l3.4-5.8h0.3
									c1-0.2,1.6-1.1,1.5-2s-1.1-1.6-2-1.5s-1.6,1.1-1.5,2c0,0.2,0.1,0.4,0.2,0.6l0.2,0.3l-3.3,5.4l-0.5-0.3
									c-1.7-0.9-3.6-1.5-5.6-1.5l0,0c-1.9,0-3.9,0.5-5.6,1.5l-0.5,0.3L124.9,8l0.1-0.3c0.1-0.2,0.2-0.5,0.2-0.8
									c0-1-0.8-1.8-1.8-1.8s-1.8,0.8-1.8,1.8c0,0.9,0.7,1.6,1.5,1.7h0.3l3.4,5.8l-0.4,0.3c-1,0.9-1.9,2.1-2.5,3.3l-0.2,0.3h-0.3
									c-2.4,0.2-4.2,2.4-4,4.8c0.2,2,1.7,3.7,3.8,4h0.3l0.1,0.3c1.8,4.2,5.9,7,10.5,7l0,0c4.6,0,8.7-2.8,10.5-7l0.1-0.3h0.3
									c2.4-0.4,4.1-2.6,3.7-5C148.7,20.2,147.1,18.6,145.1,18.5"/>
							</g>
						</g>
						<path id="Fill-7" class="st1" d="M138.9,21.1c0,0.7-0.6,1.3-1.3,1.3s-1.3-0.6-1.3-1.3c0-0.7,0.6-1.3,1.3-1.3
							S138.9,20.4,138.9,21.1L138.9,21.1"/>
						<path id="Fill-9" class="st1" d="M132.2,21.1c0,0.7-0.6,1.3-1.3,1.3s-1.3-0.6-1.3-1.3s0.6-1.3,1.3-1.3l0,0
							C131.7,19.8,132.3,20.4,132.2,21.1C132.3,21.1,132.3,21.1,132.2,21.1"/>
						<g id="Group-13">
							<g>
								<path id="Fill-11" class="st1" d="M17.4,21c-0.3-4-2.6-7.5-7-7.5c-3.8,0-6.7,3.2-7.1,7.5H17.4z M10.9,33.7
									C4.9,33.7,0,29.1,0,22.3v-0.1c0-6.3,4.4-11.4,10.5-11.4c6.5,0,10.2,5.3,10.2,11.1c0,0.8-0.7,1.5-1.5,1.5l0,0H3.3
									c0.5,4.8,3.8,7.4,7.7,7.4c2.4,0,4.6-0.9,6.3-2.5c0.6-0.5,1.5-0.5,2,0.1c0.2,0.3,0.4,0.6,0.4,0.9c0,0.4-0.2,0.8-0.5,1.1
									C17,32.6,14,33.8,10.9,33.7L10.9,33.7z"/>
							</g>
						</g>
						<path id="Fill-14" class="st1" d="M26.8,3.7c0-0.9,0.7-1.6,1.6-1.6S30,2.8,30,3.7v28.1c0,0.9-0.7,1.6-1.5,1.6h-0.1
							c-0.9,0-1.6-0.7-1.6-1.6l0,0V3.7z"/>
						<path id="Fill-16" class="st1" d="M53.7,21c-0.3-4-2.6-7.5-7-7.5c-3.8,0-6.7,3.2-7.1,7.5H53.7z M47.2,33.7
							c-6,0-11-4.6-11-11.4v-0.1c0-6.3,4.5-11.4,10.5-11.4c6.5,0,10.2,5.3,10.2,11.1c0,0.8-0.7,1.5-1.5,1.5l0,0H39.6
							c0.5,4.8,3.8,7.4,7.7,7.4c2.4,0,4.6-0.9,6.3-2.5c0.6-0.5,1.5-0.5,2,0.1c0.2,0.3,0.4,0.6,0.4,0.9c0,0.4-0.2,0.8-0.5,1.1
							C53.3,32.6,50.3,33.8,47.2,33.7L47.2,33.7z"/>
						<path id="Fill-18" class="st1" d="M61.4,22.4L61.4,22.4c0-6.4,5.1-11.5,11.3-11.5c3,0,5.8,1.1,8,3.2c0.3,0.3,0.5,0.7,0.5,1.1
							c0,0.9-0.7,1.6-1.6,1.6l0,0c-0.4,0-0.8-0.1-1.1-0.4c-1.6-1.6-3.7-2.6-6-2.6c-4.4,0-7.8,3.8-7.8,8.5v0.1
							c-0.2,4.5,3.3,8.3,7.9,8.5c0.1,0,0.1,0,0.2,0c2.3-0.1,4.5-1,6.1-2.7c0.2-0.3,0.6-0.4,0.9-0.4c0.8,0,1.5,0.7,1.5,1.5
							c0,0.4-0.2,0.7-0.4,1c-2.1,2.3-5.1,3.6-8.3,3.5C66.4,33.7,61.4,28.6,61.4,22.4L61.4,22.4"/>
						<path id="Fill-20" class="st1" d="M88.1,27.4V14.2h-1.8c-0.8,0-1.4-0.7-1.4-1.4c0-0.8,0.6-1.4,1.4-1.4h1.8V6.1
							c0-0.9,0.7-1.6,1.6-1.6l0,0c0.9,0,1.6,0.7,1.7,1.7v5.2h5.7c0.8,0,1.5,0.6,1.5,1.4c0,0.8-0.7,1.4-1.5,1.4h-5.7V27
							c0,2.7,1.5,3.6,3.7,3.6c0.7,0,1.3-0.1,2-0.3c0.8,0,1.4,0.6,1.4,1.4c0,0.6-0.4,1.1-0.9,1.2c-1,0.4-2.1,0.6-3.2,0.6
							C90.8,33.6,88.1,31.9,88.1,27.4"/>
						<path id="Fill-22" class="st1" d="M104.1,12.7c0-0.9,0.7-1.6,1.6-1.6s1.6,0.7,1.7,1.6l0,0v4.1c1.6-3.6,4.8-5.8,7.6-5.8
							c0.9,0,1.6,0.7,1.6,1.5v0.1c0,0.8-0.6,1.6-1.4,1.6c-4.2,0.5-7.7,3.7-7.7,10v7.5c0,0.9-0.7,1.6-1.6,1.6s-1.6-0.7-1.6-1.6v-19
							H104.1z"/>
						<path id="Fill-24" class="st1" d="M156.8,22.2L156.8,22.2c0,5.2,3.6,8.6,7.7,8.6c4.5-0.1,8.1-3.9,7.9-8.4l0,0v-0.1
							c0.2-4.5-3.4-8.3-7.9-8.4h-0.1C160.3,13.7,156.8,16.9,156.8,22.2z M175.6,31.8c0,0.9-0.7,1.6-1.6,1.6c-0.9,0-1.6-0.7-1.6-1.6
							v-3c-1.8,2.6-4.4,4.9-8.4,4.9c-5.3,0-10.5-4.2-10.5-11.4v-0.1c0-7.2,5.2-11.4,10.5-11.4c3.4,0,6.6,1.8,8.4,4.7V3.7
							c-0.1-0.9,0.6-1.6,1.5-1.7c0.1,0,0.1,0,0.2,0c0.9,0,1.6,0.7,1.6,1.6l0,0L175.6,31.8z"/>
						<path id="Fill-26" class="st1" d="M199,21c-0.3-4-2.6-7.5-7-7.5c-3.8,0-6.7,3.2-7.1,7.5H199z M192.5,33.7
							c-6,0-10.9-4.6-10.9-11.4v-0.1c0-6.3,4.4-11.4,10.5-11.4c6.5,0,10.2,5.3,10.2,11.1c0,0.8-0.7,1.5-1.5,1.5l0,0h-15.9
							c0.5,4.8,3.8,7.4,7.7,7.4c2.4,0,4.6-0.9,6.3-2.5c0.6-0.5,1.5-0.5,2,0.1c0.2,0.3,0.4,0.6,0.4,0.9c0,0.4-0.2,0.8-0.5,1.1
							C198.6,32.6,195.6,33.8,192.5,33.7L192.5,33.7z"/>
					</g>
				</g>
			</g>
		</g>
	</g>
</g>
</svg>
