<?xml version="1.0" encoding="utf-8"?>
<!-- Generator: Adobe Illustrator 21.0.2, SVG Export Plug-In . SVG Version: 6.00 Build 0)  -->
<svg version="1.1" id="Layer_1" xmlns="http://www.w3.org/2000/svg" xmlns:xlink="http://www.w3.org/1999/xlink" x="0px" y="0px"
	 viewBox="0 0 204.9 75.3" style="enable-background:new 0 0 204.9 75.3;" xml:space="preserve">
<style type="text/css">
	.st0{enable-background:new    ;}
	.st1{fill:#FFFFFF;}
</style>
<title>ern_alt1</title>
<g id="Layer_2">
	<g id="Layer_1-2">
		<g class="st0">
			<path class="st1" d="M3.3,49.9c0-0.5,0.4-0.9,0.9-0.9S5,49.4,5,49.9v4.4c1.6-3.5,4.7-5.4,7.3-5.4c0.5,0,0.9,0.4,0.9,1
				c0,0.5-0.4,0.9-0.9,1c-3.8,0.3-7.3,3.2-7.3,9v6.7c0,0.5-0.4,0.9-0.9,0.9s-0.9-0.4-0.9-0.9V49.9H3.3z"/>
		</g>
		<g class="st0">
			<path class="st1" d="M24.2,67.7c-4.8,0-8.9-3.8-8.9-9.4v-0.1c0-5.3,3.7-9.4,8.6-9.4c5.1,0,8.3,4.2,8.3,9.4c0,0.4-0.4,0.8-0.9,0.8
				H17.2c0.3,4.5,3.6,7.1,7.1,7.1c2.6,0,4.4-1.1,5.9-2.5c0.1-0.1,0.3-0.2,0.6-0.2c0.5,0,0.9,0.4,0.9,0.8c0,0.2-0.1,0.4-0.3,0.6
				C29.5,66.6,27.5,67.7,24.2,67.7z M30.4,57.4c-0.2-3.7-2.3-7-6.5-7c-3.6,0-6.4,3-6.7,7H30.4z"/>
			<path class="st1" d="M35.9,62.1L35.9,62.1c0-3.8,3.2-6,7.9-6c2.5,0,4.3,0.3,6,0.8v-0.8c0-3.7-2.2-5.5-6-5.5c-2,0-3.7,0.5-5.1,1.2
				c-0.1,0.1-0.3,0.1-0.4,0.1c-0.4,0-0.8-0.4-0.8-0.8c0-0.4,0.3-0.7,0.5-0.8c1.8-0.8,3.7-1.3,6-1.3c2.4,0,4.4,0.7,5.7,2
				c1.2,1.2,1.8,2.9,1.8,5.1v10.5c0,0.5-0.4,0.9-0.9,0.9s-0.9-0.4-0.9-0.9v-2.3c-1.2,1.7-3.5,3.4-6.9,3.4
				C39.5,67.7,35.9,65.8,35.9,62.1z M49.8,60.5v-2.1c-1.5-0.4-3.6-0.8-6.1-0.8c-3.8,0-6,1.7-6,4.2v0.1c0,2.6,2.5,4.2,5.3,4.2
				C46.6,66.1,49.8,63.8,49.8,60.5z"/>
			<path class="st1" d="M56.5,58.3L56.5,58.3c0-5.1,4-9.6,9.2-9.6c3.1,0,5.2,1.3,6.8,2.9c0.1,0.1,0.2,0.4,0.2,0.6
				c0,0.5-0.4,0.9-0.9,0.9c-0.2,0-0.5-0.1-0.6-0.2c-1.5-1.4-3.2-2.6-5.6-2.6c-4.1,0-7.3,3.4-7.3,7.8v0.1c0,4.4,3.3,7.8,7.5,7.8
				c2.3,0,4.2-1.1,5.7-2.6c0.1-0.1,0.3-0.3,0.6-0.3c0.4,0,0.9,0.4,0.9,0.9c0,0.2-0.1,0.4-0.2,0.5c-1.8,1.8-3.9,3.1-7,3.1
				C60.5,67.7,56.5,63.4,56.5,58.3z"/>
			<path class="st1" d="M78.9,62.7V50.8h-2c-0.4,0-0.8-0.4-0.8-0.8c0-0.4,0.4-0.8,0.8-0.8h2v-5c0-0.5,0.4-0.9,0.9-0.9
				s0.9,0.4,0.9,0.9v5h5.7c0.4,0,0.8,0.4,0.8,0.8s-0.4,0.8-0.8,0.8h-5.7v11.7c0,2.6,1.5,3.5,3.6,3.5c1.2,0,1.8-0.4,2.1-0.4
				c0.4,0,0.8,0.4,0.8,0.8S87,67,86.6,67.1c-0.7,0.2-1.5,0.5-2.6,0.5C81.2,67.6,78.9,66.1,78.9,62.7z"/>
			<path class="st1" d="M102.8,49.9c0-0.5,0.4-0.9,0.9-0.9s0.9,0.4,0.9,0.9v2.6c1.2-2.1,3.2-3.8,6.5-3.8c4.6,0,7.2,3.1,7.2,7.5v10.3
				c0,0.5-0.4,0.9-0.9,0.9s-0.9-0.4-0.9-0.9v-10c0-3.7-2.1-6.2-5.8-6.2c-3.6,0-6.3,2.7-6.3,6.5v9.7c0,0.5-0.4,0.9-0.9,0.9
				s-0.9-0.4-0.9-0.9V49.9H102.8z"/>
		</g>
		<g class="st0">
			<path class="st1" d="M123.1,62.1L123.1,62.1c0-3.8,3.2-6,7.9-6c2.5,0,4.3,0.3,6,0.8v-0.8c0-3.7-2.2-5.5-6-5.5
				c-2,0-3.7,0.5-5.1,1.2c-0.1,0.1-0.3,0.1-0.4,0.1c-0.4,0-0.8-0.4-0.8-0.8c0-0.4,0.3-0.7,0.5-0.8c1.8-0.8,3.7-1.3,6-1.3
				c2.5,0,4.4,0.7,5.7,2c1.2,1.2,1.8,2.9,1.8,5.1v10.5c0,0.5-0.4,0.9-0.9,0.9s-0.9-0.4-0.9-0.9v-2.3c-1.2,1.7-3.5,3.4-6.9,3.4
				C126.7,67.7,123.1,65.8,123.1,62.1z M137.1,60.5v-2.1c-1.5-0.4-3.6-0.8-6.1-0.8c-3.8,0-6,1.7-6,4.2v0.1c0,2.6,2.5,4.2,5.3,4.2
				C133.9,66.1,137.1,63.8,137.1,60.5z"/>
		</g>
		<g class="st0">
			<path class="st1" d="M145.8,62.7V50.8h-2c-0.4,0-0.8-0.4-0.8-0.8c0-0.4,0.4-0.8,0.8-0.8h2v-5c0-0.5,0.4-0.9,0.9-0.9
				s0.9,0.4,0.9,0.9v5h5.7c0.4,0,0.8,0.4,0.8,0.8s-0.4,0.8-0.8,0.8h-5.7v11.7c0,2.6,1.5,3.5,3.6,3.5c1.2,0,1.8-0.4,2.1-0.4
				c0.4,0,0.8,0.4,0.8,0.8s-0.2,0.6-0.6,0.7c-0.7,0.2-1.5,0.5-2.6,0.5C148,67.6,145.8,66.1,145.8,62.7z"/>
			<path class="st1" d="M159,43c0-0.6,0.5-1.1,1.1-1.1s1.1,0.5,1.1,1.1v0.6c0,0.6-0.5,1.1-1.1,1.1s-1.1-0.5-1.1-1.1V43z M159.2,49.9
				c0-0.5,0.4-0.9,0.9-0.9s0.9,0.4,0.9,0.9v16.6c0,0.5-0.4,0.9-0.9,0.9s-0.9-0.4-0.9-0.9V49.9z"/>
		</g>
		<g class="st0">
			<path class="st1" d="M174.9,67.6L174.9,67.6c-0.6,0-0.9-0.3-1.1-0.7l-7.3-16.3c-0.1-0.2-0.1-0.4-0.1-0.5c0-0.5,0.4-0.9,0.9-0.9
				s0.7,0.3,0.9,0.7l6.6,15.6l6.7-15.7c0.1-0.4,0.4-0.6,0.9-0.6s0.9,0.4,0.9,0.9c0,0.2,0,0.3-0.1,0.5L175.9,67
				C175.7,67.3,175.4,67.6,174.9,67.6z"/>
		</g>
		<g class="st0">
			<path class="st1" d="M195.1,67.7c-4.8,0-8.9-3.8-8.9-9.4v-0.1c0-5.3,3.7-9.4,8.6-9.4c5.1,0,8.3,4.2,8.3,9.4
				c0,0.4-0.4,0.8-0.9,0.8H188c0.3,4.5,3.6,7.1,7.1,7.1c2.6,0,4.4-1.1,5.9-2.5c0.1-0.1,0.3-0.2,0.6-0.2c0.5,0,0.9,0.4,0.9,0.8
				c0,0.2-0.1,0.4-0.3,0.6C200.4,66.6,198.3,67.7,195.1,67.7z M201.2,57.4c-0.2-3.7-2.3-7-6.5-7c-3.6,0-6.4,3-6.7,7H201.2z"/>
		</g>
		<g id="Page-1">
			<g id="Desktop-HD">
				<g id="Top">
					<g id="electrode-logo">
						<g id="Group-3">
							<path id="Fill-1" class="st1" d="M135.8,8.9c-0.2,0-0.3-0.1-0.4-0.2l-1.1-1.9l-0.9,1.8c-0.1,0.2-0.4,0.3-0.6,0.2
								c-0.1-0.1-0.2-0.2-0.2-0.3l-0.8-4.6l-0.9,2.7c-0.1,0.2-0.2,0.3-0.4,0.3h-2.2c-0.2,0-0.4-0.2-0.4-0.4c0-0.2,0.2-0.4,0.4-0.4
								h1.9l1.3-4.1c0.1-0.2,0.3-0.3,0.5-0.3c0.1,0,0.3,0.2,0.3,0.3l0.9,5.1l0.7-1.3c0.1-0.2,0.4-0.3,0.6-0.2c0.1,0,0.1,0.1,0.2,0.2
								l1,1.6l1.6-7c0.1-0.2,0.3-0.4,0.5-0.3c0.2,0,0.3,0.2,0.3,0.3l1,5.7l3.4,0.2c0.2,0,0.4,0.2,0.4,0.4c0,0.2-0.2,0.4-0.4,0.4l0,0
								l-3.7-0.2c-0.2,0-0.4-0.2-0.4-0.3l-0.8-4l-1.4,6.1C136.2,8.9,136,9,135.8,8.9L135.8,8.9"/>
						</g>
						<g id="Group-6">
							<g>
								<path id="Fill-4" class="st1" d="M135.4,31.9c-4.9,0-8.8-3.9-8.8-8.8s3.9-8.8,8.8-8.8s8.8,3.9,8.8,8.8
									S140.3,31.9,135.4,31.9L135.4,31.9 M146.2,18.5h-0.3l-0.1-0.3c-0.6-1.3-1.5-2.4-2.5-3.4l-0.4-0.3l3.4-5.8h0.3
									c1-0.2,1.6-1.1,1.5-2S147,5,146,5.2s-1.6,1.1-1.5,2c0,0.2,0.1,0.4,0.2,0.6l0.2,0.3l-3.3,5.4l-0.6-0.4
									c-1.7-0.9-3.6-1.5-5.6-1.5l0,0c-1.9,0-3.9,0.5-5.6,1.5l-0.5,0.3L126,7.9l0.1-0.3c0.1-0.2,0.2-0.5,0.2-0.8
									c0-1-0.8-1.8-1.8-1.8s-1.8,0.8-1.8,1.8c0,0.9,0.7,1.6,1.5,1.7h0.3l3.4,5.8l-0.4,0.3c-1,1-1.9,2.1-2.5,3.4l-0.2,0.3h-0.3
									c-2.4,0.2-4.2,2.4-4,4.8c0.2,2,1.7,3.7,3.8,4h0.3l0.1,0.3c1.8,4.2,5.9,7,10.5,7l0,0c4.6,0,8.7-2.8,10.5-7l0.1-0.3h0.3
									c2.4-0.4,4.1-2.6,3.7-5C149.8,20.2,148.2,18.6,146.2,18.5"/>
							</g>
						</g>
						<path id="Fill-7" class="st1" d="M140,21.1c0,0.7-0.6,1.3-1.3,1.3s-1.3-0.6-1.3-1.3c0-0.7,0.6-1.3,1.3-1.3S140,20.4,140,21.1
							L140,21.1"/>
						<path id="Fill-9" class="st1" d="M133.4,21.1c0,0.7-0.6,1.3-1.3,1.3s-1.3-0.6-1.3-1.3c0-0.7,0.6-1.3,1.3-1.3
							S133.4,20.4,133.4,21.1L133.4,21.1"/>
						<g id="Group-13">
							<g>
								<path id="Fill-11" class="st1" d="M18.6,21c-0.3-4-2.6-7.5-7-7.5c-3.8,0-6.7,3.2-7.1,7.5H18.6z M12.1,33.7
									c-6,0-10.9-4.6-10.9-11.4v-0.1c0-6.3,4.4-11.4,10.5-11.4c6.5,0,10.2,5.3,10.2,11.1c0,0.8-0.7,1.5-1.5,1.5l0,0H4.5
									c0.5,4.8,3.8,7.4,7.7,7.4c2.4,0,4.6-0.9,6.3-2.5c0.6-0.5,1.5-0.5,2,0.1c0.2,0.3,0.4,0.6,0.4,0.9c0,0.4-0.2,0.8-0.5,1.1
									C18.2,32.6,15.2,33.8,12.1,33.7L12.1,33.7z"/>
							</g>
						</g>
						<path id="Fill-14" class="st1" d="M27.9,3.7c0-0.9,0.7-1.6,1.6-1.6s1.6,0.7,1.6,1.6v28.1c0,0.9-0.7,1.6-1.5,1.6h-0.1
							c-0.9,0-1.6-0.7-1.6-1.6l0,0V3.7z"/>
						<path id="Fill-16" class="st1" d="M54.9,21c-0.3-4-2.6-7.5-7-7.5c-3.8,0-6.7,3.2-7.1,7.5H54.9z M48.4,33.7
							c-6,0-11-4.6-11-11.4v-0.1c0-6.3,4.5-11.4,10.5-11.4c6.5,0,10.2,5.3,10.2,11.1c0,0.8-0.7,1.5-1.5,1.5l0,0H40.7
							c0.5,4.8,3.8,7.4,7.7,7.4c2.4,0,4.6-0.9,6.3-2.5c0.6-0.5,1.5-0.5,2,0.1c0.2,0.3,0.4,0.6,0.4,0.9c0,0.4-0.2,0.8-0.5,1.1
							C54.5,32.6,51.5,33.8,48.4,33.7L48.4,33.7z"/>
						<path id="Fill-18" class="st1" d="M62.5,22.4L62.5,22.4c0-6.4,5.1-11.5,11.3-11.5c3,0,5.8,1.1,8,3.2c0.3,0.3,0.5,0.7,0.5,1.1
							c0,0.9-0.7,1.6-1.6,1.6l0,0c-0.4,0-0.8-0.1-1.1-0.4c-1.6-1.6-3.7-2.6-6-2.6c-4.4,0-7.8,3.8-7.8,8.5v0.1
							c-0.2,4.5,3.3,8.3,7.8,8.5c0.1,0,0.2,0,0.3,0c2.3-0.1,4.5-1,6.1-2.7c0.2-0.3,0.6-0.4,0.9-0.4c0.8,0,1.5,0.7,1.5,1.5
							c0,0.4-0.2,0.7-0.4,1c-2.1,2.3-5.1,3.6-8.3,3.5c-6.2,0-11.3-5-11.3-11.2C62.5,22.4,62.5,22.4,62.5,22.4"/>
						<path id="Fill-20" class="st1" d="M89.3,27.4V14.2h-1.8c-0.8,0-1.5-0.6-1.5-1.4c0-0.8,0.6-1.4,1.4-1.4h1.8V6.1
							c0-0.9,0.7-1.6,1.6-1.6l0,0c0.9,0,1.6,0.7,1.7,1.7v5.2h5.7c0.8,0,1.5,0.6,1.5,1.4c0,0.8-0.7,1.4-1.5,1.4h-5.6V27
							c0,2.7,1.5,3.6,3.7,3.6c0.7,0,1.3-0.1,2-0.3c0.8,0,1.4,0.6,1.4,1.4c0,0.6-0.4,1.1-0.9,1.2c-1,0.4-2.1,0.6-3.2,0.6
							C92,33.6,89.3,31.9,89.3,27.4"/>
						<path id="Fill-22" class="st1" d="M105.3,12.7c0-0.9,0.7-1.6,1.6-1.6s1.6,0.7,1.7,1.6l0,0v4.1c1.6-3.6,4.8-5.9,7.6-5.9
							c0.9,0,1.6,0.7,1.6,1.5v0.1c0,0.8-0.6,1.6-1.4,1.6c-4.2,0.5-7.7,3.7-7.7,10v7.5c0,0.9-0.7,1.6-1.6,1.6s-1.6-0.7-1.6-1.6
							L105.3,12.7z"/>
						<path id="Fill-24" class="st1" d="M158,22.2L158,22.2c0,5.2,3.6,8.6,7.7,8.6c4.5-0.1,8.1-3.9,7.9-8.4l0,0v-0.1
							c0.2-4.5-3.4-8.3-7.9-8.4h-0.1C161.5,13.7,158,16.9,158,22.2z M176.8,31.8c0,0.9-0.7,1.6-1.6,1.6c-0.9,0-1.6-0.7-1.6-1.6v-3
							c-1.8,2.6-4.4,4.9-8.4,4.9c-5.3,0-10.5-4.2-10.5-11.4v-0.1c0-7.2,5.2-11.4,10.5-11.4c3.4,0,6.6,1.8,8.4,4.7V3.7
							c-0.1-0.9,0.6-1.6,1.5-1.7h0.1c0.9,0,1.6,0.7,1.6,1.6l0,0V31.8z"/>
						<path id="Fill-26" class="st1" d="M200.2,21c-0.3-4-2.6-7.5-7-7.5c-3.8,0-6.7,3.2-7.1,7.5H200.2z M193.7,33.7
							c-6,0-10.9-4.6-10.9-11.4v-0.1c0-6.3,4.4-11.4,10.5-11.4c6.5,0,10.2,5.3,10.2,11.1c0,0.8-0.7,1.5-1.5,1.5l0,0h-16
							c0.5,4.8,3.8,7.4,7.7,7.4c2.4,0,4.6-0.9,6.3-2.5c0.6-0.5,1.5-0.5,2,0.1c0.2,0.3,0.4,0.6,0.4,0.9c0,0.4-0.2,0.8-0.5,1.1
							C199.7,32.6,196.7,33.8,193.7,33.7L193.7,33.7z"/>
					</g>
				</g>
			</g>
		</g>
	</g>
</g>
</svg>
