<?xml version="1.0" encoding="utf-8"?>
<!-- Generator: Adobe Illustrator 21.0.2, SVG Export Plug-In . SVG Version: 6.00 Build 0)  -->
<svg version="1.1" id="Layer_1" xmlns="http://www.w3.org/2000/svg" xmlns:xlink="http://www.w3.org/1999/xlink" x="0px" y="0px"
	 viewBox="0 0 202.3 70.2" style="enable-background:new 0 0 202.3 70.2;" xml:space="preserve">
<style type="text/css">
	.st0{enable-background:new    ;}
	.st1{fill:#FFFFFF;}
</style>
<title>ern_alt3</title>
<g id="Layer_2">
	<g id="Layer_1-2">
		<g class="st0">
			<path class="st1" d="M29,51.5c0-0.8,0.6-1.5,1.5-1.5c0.8,0,1.5,0.7,1.5,1.5v1.3c0.7-1.6,2-2.9,3.3-2.9c0.9,0,1.5,0.6,1.5,1.5
				c0,0.8-0.5,1.3-1.2,1.4c-2.1,0.4-3.6,2-3.6,5.1v3.9c0,0.8-0.7,1.5-1.5,1.5S29,62.7,29,61.8C29,61.8,29,51.5,29,51.5z"/>
		</g>
		<g class="st0">
			<path class="st1" d="M44.9,63.6c-3.8,0-6.8-2.8-6.8-6.8l0,0c0-3.8,2.7-6.9,6.4-6.9c4.2,0,6.3,3.4,6.3,6.5c0,0.9-0.6,1.5-1.4,1.5
				h-8.3c0.3,2.1,1.8,3.3,3.8,3.3c1.3,0,2.3-0.4,3.1-1.1c0.2-0.2,0.4-0.3,0.8-0.3c0.7,0,1.2,0.5,1.2,1.2c0,0.4-0.2,0.7-0.4,0.9
				C48.5,62.9,47,63.6,44.9,63.6z M47.9,55.8c-0.2-1.9-1.3-3.5-3.3-3.5c-1.8,0-3.1,1.4-3.4,3.5H47.9z"/>
			<path class="st1" d="M53.1,59.5L53.1,59.5c0-2.9,2.2-4.3,5.4-4.3c1.5,0,2.5,0.2,3.5,0.5v-0.3c0-1.9-1.1-2.9-3.3-2.9
				c-1.1,0-2.1,0.2-2.9,0.5c-0.2,0-0.3,0.1-0.5,0.1c-0.7,0-1.3-0.5-1.3-1.2c0-0.5,0.4-1,0.8-1.2c1.2-0.5,2.5-0.8,4.2-0.8
				c2,0,3.4,0.5,4.4,1.5s1.4,2.3,1.4,4.1V62c0,0.8-0.6,1.4-1.5,1.4s-1.5-0.6-1.5-1.3v-0.5c-0.9,1.1-2.3,1.9-4.3,1.9
				C55.3,63.6,53.1,62.2,53.1,59.5z M62.1,58.6v-0.9c-0.8-0.3-1.8-0.5-3-0.5c-1.9,0-3.1,0.8-3.1,2.2l0,0c0,1.3,1.1,2,2.6,2
				C60.6,61.4,62.1,60.2,62.1,58.6z"/>
			<path class="st1" d="M67.9,56.8L67.9,56.8c0-3.8,2.9-6.9,6.9-6.9c2.1,0,3.5,0.7,4.6,1.6c0.2,0.2,0.5,0.5,0.5,1
				c0,0.8-0.6,1.4-1.4,1.4c-0.4,0-0.7-0.2-0.9-0.3c-0.8-0.7-1.6-1.1-2.8-1.1c-2.2,0-3.8,1.9-3.8,4.2l0,0c0,2.3,1.6,4.2,3.9,4.2
				c1.2,0,2.1-0.5,2.9-1.2c0.2-0.1,0.5-0.3,0.8-0.3c0.7,0,1.3,0.6,1.3,1.3c0,0.4-0.1,0.7-0.4,1c-1.2,1.1-2.6,1.9-4.8,1.9
				C70.8,63.6,67.9,60.5,67.9,56.8z"/>
			<path class="st1" d="M83.5,59.7v-6.9H83c-0.7,0-1.3-0.6-1.3-1.3s0.6-1.3,1.3-1.3h0.5V48c0-0.8,0.7-1.5,1.5-1.5s1.5,0.7,1.5,1.5
				v2.2h2.4c0.7,0,1.3,0.6,1.3,1.3s-0.6,1.3-1.3,1.3h-2.4v6.5c0,1.2,0.6,1.6,1.6,1.6c0.3,0,0.6-0.1,0.7-0.1c0.7,0,1.3,0.5,1.3,1.2
				c0,0.5-0.4,1-0.8,1.2c-0.6,0.2-1.3,0.3-2.1,0.3C85.1,63.5,83.5,62.6,83.5,59.7z"/>
			<path class="st1" d="M100.7,51.5c0-0.8,0.6-1.5,1.5-1.5s1.5,0.7,1.5,1.5v0.7c0.8-1.2,2.1-2.3,4.1-2.3c3,0,4.7,2,4.7,5v7
				c0,0.9-0.7,1.5-1.5,1.5s-1.5-0.6-1.5-1.5v-6.1c0-2-1-3.2-2.8-3.2s-3,1.2-3,3.3V62c0,0.9-0.7,1.5-1.5,1.5s-1.5-0.6-1.5-1.5
				C100.7,62,100.7,51.5,100.7,51.5z"/>
		</g>
		<g class="st0">
			<path class="st1" d="M115.3,59.5L115.3,59.5c0-2.9,2.2-4.3,5.4-4.3c1.5,0,2.5,0.2,3.5,0.5v-0.3c0-1.9-1.1-2.9-3.3-2.9
				c-1.1,0-2.1,0.2-2.9,0.5c-0.2,0-0.3,0.1-0.5,0.1c-0.7,0-1.3-0.5-1.3-1.2c0-0.5,0.4-1,0.8-1.2c1.2-0.5,2.5-0.8,4.2-0.8
				c2,0,3.4,0.5,4.4,1.5s1.4,2.3,1.4,4.1V62c0,0.8-0.6,1.4-1.5,1.4s-1.5-0.6-1.5-1.3v-0.5c-0.9,1.1-2.3,1.9-4.3,1.9
				C117.5,63.6,115.3,62.2,115.3,59.5z M124.4,58.6v-0.9c-0.8-0.3-1.8-0.5-3-0.5c-2,0-3.1,0.8-3.1,2.2l0,0c0,1.3,1.1,2,2.6,2
				C122.8,61.4,124.4,60.2,124.4,58.6z"/>
		</g>
		<g class="st0">
			<path class="st1" d="M131.4,59.7v-6.9h-0.5c-0.7,0-1.3-0.6-1.3-1.3s0.6-1.3,1.3-1.3h0.5V48c0-0.8,0.7-1.5,1.5-1.5
				s1.5,0.7,1.5,1.5v2.2h2.4c0.7,0,1.3,0.6,1.3,1.3s-0.6,1.3-1.3,1.3h-2.4v6.5c0,1.2,0.6,1.6,1.6,1.6c0.3,0,0.6-0.1,0.7-0.1
				c0.7,0,1.3,0.5,1.3,1.2c0,0.5-0.4,1-0.8,1.2c-0.7,0.2-1.3,0.3-2.1,0.3C132.9,63.5,131.4,62.6,131.4,59.7z"/>
			<path class="st1" d="M141,46.6c0-0.9,0.7-1.5,1.7-1.5s1.7,0.6,1.7,1.5v0.2c0,0.9-0.8,1.5-1.7,1.5c-1,0-1.7-0.6-1.7-1.5V46.6z
				 M141.2,51.5c0-0.8,0.6-1.5,1.5-1.5c0.8,0,1.5,0.7,1.5,1.5v10.4c0,0.9-0.7,1.5-1.5,1.5s-1.5-0.6-1.5-1.5V51.5z"/>
		</g>
		<g class="st0">
			<path class="st1" d="M153.7,63.6h-0.2c-0.8,0-1.4-0.5-1.7-1.3l-4.4-10.1c-0.1-0.2-0.2-0.5-0.2-0.8c0-0.7,0.7-1.4,1.5-1.4
				s1.2,0.5,1.5,1.1l3.4,8.7L157,51c0.2-0.5,0.6-1,1.4-1c0.8,0,1.5,0.6,1.5,1.4c0,0.3-0.1,0.6-0.2,0.7l-4.4,10.1
				C155,63,154.5,63.6,153.7,63.6z"/>
		</g>
		<g class="st0">
			<path class="st1" d="M168.3,63.6c-3.8,0-6.8-2.8-6.8-6.8l0,0c0-3.8,2.7-6.9,6.4-6.9c4.2,0,6.3,3.4,6.3,6.5c0,0.9-0.7,1.5-1.4,1.5
				h-8.3c0.3,2.1,1.8,3.3,3.8,3.3c1.3,0,2.3-0.4,3.1-1.1c0.2-0.2,0.4-0.3,0.8-0.3c0.7,0,1.2,0.5,1.2,1.2c0,0.4-0.2,0.7-0.4,0.9
				C171.9,62.9,170.4,63.6,168.3,63.6z M171.3,55.8c-0.2-1.9-1.3-3.5-3.3-3.5c-1.8,0-3.1,1.4-3.4,3.5H171.3z"/>
		</g>
		<g id="Page-1">
			<g id="Desktop-HD">
				<g id="Top">
					<g id="electrode-logo">
						<g id="Group-3">
							<path id="Fill-1" class="st1" d="M134.6,8.9c-0.2,0-0.3-0.1-0.4-0.2l-1.1-1.9l-0.9,1.8c-0.1,0.2-0.4,0.3-0.6,0.2
								c-0.1-0.1-0.2-0.2-0.2-0.3l-0.8-4.6l-0.9,2.7c-0.1,0.2-0.2,0.3-0.4,0.3h-2.2c-0.2,0-0.4-0.2-0.4-0.4c0-0.2,0.2-0.4,0.4-0.4
								h1.9l1.3-4.1c0.1-0.2,0.3-0.3,0.5-0.3c0.1,0,0.3,0.2,0.3,0.3l0.9,5.1l0.7-1.3c0.1-0.2,0.4-0.3,0.6-0.2c0.1,0,0.1,0.1,0.2,0.2
								l1,1.6l1.6-7c0.1-0.2,0.3-0.4,0.5-0.3c0.2,0,0.3,0.2,0.3,0.3l1,5.7l3.4,0.2c0.2,0,0.4,0.2,0.4,0.4c0,0.2-0.2,0.4-0.4,0.4l0,0
								l-3.7-0.2c-0.2,0-0.4-0.2-0.4-0.3l-0.8-4l-1.4,6C135,8.7,134.8,8.9,134.6,8.9L134.6,8.9"/>
						</g>
						<g id="Group-6">
							<g>
								<path id="Fill-4" class="st1" d="M134.3,31.9c-4.9,0-8.8-3.9-8.8-8.8s3.9-8.8,8.8-8.8s8.8,3.9,8.8,8.8
									S139.2,31.9,134.3,31.9L134.3,31.9 M145.1,18.5h-0.3l-0.1-0.3c-0.6-1.3-1.5-2.4-2.5-3.4l-0.4-0.3l3.4-5.8h0.3
									c1-0.2,1.6-1.1,1.5-2s-1.1-1.6-2-1.5s-1.6,1.1-1.5,2c0,0.2,0.1,0.4,0.2,0.6l0.2,0.3l-3.3,5.4l-0.5-0.3
									c-1.7-0.9-3.6-1.5-5.6-1.5l0,0c-1.9,0-3.9,0.5-5.6,1.5l-0.5,0.3L124.9,8l0.1-0.3c0.1-0.2,0.2-0.5,0.2-0.8
									c0-1-0.8-1.8-1.8-1.8s-1.8,0.8-1.8,1.8c0,0.9,0.7,1.6,1.5,1.7h0.3l3.4,5.8l-0.4,0.3c-1,0.9-1.9,2.1-2.5,3.3l-0.2,0.3h-0.3
									c-2.4,0.2-4.2,2.4-4,4.8c0.2,2,1.7,3.7,3.8,4h0.3l0.1,0.3c1.8,4.2,5.9,7,10.5,7l0,0c4.6,0,8.7-2.8,10.5-7l0.1-0.3h0.3
									c2.4-0.4,4.1-2.6,3.7-5C148.7,20.2,147.1,18.6,145.1,18.5"/>
							</g>
						</g>
						<path id="Fill-7" class="st1" d="M138.9,21.1c0,0.7-0.6,1.3-1.3,1.3s-1.3-0.6-1.3-1.3c0-0.7,0.6-1.3,1.3-1.3
							S138.9,20.4,138.9,21.1L138.9,21.1"/>
						<path id="Fill-9" class="st1" d="M132.2,21.1c0,0.7-0.6,1.3-1.3,1.3s-1.3-0.6-1.3-1.3s0.6-1.3,1.3-1.3l0,0
							C131.7,19.8,132.3,20.4,132.2,21.1C132.3,21.1,132.3,21.1,132.2,21.1"/>
						<g id="Group-13">
							<g>
								<path id="Fill-11" class="st1" d="M17.4,21c-0.3-4-2.6-7.5-7-7.5c-3.8,0-6.7,3.2-7.1,7.5H17.4z M10.9,33.7
									C4.9,33.7,0,29.1,0,22.3v-0.1c0-6.3,4.4-11.4,10.5-11.4c6.5,0,10.2,5.3,10.2,11.1c0,0.8-0.7,1.5-1.5,1.5l0,0H3.3
									c0.5,4.8,3.8,7.4,7.7,7.4c2.4,0,4.6-0.9,6.3-2.5c0.6-0.5,1.5-0.5,2,0.1c0.2,0.3,0.4,0.6,0.4,0.9c0,0.4-0.2,0.8-0.5,1.1
									C17,32.6,14,33.8,10.9,33.7L10.9,33.7z"/>
							</g>
						</g>
						<path id="Fill-14" class="st1" d="M26.8,3.7c0-0.9,0.7-1.6,1.6-1.6S30,2.8,30,3.7v28.1c0,0.9-0.7,1.6-1.5,1.6h-0.1
							c-0.9,0-1.6-0.7-1.6-1.6l0,0V3.7z"/>
						<path id="Fill-16" class="st1" d="M53.7,21c-0.3-4-2.6-7.5-7-7.5c-3.8,0-6.7,3.2-7.1,7.5H53.7z M47.2,33.7
							c-6,0-11-4.6-11-11.4v-0.1c0-6.3,4.5-11.4,10.5-11.4c6.5,0,10.2,5.3,10.2,11.1c0,0.8-0.7,1.5-1.5,1.5l0,0H39.6
							c0.5,4.8,3.8,7.4,7.7,7.4c2.4,0,4.6-0.9,6.3-2.5c0.6-0.5,1.5-0.5,2,0.1c0.2,0.3,0.4,0.6,0.4,0.9c0,0.4-0.2,0.8-0.5,1.1
							C53.3,32.6,50.3,33.8,47.2,33.7L47.2,33.7z"/>
						<path id="Fill-18" class="st1" d="M61.4,22.4L61.4,22.4c0-6.4,5.1-11.5,11.3-11.5c3,0,5.8,1.1,8,3.2c0.3,0.3,0.5,0.7,0.5,1.1
							c0,0.9-0.7,1.6-1.6,1.6l0,0c-0.4,0-0.8-0.1-1.1-0.4c-1.6-1.6-3.7-2.6-6-2.6c-4.4,0-7.8,3.8-7.8,8.5v0.1
							c-0.2,4.5,3.3,8.3,7.9,8.5c0.1,0,0.1,0,0.2,0c2.3-0.1,4.5-1,6.1-2.7c0.2-0.3,0.6-0.4,0.9-0.4c0.8,0,1.5,0.7,1.5,1.5
							c0,0.4-0.2,0.7-0.4,1c-2.1,2.3-5.1,3.6-8.3,3.5C66.4,33.7,61.4,28.6,61.4,22.4L61.4,22.4"/>
						<path id="Fill-20" class="st1" d="M88.1,27.4V14.2h-1.8c-0.8,0-1.4-0.7-1.4-1.4c0-0.8,0.6-1.4,1.4-1.4h1.8V6.1
							c0-0.9,0.7-1.6,1.6-1.6l0,0c0.9,0,1.6,0.7,1.7,1.7v5.2h5.7c0.8,0,1.5,0.6,1.5,1.4c0,0.8-0.7,1.4-1.5,1.4h-5.7V27
							c0,2.7,1.5,3.6,3.7,3.6c0.7,0,1.3-0.1,2-0.3c0.8,0,1.4,0.6,1.4,1.4c0,0.6-0.4,1.1-0.9,1.2c-1,0.4-2.1,0.6-3.2,0.6
							C90.8,33.6,88.1,31.9,88.1,27.4"/>
						<path id="Fill-22" class="st1" d="M104.1,12.7c0-0.9,0.7-1.6,1.6-1.6s1.6,0.7,1.7,1.6l0,0v4.1c1.6-3.6,4.8-5.8,7.6-5.8
							c0.9,0,1.6,0.7,1.6,1.5v0.1c0,0.8-0.6,1.6-1.4,1.6c-4.2,0.5-7.7,3.7-7.7,10v7.5c0,0.9-0.7,1.6-1.6,1.6s-1.6-0.7-1.6-1.6v-19
							H104.1z"/>
						<path id="Fill-24" class="st1" d="M156.8,22.2L156.8,22.2c0,5.2,3.6,8.6,7.7,8.6c4.5-0.1,8.1-3.9,7.9-8.4l0,0v-0.1
							c0.2-4.5-3.4-8.3-7.9-8.4h-0.1C160.3,13.7,156.8,16.9,156.8,22.2z M175.6,31.8c0,0.9-0.7,1.6-1.6,1.6c-0.9,0-1.6-0.7-1.6-1.6
							v-3c-1.8,2.6-4.4,4.9-8.4,4.9c-5.3,0-10.5-4.2-10.5-11.4v-0.1c0-7.2,5.2-11.4,10.5-11.4c3.4,0,6.6,1.8,8.4,4.7V3.7
							c-0.1-0.9,0.6-1.6,1.5-1.7c0.1,0,0.1,0,0.2,0c0.9,0,1.6,0.7,1.6,1.6l0,0L175.6,31.8z"/>
						<path id="Fill-26" class="st1" d="M199,21c-0.3-4-2.6-7.5-7-7.5c-3.8,0-6.7,3.2-7.1,7.5H199z M192.5,33.7
							c-6,0-10.9-4.6-10.9-11.4v-0.1c0-6.3,4.4-11.4,10.5-11.4c6.5,0,10.2,5.3,10.2,11.1c0,0.8-0.7,1.5-1.5,1.5l0,0h-15.9
							c0.5,4.8,3.8,7.4,7.7,7.4c2.4,0,4.6-0.9,6.3-2.5c0.6-0.5,1.5-0.5,2,0.1c0.2,0.3,0.4,0.6,0.4,0.9c0,0.4-0.2,0.8-0.5,1.1
							C198.6,32.6,195.6,33.8,192.5,33.7L192.5,33.7z"/>
					</g>
				</g>
			</g>
		</g>
	</g>
</g>
</svg>
