<?xml version="1.0" encoding="utf-8"?>
<!-- Generator: Adobe Illustrator 21.0.2, SVG Export Plug-In . SVG Version: 6.00 Build 0)  -->
<svg version="1.1" id="Layer_1" xmlns="http://www.w3.org/2000/svg" xmlns:xlink="http://www.w3.org/1999/xlink" x="0px" y="0px"
	 viewBox="0 0 199.2 130" style="enable-background:new 0 0 199.2 130;" xml:space="preserve">
<style type="text/css">
	.st0{fill:#FFFFFF;}
	.st1{fill:#FFFFFF;stroke:#FFFFFF;stroke-miterlimit:10;}
</style>
<title>Asset 28</title>
<g id="Layer_2">
	<g id="Layer_2-2">
		<g id="Group-3">
			<path id="Fill-1" class="st0" d="M101.8,24.4c-0.4,0-0.8-0.2-1-0.6l-3.1-5.2l-2.6,4.8c-0.3,0.6-1,0.8-1.6,0.5
				c-0.3-0.2-0.5-0.5-0.6-0.8l-2.3-12.7L88.3,18c-0.2,0.5-0.6,0.8-1.1,0.8h-6c-0.6-0.1-1.1-0.6-1.1-1.3c0.1-0.6,0.5-1,1.1-1.1h5.1
				l3.6-11.2c0.2-0.6,0.9-1,1.5-0.8c0.4,0.1,0.7,0.5,0.8,0.9l2.5,14l2-3.7c0.3-0.6,1-0.8,1.6-0.4c0.2,0.1,0.3,0.3,0.4,0.4l2.6,4.4
				l4.5-19.3c0.2-0.6,0.8-1,1.4-0.9c0.4,0.1,0.8,0.5,0.9,0.9l2.9,15.5l9.3,0.4c0.6,0.1,1.1,0.7,1,1.3c-0.1,0.6-0.5,1-1.1,1
				l-10.2-0.5c-0.6,0-1-0.4-1.1-1l-2.1-11L103,23.5c-0.1,0.5-0.5,0.8-1,0.9L101.8,24.4"/>
		</g>
		<g id="Group-6">
			<g>
				<path id="Fill-4" class="st0" d="M130.5,50.6l-0.9-0.1l-0.4-0.8c-1.7-3.5-4-6.6-6.9-9.3l-1-0.9l9.3-15.8l0.8-0.1
					c2.6-0.4,4.4-2.9,4-5.6c-0.4-2.6-2.9-4.4-5.6-4c-2.6,0.4-4.4,2.9-4,5.6c0.1,0.5,0.3,1,0.5,1.5l0.5,0.9l-9.2,14.8l-1.4-0.8
					c-4.7-2.6-9.9-4-15.2-4h-0.1c-5.3,0-10.6,1.4-15.2,4l-1.4,0.8l-9.3-15l0.4-0.8c0.3-0.7,0.5-1.4,0.5-2.1c0-2.7-2.2-4.9-4.9-4.9
					c-2.7,0-4.9,2.2-4.9,4.9c0,2.5,1.9,4.6,4.4,4.8l0.8,0.1l9.3,15.8l-1,0.9c-2.8,2.6-5.2,5.8-6.9,9.3l-0.4,0.8l-0.9,0.1
					c-6.3,0.6-11,6.3-11,12.7l16.4,0.1c0-13.3,10.8-24.1,24.2-24.1c13.3,0,24.1,10.8,24.1,24.1l16.5-0.1
					C141.6,56.9,136.9,51.2,130.5,50.6"/>
			</g>
		</g>
		<path id="Fill-7" class="st0" d="M113.5,57.8c0,1.9-1.6,3.5-3.5,3.5s-3.5-1.6-3.5-3.5c0-1.9,1.5-3.5,3.4-3.5
			C111.9,54.3,113.5,55.9,113.5,57.8C113.5,57.8,113.5,57.8,113.5,57.8"/>
		<path id="Fill-9" class="st0" d="M95.3,57.8c0,1.9-1.6,3.5-3.5,3.5s-3.5-1.6-3.5-3.5c0-1.9,1.6-3.5,3.5-3.5
			C93.7,54.3,95.3,55.9,95.3,57.8C95.3,57.8,95.3,57.8,95.3,57.8"/>
		<path class="st1" d="M10.8,96.3c-5.5,0-10.2-4.4-10.2-10.9v-0.1c0-6.1,4.3-10.9,9.9-10.9c5.9,0,9.6,4.8,9.6,10.8
			c0,0.5-0.5,0.9-1,0.9H2.6c0.4,5.2,4.1,8.2,8.2,8.2c2.6,0,5-1,6.8-2.9c0.2-0.2,0.4-0.3,0.7-0.3c0.5,0,1,0.4,1,0.9
			c0,0.3-0.1,0.5-0.3,0.7C16.8,95.2,13.8,96.4,10.8,96.3z M17.8,84.4c-0.3-4.2-2.7-8.1-7.5-8.1c-4.1,0-7.3,3.5-7.7,8.1H17.8z"/>
		<path class="st1" d="M28,66.8c0-0.6,0.4-1,1-1s1,0.4,1,1V95c0,0.6-0.4,1-1,1s-1-0.4-1-1V66.8z"/>
		<path class="st1" d="M47.6,96.3c-5.5,0-10.2-4.4-10.2-10.9v-0.1c0-6.1,4.3-10.9,9.9-10.9c5.9,0,9.6,4.8,9.6,10.8
			c0,0.5-0.5,0.9-1,0.9H39.5c0.4,5.2,4.1,8.2,8.2,8.2c2.6,0,5-1,6.8-2.9c0.2-0.2,0.4-0.3,0.7-0.3c0.5,0,1,0.4,1,0.9
			c0,0.3-0.1,0.5-0.3,0.7C53.6,95.2,50.7,96.4,47.6,96.3z M54.7,84.4c-0.3-4.2-2.7-8.1-7.5-8.1c-4.1,0-7.3,3.5-7.7,8.1H54.7z"/>
		<path class="st1" d="M63.1,85.4L63.1,85.4c0-6,4.7-10.9,10.7-11c3,0,5.8,1.2,7.9,3.3c0.2,0.2,0.3,0.5,0.3,0.7c0,0.6-0.4,1-1,1
			c-0.3,0-0.5-0.1-0.7-0.2c-1.7-1.8-4-2.9-6.5-3c-4.8,0-8.4,4-8.4,9v0.1c-0.2,4.9,3.7,8.9,8.5,9.1c0,0,0.1,0,0.1,0
			c2.5-0.1,4.9-1.2,6.6-3c0.2-0.2,0.4-0.3,0.7-0.3c0.5,0,1,0.5,1,1c0,0.2-0.1,0.5-0.2,0.6c-3.9,4.4-10.7,4.8-15.1,0.9
			C64.4,91.5,63.1,88.5,63.1,85.4L63.1,85.4z"/>
		<path class="st1" d="M90.9,90.5V76.8h-2.3c-0.5,0-0.9-0.4-0.9-0.9c0-0.5,0.4-0.9,0.9-0.9h2.2v-5.8c0-0.6,0.4-1,1-1s1,0.4,1,1v5.8
			h6.6c0.5,0,0.9,0.4,0.9,0.9c0,0.5-0.4,0.9-0.9,0.9h-6.5v13.5c0,3,1.8,4.1,4.2,4.1c0.8,0,1.6-0.2,2.4-0.4c0.5,0,0.9,0.4,0.9,0.9
			c0,0.4-0.3,0.7-0.7,0.9c-1,0.4-2,0.5-3,0.5C93.5,96.2,90.9,94.4,90.9,90.5z"/>
		<path class="st1" d="M108.4,75.8c0-0.6,0.4-1,1-1s1,0.4,1,1v5.1c1.8-4.1,5.4-6.3,8.4-6.3c0.6,0,1.1,0.5,1.1,1.1c0,0,0,0,0,0
			c0,0.6-0.5,1.1-1.1,1.1c0,0,0,0,0,0c-4.4,0.4-8.4,3.7-8.4,10.5V95c0,0.6-0.4,1-1,1s-1-0.4-1-1V75.8z"/>
		<path class="st1" d="M124.2,85.4L124.2,85.4c-0.1-6,4.7-10.9,10.7-11c0,0,0.1,0,0.1,0c5.9,0,10.7,4.8,10.7,10.7c0,0.1,0,0.1,0,0.2
			v0.1c0.1,6-4.7,10.9-10.6,10.9c0,0-0.1,0-0.1,0c-5.9,0-10.7-4.8-10.7-10.7C124.2,85.6,124.2,85.5,124.2,85.4z M143.6,85.4
			L143.6,85.4c0.2-4.9-3.6-9-8.5-9.1c0,0-0.1,0-0.1,0c-5,0-8.5,4.1-8.5,9v0.1c-0.2,4.8,3.7,8.9,8.5,9c0,0,0.1,0,0.1,0
			C140,94.4,143.6,90.4,143.6,85.4z"/>
		<path class="st1" d="M172.2,95c0,0.6-0.4,1-1,1s-1-0.4-1-1v-3.8c-1.8,2.8-4.5,5.2-8.6,5.2c-5,0-10.2-4.1-10.2-10.9v-0.1
			c0-6.8,5.1-10.9,10.2-10.9c3.6,0,6.8,1.9,8.6,5V66.8c0-0.6,0.4-1,1-1s1,0.4,1,1V95z M153.6,85.3L153.6,85.3c0,5.6,3.8,9.1,8.2,9.1
			c4.8-0.1,8.7-4.1,8.5-9c0,0,0,0,0,0v-0.1c0.2-4.8-3.6-8.8-8.5-9c0,0-0.1,0-0.1,0C157.2,76.3,153.6,79.7,153.6,85.3L153.6,85.3z"/>
		<path class="st1" d="M189.4,96.3c-5.5,0-10.2-4.4-10.2-10.9v-0.1c0-6.1,4.3-10.9,9.9-10.9c5.9,0,9.6,4.8,9.6,10.8
			c0,0.5-0.5,0.9-1,0.9h-16.4c0.4,5.2,4.1,8.2,8.2,8.2c2.6,0,5-1,6.8-2.9c0.2-0.2,0.4-0.3,0.7-0.3c0.5,0,1,0.4,1,0.9
			c0,0.3-0.1,0.5-0.3,0.7C195.5,95.2,192.5,96.4,189.4,96.3z M196.5,84.4c-0.3-4.2-2.7-8.1-7.5-8.1c-4.1,0-7.3,3.5-7.7,8.1H196.5z"
			/>
		<path class="st0" d="M5.6,128.4l-4-11.3c-0.1-0.3-0.2-0.6-0.2-0.9c0-0.9,0.7-1.6,1.6-1.6c0,0,0,0,0.1,0c0.8,0,1.5,0.6,1.7,1.4
			l2.9,9l2.9-9c0.2-0.8,0.9-1.3,1.7-1.3h0.2c0.8,0,1.5,0.6,1.7,1.3l2.9,9l2.9-9c0.2-0.8,0.9-1.3,1.7-1.3c0.9,0,1.6,0.7,1.6,1.6
			c0,0,0,0,0,0c0,0.3-0.1,0.5-0.1,0.8l-4,11.4c-0.2,0.9-1,1.5-1.9,1.5h-0.1c-0.9,0-1.7-0.6-1.9-1.5l-2.9-8.8l-2.9,8.8
			c-0.2,0.9-1,1.5-1.8,1.5H7.5C6.5,129.9,5.7,129.3,5.6,128.4z"/>
		<path class="st0" d="M36.9,130c-4.1,0.1-7.5-3.1-7.6-7.2c0-0.2,0-0.3,0-0.5v-0.1c0-4.2,3-7.7,7.3-7.7c4.7,0,7.1,3.9,7.1,7.3
			c0,0.9-0.7,1.6-1.6,1.6h-9.3c0.2,2.2,2.1,3.8,4.3,3.8c1.3,0,2.5-0.5,3.5-1.3c0.2-0.2,0.6-0.3,0.9-0.3c0.7,0,1.3,0.6,1.4,1.3
			c0,0,0,0,0,0.1c0,0.4-0.2,0.7-0.5,1C40.8,129.3,38.9,130,36.9,130z M40.3,121.2c-0.2-2.2-1.5-3.9-3.8-3.9c-2.1,0-3.5,1.6-3.8,3.9
			H40.3z"/>
		<path class="st0" d="M51.1,110.6c0-0.9,0.7-1.7,1.6-1.7c0,0,0,0,0.1,0c0.9,0,1.7,0.7,1.7,1.6c0,0,0,0,0,0v6.6
			c1.1-1.7,3-2.8,5.1-2.8c3.5,0,6.9,2.8,6.9,7.7v0.1c0,4.9-3.4,7.7-6.9,7.7c-2,0-3.9-1-5.1-2.6v0.8c0,0.9-0.8,1.7-1.7,1.7
			s-1.7-0.8-1.7-1.7L51.1,110.6z M63,122.2L63,122.2c0-2.9-1.9-4.8-4.2-4.8c-2.5,0.1-4.4,2.1-4.3,4.6c0,0,0,0.1,0,0.1v0.1
			c-0.2,2.5,1.7,4.6,4.2,4.8c0.1,0,0.1,0,0.2,0C61.1,127,63,125.2,63,122.2z"/>
		<path class="st0" d="M79.3,121.3h-4c-0.9,0-1.5-0.7-1.6-1.5c0,0,0,0,0,0c0-0.9,0.7-1.5,1.6-1.6h4v-3.9c0-0.9,0.7-1.6,1.6-1.6
			c0,0,0,0,0,0c0.9,0,1.6,0.7,1.6,1.6v3.9h4c0.8,0,1.5,0.7,1.5,1.6c0,0.9-0.7,1.5-1.5,1.6c0,0,0,0,0,0h-4v3.9c0,0.9-0.7,1.6-1.6,1.6
			c-0.9,0-1.6-0.7-1.6-1.6c0,0,0,0,0,0L79.3,121.3z"/>
		<path class="st0" d="M96,116.3c0-0.9,0.7-1.7,1.6-1.7c0,0,0,0,0.1,0c0.9,0,1.7,0.8,1.7,1.7c0,0,0,0,0,0v0.7c1-1.6,2.7-2.6,4.6-2.6
			c3.3,0,5.3,2.2,5.3,5.7v7.9c0,0.9-0.7,1.7-1.6,1.7c0,0,0,0-0.1,0c-0.9,0-1.7-0.7-1.7-1.6c0,0,0,0,0-0.1v-6.9
			c0-2.3-1.2-3.6-3.2-3.6s-3.3,1.4-3.3,3.7v6.8c0,0.9-0.8,1.7-1.7,1.7c-0.9,0-1.7-0.8-1.7-1.7L96,116.3z"/>
		<path class="st0" d="M116.5,125.3L116.5,125.3c0-3.3,2.5-4.8,6.1-4.8c1.4,0,2.7,0.2,4,0.6v-0.4c0-2.1-1.3-3.2-3.7-3.2
			c-1.1,0-2.2,0.2-3.3,0.6c-0.2,0.1-0.4,0.1-0.5,0.1c-0.8,0-1.4-0.6-1.4-1.4c0,0,0,0,0,0c0-0.6,0.4-1.1,0.9-1.3
			c1.5-0.6,3.1-0.9,4.8-0.9c1.8-0.1,3.6,0.5,4.9,1.7c1.1,1.2,1.7,2.9,1.6,4.6v7.3c0,0.9-0.7,1.6-1.6,1.6c0,0,0,0-0.1,0
			c-0.8,0.1-1.6-0.6-1.7-1.4c0,0,0,0,0,0v-0.6c-1.2,1.4-3,2.2-4.8,2.2C119,129.9,116.5,128.3,116.5,125.3z M126.7,124.3v-1
			c-1.1-0.4-2.2-0.6-3.4-0.6c-2.2,0-3.5,0.9-3.5,2.5v0.1c0,1.4,1.3,2.2,2.9,2.2C125,127.4,126.7,126.2,126.7,124.3L126.7,124.3z"/>
		<path class="st0" d="M138.6,125.5v-7.8h-0.6c-0.8,0-1.5-0.7-1.5-1.5c0-0.8,0.7-1.5,1.5-1.5c0,0,0,0,0,0h0.6v-2.5
			c0-0.9,0.8-1.7,1.7-1.7c0.9,0,1.7,0.8,1.7,1.7v2.5h2.7c0.8,0,1.5,0.7,1.5,1.5c0,0.8-0.7,1.5-1.5,1.5c0,0,0,0,0,0H142v7.3
			c-0.1,0.9,0.5,1.7,1.3,1.9c0.2,0,0.3,0,0.5,0c0.3,0,0.6,0,0.8-0.1c0.8,0,1.4,0.6,1.4,1.4c0,0.6-0.4,1.1-0.9,1.3
			c-0.7,0.3-1.5,0.4-2.3,0.4C140.4,129.9,138.6,128.8,138.6,125.5z"/>
		<path class="st0" d="M153.5,110.8c0.3-1.1,1.4-1.7,2.4-1.5c0.7,0.2,1.3,0.7,1.5,1.5v0.2c-0.3,1.1-1.4,1.7-2.4,1.5
			c-0.7-0.2-1.3-0.7-1.5-1.5V110.8z M153.8,116.3c0-0.9,0.7-1.7,1.6-1.7c0,0,0,0,0.1,0c0.9,0,1.7,0.8,1.7,1.7c0,0,0,0,0,0v11.8
			c0,0.9-0.8,1.7-1.7,1.7c-0.9,0-1.7-0.8-1.7-1.7L153.8,116.3z"/>
		<path class="st0" d="M171.9,129.9h-0.2c-0.9,0-1.7-0.6-1.9-1.5l-4.9-11.3c-0.1-0.3-0.2-0.6-0.2-0.8c0-0.9,0.9-1.7,1.8-1.6
			c0.7,0,1.4,0.5,1.6,1.2l3.8,9.8l3.9-9.9c0.2-0.7,0.9-1.2,1.6-1.2c0.9,0,1.6,0.7,1.7,1.6c0,0,0,0,0,0.1c0,0.3-0.1,0.6-0.2,0.8
			l-4.9,11.4C173.5,129.3,172.8,129.9,171.9,129.9z"/>
		<path class="st0" d="M192.4,130c-4.1,0.1-7.5-3.1-7.6-7.2c0-0.2,0-0.3,0-0.5v-0.1c0-4.2,3-7.7,7.2-7.7c4.7,0,7.1,3.9,7.1,7.3
			c0,0.9-0.7,1.6-1.5,1.6c0,0,0,0-0.1,0h-9.3c0.2,2.2,2.1,3.8,4.3,3.8c1.3,0,2.5-0.4,3.5-1.3c0.2-0.2,0.6-0.3,0.9-0.3
			c0.7,0,1.3,0.6,1.4,1.3c0,0,0,0,0,0.1c0,0.4-0.2,0.7-0.4,1C196.3,129.3,194.4,130,192.4,130z M195.8,121.2
			c-0.2-2.2-1.5-3.9-3.8-3.9c-2.1,0-3.5,1.6-3.9,3.9H195.8z"/>
	</g>
</g>
</svg>
