<?xml version="1.0" encoding="utf-8"?>
<!-- Generator: Adobe Illustrator 21.0.2, SVG Export Plug-In . SVG Version: 6.00 Build 0)  -->
<svg version="1.1" id="Layer_1" xmlns="http://www.w3.org/2000/svg" xmlns:xlink="http://www.w3.org/1999/xlink" x="0px" y="0px"
	 viewBox="0 0 202.3 65.1" style="enable-background:new 0 0 202.3 65.1;" xml:space="preserve">
<style type="text/css">
	.st0{fill:#FFFFFF;}
</style>
<title>Asset 29</title>
<g id="Layer_2">
	<g id="Layer_2-2">
		<g id="Page-1">
			<g id="Desktop-HD">
				<g id="Top">
					<g id="electrode-logo">
						<g id="Group-3">
							<path id="Fill-1" class="st0" d="M134.6,8.9c-0.2,0-0.3-0.1-0.4-0.2l-1.1-1.9l-0.9,1.8c-0.1,0.2-0.4,0.3-0.6,0.2
								c-0.1-0.1-0.2-0.2-0.2-0.3l-0.8-4.6l-0.9,2.7c-0.1,0.2-0.2,0.3-0.4,0.3h-2.2c-0.2,0-0.4-0.2-0.4-0.4c0-0.2,0.2-0.4,0.4-0.4
								h1.9l1.3-4.1c0.1-0.2,0.3-0.3,0.5-0.3c0.1,0,0.3,0.2,0.3,0.3l0.9,5.1l0.7-1.3c0.1-0.2,0.4-0.3,0.6-0.2c0.1,0,0.1,0.1,0.2,0.2
								l1,1.6l1.6-7c0.1-0.2,0.3-0.4,0.5-0.3c0.2,0,0.3,0.2,0.3,0.3l1,5.7l3.4,0.2c0.2,0,0.4,0.2,0.4,0.4c0,0.2-0.2,0.4-0.4,0.4l0,0
								l-3.7-0.2c-0.2,0-0.4-0.2-0.4-0.3l-0.8-4L135,8.6C135,8.7,134.8,8.9,134.6,8.9L134.6,8.9"/>
						</g>
						<g id="Group-6">
							<g>
								<path id="Fill-4" class="st0" d="M134.3,31.9c-4.9,0-8.8-3.9-8.8-8.8s3.9-8.8,8.8-8.8s8.8,3.9,8.8,8.8
									S139.2,31.9,134.3,31.9L134.3,31.9 M145.1,18.5h-0.3l-0.1-0.3c-0.6-1.3-1.5-2.4-2.5-3.4l-0.4-0.3l3.4-5.8h0.3
									c1-0.2,1.6-1.1,1.5-2s-1.1-1.6-2-1.5s-1.6,1.1-1.5,2c0,0.2,0.1,0.4,0.2,0.6l0.2,0.3l-3.3,5.4l-0.5-0.3
									c-1.7-0.9-3.6-1.5-5.6-1.5l0,0c-1.9,0-3.9,0.5-5.6,1.5l-0.5,0.3L124.9,8l0.1-0.3c0.1-0.2,0.2-0.5,0.2-0.8
									c0-1-0.8-1.8-1.8-1.8s-1.8,0.8-1.8,1.8c0,0.9,0.7,1.6,1.5,1.7h0.3l3.4,5.8l-0.4,0.3c-1,0.9-1.9,2.1-2.5,3.3l-0.2,0.3h-0.3
									c-2.4,0.2-4.2,2.4-4,4.8c0.2,2,1.7,3.7,3.8,4h0.3l0.1,0.3c1.8,4.2,5.9,7,10.5,7l0,0c4.6,0,8.7-2.8,10.5-7l0.1-0.3h0.3
									c2.4-0.4,4.1-2.6,3.7-5C148.7,20.2,147.1,18.6,145.1,18.5"/>
							</g>
						</g>
						<path id="Fill-7" class="st0" d="M138.9,21.1c0,0.7-0.6,1.3-1.3,1.3c-0.7,0-1.3-0.6-1.3-1.3c0-0.7,0.6-1.3,1.3-1.3
							S138.9,20.4,138.9,21.1C138.9,21.1,138.9,21.1,138.9,21.1"/>
						<path id="Fill-9" class="st0" d="M132.2,21.1c0,0.7-0.6,1.3-1.3,1.3c-0.7,0-1.3-0.6-1.3-1.3s0.6-1.3,1.3-1.3c0,0,0,0,0,0
							C131.7,19.8,132.3,20.4,132.2,21.1C132.3,21.1,132.3,21.1,132.2,21.1"/>
						<g id="Group-13">
							<g>
								<path id="Fill-11" class="st0" d="M17.4,21c-0.3-4-2.6-7.5-7-7.5c-3.8,0-6.7,3.2-7.1,7.5H17.4z M10.9,33.7
									C4.9,33.7,0,29.1,0,22.3v-0.1c0-6.3,4.4-11.4,10.5-11.4c6.5,0,10.2,5.3,10.2,11.1c0,0.8-0.7,1.5-1.5,1.5c0,0,0,0,0,0H3.3
									c0.5,4.8,3.8,7.4,7.7,7.4c2.4,0,4.6-0.9,6.3-2.5c0.6-0.5,1.5-0.5,2,0.1c0.2,0.3,0.4,0.6,0.4,0.9c0,0.4-0.2,0.8-0.5,1.1
									C17,32.6,14,33.8,10.9,33.7L10.9,33.7z"/>
							</g>
						</g>
						<path id="Fill-14" class="st0" d="M26.8,3.7c0-0.9,0.7-1.6,1.6-1.6S30,2.8,30,3.7v28.1c0,0.9-0.7,1.6-1.5,1.6c0,0-0.1,0-0.1,0
							c-0.9,0-1.6-0.7-1.6-1.6c0,0,0,0,0,0L26.8,3.7z"/>
						<path id="Fill-16" class="st0" d="M53.7,21c-0.3-4-2.6-7.5-7-7.5c-3.8,0-6.7,3.2-7.1,7.5H53.7z M47.2,33.7
							c-6,0-11-4.6-11-11.4v-0.1c0-6.3,4.5-11.4,10.5-11.4c6.5,0,10.2,5.3,10.2,11.1c0,0.8-0.7,1.5-1.5,1.5c0,0,0,0,0,0H39.6
							c0.5,4.8,3.8,7.4,7.7,7.4c2.4,0,4.6-0.9,6.3-2.5c0.6-0.5,1.5-0.5,2,0.1c0.2,0.3,0.4,0.6,0.4,0.9c0,0.4-0.2,0.8-0.5,1.1
							C53.3,32.6,50.3,33.8,47.2,33.7L47.2,33.7z"/>
						<path id="Fill-18" class="st0" d="M61.4,22.4L61.4,22.4c0-6.4,5.1-11.5,11.3-11.5c3,0,5.8,1.1,8,3.2c0.3,0.3,0.5,0.7,0.5,1.1
							c0,0.9-0.7,1.6-1.6,1.6l0,0c-0.4,0-0.8-0.1-1.1-0.4c-1.6-1.6-3.7-2.6-6-2.6c-4.4,0-7.8,3.8-7.8,8.5v0.1
							c-0.2,4.5,3.3,8.3,7.9,8.5c0.1,0,0.1,0,0.2,0c2.3-0.1,4.5-1,6.1-2.7c0.2-0.3,0.6-0.4,0.9-0.4c0.8,0,1.5,0.7,1.5,1.5
							c0,0.4-0.2,0.7-0.4,1c-2.1,2.3-5.1,3.6-8.3,3.5C66.4,33.7,61.4,28.6,61.4,22.4C61.4,22.4,61.4,22.4,61.4,22.4"/>
						<path id="Fill-20" class="st0" d="M88.1,27.4V14.2h-1.8c-0.8,0-1.4-0.7-1.4-1.4c0-0.8,0.6-1.4,1.4-1.4h1.8V6.1
							c0-0.9,0.7-1.6,1.6-1.6c0,0,0,0,0,0c0.9,0,1.6,0.7,1.7,1.7v5.2h5.7c0.8,0,1.5,0.6,1.5,1.4c0,0.8-0.7,1.4-1.5,1.4h-5.7V27
							c0,2.7,1.5,3.6,3.7,3.6c0.7,0,1.3-0.1,2-0.3c0.8,0,1.4,0.6,1.4,1.4c0,0.6-0.4,1.1-0.9,1.2c-1,0.4-2.1,0.6-3.2,0.6
							C90.8,33.6,88.1,31.9,88.1,27.4"/>
						<path id="Fill-22" class="st0" d="M104.1,12.7c0-0.9,0.7-1.6,1.6-1.6c0.9,0,1.6,0.7,1.7,1.6c0,0,0,0,0,0v4.1
							c1.6-3.6,4.8-5.8,7.6-5.8c0.9,0,1.6,0.7,1.6,1.5c0,0,0,0.1,0,0.1c0,0.8-0.6,1.6-1.4,1.6c-4.2,0.5-7.7,3.7-7.7,10v7.5
							c0,0.9-0.7,1.6-1.6,1.6c-0.9,0-1.6-0.7-1.6-1.6V12.7z"/>
						<path id="Fill-24" class="st0" d="M156.8,22.2L156.8,22.2c0,5.2,3.6,8.6,7.7,8.6c4.5-0.1,8.1-3.9,7.9-8.4c0,0,0,0,0,0v-0.1
							c0.2-4.5-3.4-8.3-7.9-8.4c0,0-0.1,0-0.1,0C160.3,13.7,156.8,16.9,156.8,22.2z M175.6,31.8c0,0.9-0.7,1.6-1.6,1.6
							c-0.9,0-1.6-0.7-1.6-1.6v-3c-1.8,2.6-4.4,4.9-8.4,4.9c-5.3,0-10.5-4.2-10.5-11.4v-0.1c0-7.2,5.2-11.4,10.5-11.4
							c3.4,0,6.6,1.8,8.4,4.7V3.7c-0.1-0.9,0.6-1.6,1.5-1.7c0.1,0,0.1,0,0.2,0c0.9,0,1.6,0.7,1.6,1.6c0,0,0,0,0,0L175.6,31.8z"/>
						<path id="Fill-26" class="st0" d="M199,21c-0.3-4-2.6-7.5-7-7.5c-3.8,0-6.7,3.2-7.1,7.5H199z M192.5,33.7
							c-6,0-10.9-4.6-10.9-11.4v-0.1c0-6.3,4.4-11.4,10.5-11.4c6.5,0,10.2,5.3,10.2,11.1c0,0.8-0.7,1.5-1.5,1.5c0,0,0,0,0,0h-15.9
							c0.5,4.8,3.8,7.4,7.7,7.4c2.4,0,4.6-0.9,6.3-2.5c0.6-0.5,1.5-0.5,2,0.1c0.2,0.3,0.4,0.6,0.4,0.9c0,0.4-0.2,0.8-0.5,1.1
							C198.6,32.6,195.6,33.8,192.5,33.7L192.5,33.7z"/>
					</g>
				</g>
			</g>
		</g>
		<path class="st0" d="M7.5,63.5l-4-11.3c-0.1-0.3-0.2-0.6-0.2-0.9c0-0.9,0.7-1.6,1.6-1.6c0,0,0,0,0,0c0.8,0,1.5,0.6,1.7,1.3l2.9,9
			l2.9-9c0.2-0.8,0.9-1.3,1.7-1.3h0.2c0.8,0,1.5,0.6,1.7,1.3l2.9,9l3-9.1c0.2-0.8,0.9-1.3,1.7-1.3c0.9,0,1.6,0.7,1.6,1.6
			c0,0,0,0,0,0c0,0.3-0.1,0.5-0.1,0.8L21,63.5c-0.2,0.9-1,1.5-1.9,1.5H19c-0.9,0-1.7-0.6-1.9-1.5l-2.9-8.8l-2.9,8.8
			c-0.2,0.8-0.9,1.4-1.8,1.5H9.4C8.5,65,7.7,64.4,7.5,63.5z"/>
		<path class="st0" d="M38.8,65.1c-4.1,0.1-7.5-3.1-7.6-7.2c0-0.2,0-0.3,0-0.5v-0.1c0-4.2,3-7.7,7.3-7.7c4.7,0,7.1,3.9,7.1,7.3
			c0,0.9-0.7,1.6-1.5,1.6c0,0,0,0-0.1,0h-9.3c0.2,2.2,2.1,3.8,4.3,3.8c1.3,0,2.5-0.4,3.5-1.3c0.2-0.2,0.6-0.3,0.9-0.3
			c0.7,0,1.3,0.6,1.4,1.3c0,0,0,0,0,0.1c0,0.4-0.2,0.7-0.5,1C42.7,64.4,40.8,65.1,38.8,65.1z M42.2,56.3c-0.2-2.2-1.5-3.9-3.8-3.9
			c-2.1,0-3.5,1.6-3.8,3.9H42.2z"/>
		<path class="st0" d="M53.1,45.8c0-0.9,0.7-1.7,1.6-1.7c0,0,0,0,0.1,0c0.9,0,1.7,0.7,1.7,1.6c0,0,0,0,0,0v6.6
			c1.1-1.7,3-2.8,5.1-2.8c3.5,0,6.9,2.8,6.9,7.7v0.1c0,4.9-3.4,7.7-6.9,7.7c-2,0-3.9-1-5.1-2.6v0.8c0,0.9-0.8,1.7-1.7,1.7
			s-1.7-0.8-1.7-1.7V45.8z M65,57.3L65,57.3c0-2.9-1.9-4.8-4.2-4.8c-2.5,0.1-4.4,2.1-4.3,4.6c0,0,0,0.1,0,0.1v0.1
			c-0.2,2.5,1.7,4.6,4.2,4.7c0,0,0.1,0,0.1,0C63.1,62.1,65,60.3,65,57.3z"/>
		<path class="st0" d="M81.2,56.4h-4c-0.9,0-1.5-0.7-1.6-1.5c0,0,0,0,0,0c0-0.9,0.7-1.5,1.6-1.5h4v-3.9c0-0.9,0.7-1.6,1.6-1.6
			c0,0,0,0,0,0c0.9,0,1.6,0.7,1.6,1.6v3.9h4c0.9,0,1.6,0.7,1.6,1.5c0,0,0,0,0,0c0,0.9-0.7,1.5-1.5,1.5c0,0,0,0,0,0h-4v3.9
			c0,0.9-0.7,1.6-1.6,1.6c-0.9,0-1.6-0.7-1.6-1.6c0,0,0,0,0,0L81.2,56.4z"/>
		<path class="st0" d="M97.9,51.4c0-0.9,0.7-1.7,1.6-1.7c0,0,0,0,0,0c0.9,0,1.7,0.8,1.7,1.7c0,0,0,0,0,0v0.7c1-1.6,2.8-2.6,4.7-2.6
			c3.3,0,5.3,2.2,5.3,5.7v7.9c0,0.9-0.7,1.7-1.6,1.7c0,0,0,0-0.1,0c-0.9,0-1.7-0.7-1.7-1.6c0,0,0,0,0-0.1v-6.9
			c0-2.3-1.2-3.6-3.2-3.6s-3.3,1.4-3.3,3.7v6.8c0,0.9-0.8,1.7-1.7,1.7c-0.9,0-1.7-0.8-1.7-1.7l0,0L97.9,51.4z"/>
		<path class="st0" d="M118.5,60.5L118.5,60.5c0-3.3,2.5-4.8,6.1-4.8c1.4,0,2.7,0.2,4,0.6v-0.4c0-2.1-1.3-3.2-3.7-3.2
			c-1.1,0-2.2,0.2-3.3,0.6c-0.2,0.1-0.4,0.1-0.5,0.1c-0.8,0-1.4-0.6-1.4-1.4c0,0,0,0,0,0c0-0.6,0.4-1.1,0.9-1.3
			c1.5-0.6,3.1-0.9,4.8-0.9c1.8-0.1,3.6,0.5,4.9,1.7c1.1,1.2,1.7,2.9,1.6,4.6v7.3c0,0.9-0.7,1.6-1.6,1.6c0,0,0,0-0.1,0
			c-0.8,0.1-1.6-0.6-1.7-1.4c0,0,0,0,0,0v-0.6c-1.2,1.4-3,2.2-4.8,2.1C120.9,65,118.5,63.4,118.5,60.5z M128.6,59.4v-1
			c-1.1-0.4-2.2-0.6-3.4-0.6c-2.2,0-3.5,0.9-3.5,2.5v0.1c0,1.4,1.3,2.2,2.9,2.2C126.9,62.6,128.6,61.3,128.6,59.4L128.6,59.4z"/>
		<path class="st0" d="M140.6,60.6v-7.8H140c-0.8,0-1.5-0.7-1.5-1.5c0-0.8,0.7-1.5,1.5-1.5h0.6v-2.5c0-0.9,0.8-1.7,1.7-1.7
			c0.9,0,1.7,0.8,1.7,1.7v2.5h2.7c0.8,0,1.5,0.7,1.5,1.5c0,0.8-0.7,1.5-1.5,1.5c0,0,0,0,0,0H144v7.3c-0.2,0.9,0.4,1.7,1.3,1.9
			c0.2,0,0.4,0,0.5,0c0.3,0,0.6,0,0.8-0.1c0.8,0,1.4,0.6,1.4,1.4c0,0.6-0.4,1.1-0.9,1.3c-0.7,0.3-1.5,0.4-2.3,0.4
			C142.4,65,140.6,63.9,140.6,60.6z"/>
		<path class="st0" d="M155.5,45.9c0.3-1.1,1.4-1.7,2.4-1.5c0.7,0.2,1.3,0.7,1.5,1.5v0.2c-0.3,1.1-1.4,1.7-2.4,1.5
			c-0.7-0.2-1.3-0.7-1.5-1.5V45.9z M155.7,51.4c0-0.9,0.7-1.7,1.6-1.7c0,0,0,0,0,0c0.9,0,1.7,0.8,1.7,1.7c0,0,0,0,0,0v11.7
			c0,0.9-0.8,1.7-1.7,1.7c-0.9,0-1.7-0.8-1.7-1.7L155.7,51.4z"/>
		<path class="st0" d="M173.8,65h-0.2c-0.9,0-1.7-0.6-1.9-1.5l-4.9-11.3c-0.1-0.3-0.2-0.6-0.2-0.8c-0.1-0.9,0.6-1.8,1.6-1.9
			c0.9-0.1,1.7,0.6,1.8,1.5l3.8,9.8l3.9-9.9c0.2-0.7,0.9-1.2,1.6-1.2c0.9,0,1.6,0.7,1.7,1.6c0,0,0,0,0,0.1c0,0.3-0.1,0.6-0.2,0.8
			l-4.9,11.4C175.5,64.4,174.7,65,173.8,65z"/>
		<path class="st0" d="M194.4,65.1c-4.1,0.1-7.5-3.1-7.6-7.2c0-0.2,0-0.3,0-0.5v-0.1c0-4.2,3-7.7,7.2-7.7c4.7,0,7.1,3.9,7.1,7.3
			c0,0.9-0.7,1.6-1.5,1.6c0,0,0,0-0.1,0h-9.3c0.2,2.2,2.1,3.8,4.3,3.8c1.3,0,2.6-0.4,3.6-1.3c0.2-0.2,0.6-0.3,0.9-0.3
			c0.7,0,1.3,0.6,1.4,1.3c0,0,0,0,0,0.1c0,0.4-0.2,0.7-0.4,1C198.3,64.4,196.4,65.1,194.4,65.1z M197.8,56.3
			c-0.2-2.2-1.5-3.9-3.8-3.9c-2.1,0-3.5,1.6-3.9,3.9H197.8z"/>
	</g>
</g>
</svg>
