<?xml version="1.0" encoding="utf-8"?>
<!-- Generator: Adobe Illustrator 21.0.2, SVG Export Plug-In . SVG Version: 6.00 Build 0)  -->
<svg version="1.1" id="Layer_1" xmlns="http://www.w3.org/2000/svg" xmlns:xlink="http://www.w3.org/1999/xlink" x="0px" y="0px"
	 viewBox="0 0 206.6 58.1" style="enable-background:new 0 0 206.6 58.1;" xml:space="preserve">
<style type="text/css">
	.st0{fill:#FFFFFF;stroke:#FFFFFF;stroke-width:0.75;stroke-miterlimit:10;}
	.st1{fill:#FFFFFF;}
</style>
<title>Asset 30</title>
<g id="Layer_2">
	<g id="Layer_2-2">
		<path class="st0" d="M68.3,31.8c-4.1,0-7.7-3.3-7.7-8.2v-0.1c0-4.6,3.2-8.2,7.4-8.2c4.4,0,7.2,3.6,7.2,8.1c0,0.4-0.3,0.7-0.7,0.7
			H62.2c0.3,3.9,3.1,6.2,6.2,6.2c1.9,0,3.7-0.8,5.1-2.1c0.1-0.1,0.3-0.2,0.5-0.2c0.4,0,0.7,0.3,0.7,0.7c0,0,0,0,0,0
			c0,0.2-0.1,0.4-0.2,0.5C72.8,31,70.6,31.9,68.3,31.8z M73.6,22.9c-0.2-3.2-2-6.1-5.6-6.1c-3.1,0-5.5,2.6-5.8,6.1H73.6z"/>
		<path class="st0" d="M81.2,9.7c0-0.4,0.3-0.8,0.7-0.8c0,0,0,0,0.1,0c0.4,0,0.8,0.3,0.8,0.7c0,0,0,0,0,0v21.1
			c0,0.4-0.3,0.7-0.7,0.8c0,0,0,0-0.1,0c-0.4,0-0.8-0.3-0.8-0.7c0,0,0,0,0-0.1L81.2,9.7z"/>
		<path class="st0" d="M95.9,31.8c-4.1,0-7.7-3.3-7.7-8.2v-0.1c0-4.6,3.2-8.2,7.4-8.2c4.4,0,7.2,3.6,7.2,8.1c0,0.4-0.3,0.7-0.7,0.7
			H89.8c0.3,3.9,3.1,6.2,6.2,6.2c1.9,0,3.7-0.8,5-2.2c0.1-0.1,0.3-0.2,0.5-0.2c0.4,0,0.7,0.3,0.7,0.7c0,0,0,0,0,0
			c0,0.2-0.1,0.4-0.2,0.5C100.4,30.9,98.2,31.9,95.9,31.8z M101.2,22.9c-0.2-3.2-2-6.1-5.6-6.1c-3.1,0-5.5,2.6-5.8,6.1H101.2z"/>
		<path class="st0" d="M106.5,23.7L106.5,23.7c0-4.5,3.5-8.2,8-8.3c2.2,0,4.4,0.9,5.9,2.5c0.1,0.1,0.2,0.3,0.2,0.5
			c0,0.4-0.3,0.8-0.7,0.8c0,0,0,0,0,0c-0.2,0-0.4-0.1-0.5-0.2c-1.3-1.4-3-2.2-4.9-2.2c-3.6,0.1-6.4,3-6.3,6.6c0,0,0,0.1,0,0.1v0.1
			c-0.1,3.6,2.7,6.7,6.4,6.8c0,0,0,0,0.1,0c1.9,0,3.7-0.9,4.9-2.2c0.1-0.1,0.3-0.2,0.5-0.2c0.4,0,0.7,0.3,0.7,0.7
			c0,0.2-0.1,0.3-0.2,0.5c-2.9,3.3-8,3.6-11.3,0.7C107.5,28.3,106.5,26,106.5,23.7L106.5,23.7z"/>
		<path class="st0" d="M126.4,27.4V17.2h-1.7c-0.4,0-0.7-0.3-0.7-0.7c0-0.4,0.3-0.7,0.7-0.7h1.7v-4.4c0-0.4,0.3-0.8,0.7-0.8
			c0,0,0,0,0,0c0.4,0,0.8,0.3,0.8,0.7c0,0,0,0,0,0v4.4h4.9c0.4,0,0.7,0.3,0.7,0.7c0,0.4-0.3,0.7-0.7,0.7h-4.9v10.1
			c0,2.2,1.3,3,3.1,3c0.6,0,1.2-0.1,1.8-0.3c0.4,0,0.7,0.3,0.7,0.7c0,0.3-0.2,0.6-0.5,0.6c-0.7,0.3-1.5,0.4-2.2,0.4
			C128.3,31.7,126.4,30.4,126.4,27.4z"/>
		<path class="st0" d="M138.5,16.4c0-0.4,0.3-0.8,0.8-0.8c0.4,0,0.8,0.3,0.8,0.8v3.8c1.4-3,4.1-4.7,6.3-4.7c0.4,0,0.8,0.4,0.8,0.8
			c0,0,0,0,0,0c0,0.4-0.4,0.8-0.8,0.8C143,17.5,140,20,140,25v5.8c0,0.4-0.3,0.8-0.8,0.8c-0.4,0-0.8-0.3-0.8-0.8L138.5,16.4z"/>
		<path class="st0" d="M150.4,23.7L150.4,23.7c-0.1-4.5,3.5-8.2,8-8.3c0,0,0.1,0,0.1,0c4.4,0,8,3.6,8,8c0,0,0,0.1,0,0.1v0.1
			c0.1,4.5-3.5,8.1-8,8.2c0,0-0.1,0-0.1,0c-4.4,0-8-3.6-8-8C150.3,23.8,150.3,23.7,150.4,23.7z M164.8,23.7L164.8,23.7
			c0.1-3.7-2.7-6.7-6.3-6.8c0,0-0.1,0-0.1,0c-3.6,0.1-6.4,3-6.4,6.6c0,0.1,0,0.1,0,0.2v0.1c-0.1,3.6,2.7,6.7,6.3,6.8
			c0,0,0.1,0,0.1,0c3.6,0,6.4-3,6.4-6.6C164.8,23.8,164.8,23.7,164.8,23.7L164.8,23.7z"/>
		<path class="st0" d="M186.3,30.8c0,0.4-0.3,0.7-0.7,0.8c0,0,0,0-0.1,0c-0.4,0-0.8-0.3-0.8-0.7c0,0,0,0,0-0.1v-2.9
			c-1.3,2.3-3.8,3.8-6.4,3.9c-4.3-0.1-7.7-3.6-7.6-7.9c0-0.1,0-0.1,0-0.2v-0.1c-0.2-4.3,3.1-8,7.5-8.2c0.1,0,0.1,0,0.2,0
			c2.7,0,5.1,1.4,6.4,3.7V9.7c0-0.4,0.3-0.7,0.7-0.8c0,0,0,0,0.1,0c0.4,0,0.8,0.3,0.8,0.7c0,0,0,0,0,0.1V30.8z M172.3,23.5
			L172.3,23.5c0,4.2,2.9,6.8,6.1,6.8c3.6-0.1,6.5-3.1,6.4-6.7c0,0,0,0,0,0v-0.1c0.1-3.6-2.7-6.6-6.3-6.7c0,0,0,0,0,0
			C175.1,16.9,172.3,19.3,172.3,23.5L172.3,23.5z"/>
		<path class="st0" d="M199.2,31.8c-4.1,0-7.7-3.3-7.7-8.2v-0.1c0-4.6,3.2-8.2,7.4-8.2c4.4,0,7.2,3.6,7.2,8.1c0,0.4-0.3,0.7-0.7,0.7
			h-12.3c0.3,3.9,3.1,6.2,6.1,6.2c1.9,0,3.7-0.8,5.1-2.1c0.1-0.1,0.3-0.2,0.5-0.2c0.4,0,0.7,0.3,0.7,0.7c0,0,0,0,0,0
			c0,0.2-0.1,0.4-0.2,0.5C203.8,31,201.5,31.9,199.2,31.8z M204.5,22.9c-0.2-3.2-2-6.1-5.6-6.1c-3.1,0-5.5,2.6-5.8,6.1H204.5z"/>
		<g id="Group-3">
			<path id="Fill-1" class="st1" d="M25.4,14.9c-0.3,0-0.5-0.1-0.6-0.4l-1.9-3.2l-1.6,3c-0.2,0.3-0.6,0.5-1,0.2
				c-0.2-0.1-0.3-0.3-0.3-0.5l-1.4-7.7L17.1,11c-0.1,0.3-0.4,0.5-0.7,0.5h-3.6c-0.4,0-0.7-0.3-0.7-0.7s0.3-0.7,0.7-0.7h3.1l2.2-6.8
				c0.1-0.4,0.5-0.6,0.9-0.5c0.2,0.1,0.4,0.3,0.5,0.5l1.5,8.6l1.2-2.2c0.2-0.3,0.6-0.5,1-0.3c0.1,0.1,0.2,0.2,0.3,0.3l1.6,2.7
				l2.8-11.8C28,0.2,28.3-0.1,28.7,0C29,0,29.2,0.3,29.3,0.6l1.8,9.5l5.7,0.2c0.4,0,0.7,0.4,0.7,0.8c0,0.4-0.4,0.7-0.8,0.7l-6.3-0.3
				c-0.3,0-0.6-0.3-0.7-0.6l-1.3-6.7l-2.4,10.2c-0.1,0.3-0.3,0.5-0.6,0.6L25.4,14.9"/>
		</g>
		<g id="Group-6">
			<g>
				<path id="Fill-4" class="st1" d="M24.9,53.5c-8.2,0-14.8-6.6-14.8-14.8S16.7,24,24.8,24c8.2,0,14.8,6.6,14.8,14.8v0
					C39.6,46.9,33,53.5,24.9,53.5 M43,31l-0.6,0l-0.2-0.5c-1-2.1-2.5-4.1-4.2-5.7l-0.6-0.6l5.7-9.7l0.5-0.1c1.6-0.3,2.8-1.8,2.5-3.4
					s-1.8-2.8-3.4-2.5c-1.6,0.3-2.8,1.8-2.5,3.4c0.1,0.3,0.2,0.7,0.3,1l0.3,0.5L35,22.5L34.2,22c-2.8-1.6-6-2.4-9.3-2.5l0,0
					c-3.3,0-6.5,0.9-9.3,2.5l-0.9,0.5L9,13.3l0.2-0.5c0.2-0.4,0.3-0.8,0.3-1.3c0-1.7-1.4-3-3-3s-3,1.4-3,3c0,1.5,1.2,2.8,2.7,3
					l0.5,0.1l5.7,9.6l-0.6,0.6c-1.7,1.6-3.2,3.5-4.2,5.7l-0.2,0.5L6.8,31c-4.1,0.5-7,4.2-6.5,8.3c0.4,3.3,2.9,5.9,6.1,6.4l0.6,0.1
					l0.2,0.5c3,7.1,10,11.7,17.7,11.7l0,0c7.7,0,14.7-4.6,17.7-11.8l0.2-0.5l0.6-0.1c4-0.7,6.8-4.5,6.1-8.6
					C48.9,33.9,46.3,31.4,43,31"/>
			</g>
		</g>
		<path id="Fill-7" class="st1" d="M32.6,35.4c0,1.2-1,2.1-2.1,2.1c-1.2,0-2.1-1-2.1-2.1c0-1.2,1-2.1,2.1-2.1S32.6,34.2,32.6,35.4
			L32.6,35.4"/>
		<path id="Fill-9" class="st1" d="M21.4,35.4c0,1.2-1,2.1-2.1,2.1c-1.2,0-2.1-1-2.1-2.1c0-1.2,1-2.1,2.1-2.1l0,0
			C20.4,33.2,21.4,34.2,21.4,35.4L21.4,35.4"/>
		<path class="st1" d="M64.8,53.9l-2.9-8.3c-0.1-0.2-0.1-0.4-0.1-0.6c0-0.6,0.5-1.2,1.2-1.2c0,0,0,0,0,0c0.6,0,1.1,0.4,1.2,1
			l2.1,6.6l2.1-6.6c0.1-0.6,0.7-1,1.3-1h0.1c0.6,0,1.1,0.4,1.3,1l2.1,6.6l2.1-6.6c0.1-0.6,0.6-1,1.2-1c0.6,0,1.2,0.5,1.2,1.1
			c0,0,0,0.1,0,0.1c0,0.2,0,0.4-0.1,0.6l-3,8.4c-0.2,0.6-0.7,1-1.4,1.1h-0.1c-0.6,0-1.2-0.4-1.4-1.1l-2.1-6.5l-2.1,6.5
			c-0.1,0.6-0.7,1.1-1.3,1.1h-0.1C65.5,55,65,54.5,64.8,53.9z"/>
		<path class="st1" d="M87.8,55c-3,0.1-5.5-2.3-5.6-5.3c0-0.1,0-0.3,0-0.4l0,0c-0.1-3,2.1-5.5,5.1-5.7c0.1,0,0.1,0,0.2,0
			c2.8,0,5.2,2.3,5.2,5.1c0,0.1,0,0.2,0,0.2c0,0.6-0.5,1.2-1.1,1.2c0,0,0,0,0,0h-6.8c0.2,1.6,1.5,2.8,3.1,2.7c0.9,0,1.9-0.3,2.6-1
			c0.2-0.2,0.4-0.2,0.6-0.2c0.6,0,1,0.4,1,1c0,0.3-0.1,0.6-0.3,0.8C90.6,54.6,89.2,55.1,87.8,55z M90.2,48.6
			c-0.2-1.6-1.1-2.9-2.8-2.9c-1.5,0.1-2.8,1.3-2.8,2.9H90.2z"/>
		<path class="st1" d="M98.2,40.9c0-0.7,0.5-1.2,1.2-1.2c0,0,0,0,0.1,0c0.7,0,1.2,0.5,1.3,1.2c0,0,0,0,0,0v4.8c0.8-1.3,2.2-2,3.7-2
			c2.6,0,5,2,5,5.7l0,0c0,3.6-2.5,5.7-5,5.7c-1.5,0-2.9-0.7-3.7-1.9v0.6c-0.1,0.7-0.7,1.2-1.4,1.1c-0.6-0.1-1.1-0.5-1.1-1.1
			L98.2,40.9z M106.9,49.4L106.9,49.4c0.1-1.8-1.2-3.3-2.9-3.5c-0.1,0-0.1,0-0.2,0c-1.8,0.1-3.2,1.6-3.2,3.4c0,0,0,0.1,0,0.1l0,0
			c-0.1,1.8,1.3,3.4,3.1,3.5c0,0,0.1,0,0.1,0c1.8,0,3.2-1.5,3.1-3.3C106.9,49.5,106.9,49.5,106.9,49.4z"/>
		<path class="st1" d="M118.8,48.7h-2.9c-0.6,0-1.1-0.5-1.1-1.1c0-0.6,0.5-1.1,1.1-1.1h2.9v-2.9c0-0.6,0.5-1.2,1.1-1.2c0,0,0,0,0,0
			c0.6,0,1.2,0.5,1.2,1.2c0,0,0,0,0,0v2.9h2.9c0.6,0,1.1,0.5,1.1,1.1c0,0.6-0.5,1.1-1.1,1.1h-2.9v2.9c0,0.6-0.5,1.2-1.1,1.2
			c0,0,0,0,0,0c-0.6,0-1.2-0.5-1.2-1.1c0,0,0,0,0,0L118.8,48.7z"/>
		<path class="st1" d="M131.1,45.1c0-0.7,0.5-1.2,1.2-1.3c0,0,0,0,0,0c0.7,0,1.3,0.5,1.3,1.2c0,0,0,0,0,0v0.5c0.7-1.2,2-1.9,3.4-1.9
			c2.4,0,3.9,1.7,3.9,4.2v5.8c0,0.7-0.5,1.2-1.2,1.2c0,0,0,0-0.1,0c-0.7,0-1.2-0.5-1.3-1.2c0,0,0,0,0,0v-5c0-1.7-0.9-2.7-2.3-2.7
			c-1.3,0-2.4,1-2.5,2.4c0,0.1,0,0.2,0,0.3v5c-0.1,0.7-0.7,1.2-1.4,1.1c-0.6-0.1-1.1-0.5-1.1-1.1L131.1,45.1z"/>
		<path class="st1" d="M146.1,51.7L146.1,51.7c0-2.3,1.8-3.5,4.5-3.5c1,0,2,0.1,2.9,0.5v-0.3c0-1.5-0.9-2.4-2.7-2.4
			c-0.8,0-1.6,0.1-2.4,0.4c-0.1,0-0.3,0.1-0.4,0.1c-0.6,0-1-0.4-1-0.9c0,0,0,0,0-0.1c0-0.4,0.3-0.8,0.7-1c1.1-0.4,2.3-0.7,3.5-0.6
			c1.3-0.1,2.6,0.3,3.6,1.2c0.8,0.9,1.3,2.1,1.2,3.4v5.4c0,0.7-0.5,1.2-1.2,1.2c0,0,0,0,0,0c-0.6,0.1-1.2-0.4-1.2-1c0,0,0,0,0,0
			v-0.4c-0.9,1-2.2,1.6-3.5,1.5C147.9,55,146.1,53.9,146.1,51.7z M153.6,50.9v-0.7c-0.8-0.3-1.6-0.4-2.5-0.4c-1.6,0-2.6,0.7-2.6,1.8
			l0,0c0,1,0.9,1.7,2.1,1.7C152.3,53.2,153.6,52.3,153.6,50.9L153.6,50.9z"/>
		<path class="st1" d="M162.3,51.8v-5.7h-0.4c-0.6,0-1.1-0.5-1.1-1.1c0-0.6,0.5-1.1,1.1-1.1h0.4v-1.9c0.1-0.7,0.7-1.2,1.4-1.1
			c0.6,0.1,1.1,0.5,1.1,1.1v1.8h2c0.6,0,1.1,0.5,1.1,1.1s-0.5,1.1-1.1,1.1c0,0,0,0,0,0h-2v5.3c-0.1,0.6,0.3,1.3,1,1.4
			c0.1,0,0.2,0,0.3,0c0.2,0,0.4,0,0.6-0.1c0.6,0,1,0.4,1.1,1c0,0.4-0.3,0.8-0.7,1c-0.5,0.2-1.1,0.3-1.7,0.3
			C163.6,55,162.3,54.2,162.3,51.8z"/>
		<path class="st1" d="M173.2,41c0.1-0.8,0.9-1.3,1.7-1.2c0.6,0.1,1.1,0.6,1.2,1.2v0.1c-0.1,0.8-0.9,1.3-1.7,1.2
			c-0.6-0.1-1.1-0.6-1.2-1.2V41z M173.4,45.1c0-0.7,0.5-1.2,1.2-1.3c0,0,0,0,0,0c0.7,0,1.3,0.5,1.3,1.2c0,0,0,0,0,0v8.6
			c-0.1,0.7-0.7,1.2-1.4,1.1c-0.6-0.1-1.1-0.5-1.1-1.1L173.4,45.1z"/>
		<path class="st1" d="M186.7,55h-0.1c-0.7,0-1.2-0.5-1.4-1.1l-3.6-8.3c-0.1-0.2-0.1-0.4-0.1-0.6c0-0.7,0.6-1.2,1.3-1.2
			c0.5,0,1,0.4,1.2,0.9l2.8,7.2l2.8-7.2c0.2-0.5,0.6-0.9,1.2-0.9c0.7,0,1.2,0.5,1.2,1.2c0,0,0,0,0,0c0,0.2-0.1,0.4-0.1,0.6l-3.6,8.3
			C187.9,54.5,187.3,55,186.7,55z"/>
		<path class="st1" d="M201.7,55c-3,0.1-5.5-2.3-5.6-5.3c0-0.1,0-0.3,0-0.4l0,0c-0.1-3,2.1-5.5,5.1-5.7c0.1,0,0.1,0,0.2,0
			c2.8,0,5.2,2.3,5.2,5.1c0,0.1,0,0.2,0,0.2c0,0.6-0.5,1.2-1.1,1.2c0,0,0,0,0,0h-6.8c0.2,1.6,1.5,2.8,3.1,2.7c0.9,0,1.9-0.3,2.6-1
			c0.2-0.2,0.4-0.2,0.6-0.2c0.6,0,1,0.4,1,1c0,0.3-0.1,0.6-0.3,0.8C204.6,54.6,203.2,55.1,201.7,55z M204.2,48.6
			c-0.2-1.6-1.1-2.9-2.8-2.9c-1.5,0.1-2.8,1.3-2.8,2.9H204.2z"/>
	</g>
</g>
</svg>
