<?xml version="1.0" encoding="utf-8"?>
<!-- Generator: Adobe Illustrator 21.0.2, SVG Export Plug-In . SVG Version: 6.00 Build 0)  -->
<svg version="1.1" id="Layer_1" xmlns="http://www.w3.org/2000/svg" xmlns:xlink="http://www.w3.org/1999/xlink" x="0px" y="0px"
	 viewBox="0 0 34 38" style="enable-background:new 0 0 34 38;" xml:space="preserve">
<style type="text/css">
	.st0{fill:#48287C;stroke:#CCCCCC;stroke-width:0.4512;}
	.st1{fill:none;stroke:#FFFFFF;stroke-width:0.5;stroke-miterlimit:10;}
	.st2{fill:#FFFFFF;}
	.st3{fill:#FFFFFF;stroke:#FFFFFF;stroke-width:0.4287;stroke-miterlimit:10;}
</style>
<title>EBEF3BEF-2744-44D3-872D-1DE25B495DAE</title>
<desc>Created with sketchtool.</desc>
<title>EBEF3BEF-2744-44D3-872D-1DE25B495DAE</title>
<desc>Created with sketchtool.</desc>
<g id="Page-1_6_">
	<g id="Mobile-Modules_6_" transform="translate(-265.000000, -1330.000000)">
		<g id="Core_6_" transform="translate(20.000000, 404.000000)">
			<g id="mods_6_" transform="translate(0.000000, 161.000000)">
				<g id="icn-csrf_6_" transform="translate(246.000000, 765.000000)">
					<path id="Polygon_6_" class="st0" d="M13.9,1.1c1.2-0.7,3-0.7,4.2,0l12.3,7.1c1.2,0.7,2.1,2.3,2.1,3.6v14.3
						c0,1.3-0.9,2.9-2.1,3.6l-12.3,7.1c-1.2,0.7-3,0.7-4.2,0L1.6,29.7c-1.2-0.7-2.1-2.3-2.1-3.6V11.8c0-1.3,0.9-2.9,2.1-3.6
						L13.9,1.1z"/>
				</g>
			</g>
		</g>
	</g>
</g>
<ellipse class="st1" cx="16.8" cy="13.3" rx="8.1" ry="2.1"/>
<path class="st1" d="M24.4,13.9c1.3,1.8,2.1,4,2.1,6.5c0,5.7-1.5,9.1-9.7,9.1s-9.7-3.3-9.7-9.1c0-2.4,0.8-4.6,2.1-6.4"/>
<ellipse class="st2" cx="16.8" cy="12.8" rx="5.3" ry="0.9"/>
<path class="st1" d="M11.7,28.9c-0.4,0.9-1.1,1.5-1.6,1.2c-0.5-0.2-0.6-1.2-0.2-2.1"/>
<path class="st1" d="M22,28.9c0.4,0.9,1.1,1.5,1.6,1.2c0.5-0.2,0.6-1.2,0.2-2.1"/>
<circle class="st3" cx="17.9" cy="10.8" r="1.3"/>
<circle class="st1" cx="21.2" cy="8.3" r="0.9"/>
<circle class="st1" cx="17.8" cy="6.7" r="0.7"/>
</svg>
