<?xml version="1.0" encoding="utf-8"?>
<!-- Generator: Adobe Illustrator 21.0.2, SVG Export Plug-In . SVG Version: 6.00 Build 0)  -->
<svg version="1.1" id="Layer_1" xmlns="http://www.w3.org/2000/svg" xmlns:xlink="http://www.w3.org/1999/xlink" x="0px" y="0px"
	 viewBox="0 0 34 38" style="enable-background:new 0 0 34 38;" xml:space="preserve">
<style type="text/css">
	.st0{fill:#006A27;stroke:#CCCCCC;stroke-width:0.5;}
	.st1{fill:none;stroke:#FFFFFF;stroke-width:0.5;stroke-linejoin:round;stroke-miterlimit:10;}
	.st2{fill:#006A27;stroke:#FFFFFF;stroke-width:0.5;}
</style>
<title>EBEF3BEF-2744-44D3-872D-1DE25B495DAE</title>
<desc>Created with sketchtool.</desc>
<title>EBEF3BEF-2744-44D3-872D-1DE25B495DAE</title>
<desc>Created with sketchtool.</desc>
<g id="Page-1_6_">
	<g id="Mobile-Modules_6_" transform="translate(-265.000000, -1330.000000)">
		<g id="Core_6_" transform="translate(20.000000, 404.000000)">
			<g id="mods_6_" transform="translate(0.000000, 161.000000)">
				<g id="icn-csrf_6_" transform="translate(246.000000, 765.000000)">
					<path id="Polygon_6_" class="st0" d="M13.9,1.1c1.2-0.7,3-0.7,4.2,0l12.3,7.1c1.2,0.7,2.1,2.3,2.1,3.6v14.3
						c0,1.3-0.9,2.9-2.1,3.6l-12.3,7.1c-1.2,0.7-3,0.7-4.2,0L1.6,29.7c-1.2-0.7-2.1-2.3-2.1-3.6V11.8c0-1.3,0.9-2.9,2.1-3.6
						L13.9,1.1z"/>
				</g>
			</g>
		</g>
	</g>
</g>
<path class="st1" d="M25.8,11.2v14.5c0,0.4-0.4,0.8-0.8,0.8H12.5c-0.4,0-0.8-0.4-0.8-0.8V8.1c0-0.4,0.4-0.8,0.8-0.8h9.7L25.8,11.2z"
	/>
<polyline class="st1" points="22.2,7.2 22.2,11.2 25.8,11.2 "/>
<path class="st2" d="M23.2,13.8v14.5c0,0.4-0.4,0.8-0.8,0.8H9.9c-0.4,0-0.8-0.4-0.8-0.8V10.7c0-0.4,0.4-0.8,0.8-0.8h9.7L23.2,13.8z"
	/>
<polyline class="st1" points="19.6,9.8 19.6,13.8 23.2,13.8 "/>
<line class="st1" x1="11.8" y1="15.8" x2="20.7" y2="15.8"/>
<line class="st1" x1="11.8" y1="13.8" x2="17.2" y2="13.8"/>
<line class="st1" x1="11.8" y1="17.7" x2="20.7" y2="17.7"/>
<line class="st1" x1="11.8" y1="19.6" x2="20.7" y2="19.6"/>
<line class="st1" x1="11.8" y1="21.5" x2="20.7" y2="21.5"/>
<line class="st1" x1="11.8" y1="23.4" x2="20.7" y2="23.4"/>
<line class="st1" x1="11.8" y1="25.3" x2="20.7" y2="25.3"/>
</svg>
