<?xml version="1.0" encoding="utf-8"?>
<!-- Generator: Adobe Illustrator 21.0.2, SVG Export Plug-In . SVG Version: 6.00 Build 0)  -->
<svg version="1.1" id="Layer_1" xmlns="http://www.w3.org/2000/svg" xmlns:xlink="http://www.w3.org/1999/xlink" x="0px" y="0px"
	 viewBox="0 0 34 38" style="enable-background:new 0 0 34 38;" xml:space="preserve">
<style type="text/css">
	.st0{fill:#6B4F0A;stroke:#CCCCCC;stroke-width:0.5;}
	.st1{fill:none;stroke:#FFFFFF;stroke-width:0.5;stroke-miterlimit:10;}
</style>
<title>EBEF3BEF-2744-44D3-872D-1DE25B495DAE</title>
<desc>Created with sketchtool.</desc>
<title>EBEF3BEF-2744-44D3-872D-1DE25B495DAE</title>
<desc>Created with sketchtool.</desc>
<g id="Page-1_6_">
	<g id="Mobile-Modules_6_" transform="translate(-265.000000, -1330.000000)">
		<g id="Core_6_" transform="translate(20.000000, 404.000000)">
			<g id="mods_6_" transform="translate(0.000000, 161.000000)">
				<g id="icn-csrf_6_" transform="translate(246.000000, 765.000000)">
					<path id="Polygon_6_" class="st0" d="M13.9,1.1c1.2-0.7,3-0.7,4.2,0l12.3,7.1c1.2,0.7,2.1,2.3,2.1,3.6v14.3
						c0,1.3-0.9,2.9-2.1,3.6l-12.3,7.1c-1.2,0.7-3,0.7-4.2,0L1.6,29.7c-1.2-0.7-2.1-2.3-2.1-3.6V11.8c0-1.3,0.9-2.9,2.1-3.6
						L13.9,1.1z"/>
				</g>
			</g>
		</g>
	</g>
</g>
<path class="st1" d="M20.8,29.7h-6.6c-1.7,0-3-1.3-3-3V10.8c0-1.7,1.3-3,3-3h6.6c1.7,0,3,1.3,3,3v15.9
	C23.8,28.3,22.4,29.7,20.8,29.7z"/>
<rect x="12.8" y="10.6" class="st1" width="9.3" height="15.2"/>
<circle class="st1" cx="17.4" cy="27.6" r="1"/>
</svg>
