<?xml version="1.0" encoding="utf-8"?>
<!-- Generator: Adobe Illustrator 21.0.2, SVG Export Plug-In . SVG Version: 6.00 Build 0)  -->
<svg version="1.1" id="Layer_1" xmlns="http://www.w3.org/2000/svg" xmlns:xlink="http://www.w3.org/1999/xlink" x="0px" y="0px"
	 viewBox="0 0 92.2 103.2" style="enable-background:new 0 0 92.2 103.2;" xml:space="preserve">
<style type="text/css">
	.st0{fill:none;stroke:#CCCCCC;stroke-width:0.5;}
	.st1{fill:#96CC00;}
	.st2{fill:none;stroke:#FFFFFF;stroke-miterlimit:10;}
</style>
<g id="Page-1_11_">
	<g id="Mobile-Modules_1_" transform="translate(-265.000000, -1330.000000)">
		<g id="Core_1_" transform="translate(20.000000, 404.000000)">
			<g id="mods_1_" transform="translate(0.000000, 161.000000)">
				<g id="icn-csrf_1_" transform="translate(246.000000, 765.000000)">
					<path id="Polygon_1_" class="st0" d="M39.5,3c3.1-1.8,8.2-1.8,11.4,0l33.5,19.5c3.1,1.8,5.7,6.3,5.7,9.8v39
						c0,3.6-2.5,8-5.7,9.8l-33.5,19.5c-3.1,1.8-8.2,1.8-11.4,0L6,81.2c-3.1-1.8-5.7-6.3-5.7-9.8v-39c0-3.6,2.5-8,5.7-9.8L39.5,3z"/>
				</g>
			</g>
		</g>
	</g>
</g>
<g id="Page-1">
	<g id="Mobile-Modules" transform="translate(-265.000000, -1330.000000)">
		<g id="Core" transform="translate(20.000000, 404.000000)">
			<g id="mods" transform="translate(0.000000, 161.000000)">
				<g id="icn-csrf" transform="translate(246.000000, 765.000000)">
					<path id="Polygon" class="st1" d="M40.5,11.5c2.6-1.5,6.8-1.5,9.4,0l27.6,16c2.6,1.5,4.7,5.2,4.7,8.1v32.2c0,3-2.1,6.6-4.7,8.1
						l-27.6,16c-2.6,1.5-6.8,1.5-9.4,0l-27.6-16c-2.6-1.5-4.7-5.2-4.7-8.1V35.6c0-3,2.1-6.6,4.7-8.1L40.5,11.5z"/>
				</g>
			</g>
		</g>
	</g>
</g>
<circle class="st2" cx="46.2" cy="51.4" r="24.4"/>
<line class="st2" x1="21.7" y1="51.4" x2="70.5" y2="51.4"/>
<line class="st2" x1="46.2" y1="26.9" x2="46.2" y2="75.7"/>
<path class="st2" d="M67.4,39.4c-5.2,3.2-12.8,5.2-21.3,5.2s-16-2-21.3-5.2"/>
<path class="st2" d="M24.9,63.1c5.2-3.2,12.8-5.2,21.3-5.2c8.4,0,16,2,21.3,5.2"/>
<ellipse class="st2" cx="46.2" cy="51.4" rx="14.1" ry="24.4"/>
</svg>
