<?xml version="1.0" encoding="utf-8"?>
<!-- Generator: Adobe Illustrator 21.0.2, SVG Export Plug-In . SVG Version: 6.00 Build 0)  -->
<svg version="1.1" id="Layer_1" xmlns="http://www.w3.org/2000/svg" xmlns:xlink="http://www.w3.org/1999/xlink" x="0px" y="0px"
	 viewBox="0 0 92.2 103.2" style="enable-background:new 0 0 92.2 103.2;" xml:space="preserve">
<style type="text/css">
	.st0{fill:none;stroke:#CCCCCC;stroke-width:0.5;}
	.st1{fill:#FFAA00;}
	.st2{fill:none;stroke:#FFFFFF;stroke-miterlimit:10;}
</style>
<g id="Page-1_10_">
	<g id="Mobile-Modules_3_" transform="translate(-265.000000, -1330.000000)">
		<g id="Core_3_" transform="translate(20.000000, 404.000000)">
			<g id="mods_3_" transform="translate(0.000000, 161.000000)">
				<g id="icn-csrf_3_" transform="translate(246.000000, 765.000000)">
					<path id="Polygon_3_" class="st0" d="M39.6,2.9c3.1-1.8,8.2-1.8,11.4,0l33.5,19.5c3.1,1.8,5.7,6.3,5.7,9.8v39
						c0,3.6-2.5,8-5.7,9.8L51,100.6c-3.1,1.8-8.2,1.8-11.4,0L6.1,81.1c-3.1-1.8-5.7-6.3-5.7-9.8v-39c0-3.6,2.5-8,5.7-9.8L39.6,2.9z"
						/>
				</g>
			</g>
		</g>
	</g>
</g>
<g id="Page-1_5_">
	<g id="Mobile-Modules_2_" transform="translate(-265.000000, -1330.000000)">
		<g id="Core_2_" transform="translate(20.000000, 404.000000)">
			<g id="mods_2_" transform="translate(0.000000, 161.000000)">
				<g id="icn-csrf_2_" transform="translate(246.000000, 765.000000)">
					<path id="Polygon_2_" class="st1" d="M40.6,11.4c2.6-1.5,6.8-1.5,9.4,0l27.6,16c2.6,1.5,4.7,5.2,4.7,8.1v32.2
						c0,3-2.1,6.6-4.7,8.1L50,91.8c-2.6,1.5-6.8,1.5-9.4,0L13,75.8c-2.6-1.5-4.7-5.2-4.7-8.1V35.5c0-3,2.1-6.6,4.7-8.1L40.6,11.4z"
						/>
				</g>
			</g>
		</g>
	</g>
</g>
<path class="st2" d="M53.8,78.2H38.1c-4,0-7.2-3.2-7.2-7.2V33c0-4,3.2-7.2,7.2-7.2h15.7c4,0,7.2,3.2,7.2,7.2v38
	C61,74.9,57.7,78.2,53.8,78.2z"/>
<rect x="34.8" y="32.4" class="st2" width="22.2" height="36.3"/>
<circle class="st2" cx="45.8" cy="73.2" r="2.4"/>
</svg>
