<?xml version="1.0" encoding="UTF-8"?>
<svg width="90px" height="90px" viewBox="0 0 90 90" version="1.1" xmlns="http://www.w3.org/2000/svg" xmlns:xlink="http://www.w3.org/1999/xlink">
    <!-- Generator: Sketch 46.2 (44496) - http://www.bohemiancoding.com/sketch -->
    <title>Page 1</title>
    <desc>Created with Sketch.</desc>
    <defs></defs>
    <g id="Electrode" stroke="none" stroke-width="1" fill="none" fill-rule="evenodd">
        <g id="-1280:-Home" transform="translate(-529.000000, -621.000000)">
            <g id="Page-1" transform="translate(529.000000, 621.000000)">
                <polygon id="Fill-1" fill="#007EC5" points="0 -0.0004 89.67 89.7586 89.67 50.1606 39.597 -0.0004"></polygon>
                <g id="Group-14" transform="translate(39.000000, 18.758400)">
                    <path d="M7.0536,2.7305 C7.5396,2.2445 8.3086,2.2445 8.7956,2.7305 L8.9766,2.9125 C9.3966,3.3305 9.4416,3.7835 9.3726,4.3265 L8.3206,12.1015 L12.4066,8.0155 C12.8816,7.5405 13.6526,7.5415 14.1266,8.0155 C14.6036,8.4925 14.6026,9.2605 14.1266,9.7365 L7.8226,16.0415 C7.3356,16.5275 6.5666,16.5275 6.0796,16.0415 L6.0236,15.9845 C5.6036,15.5645 5.5586,15.1135 5.6266,14.5705 L6.7126,6.5095 L2.4686,10.7535 C1.9936,11.2305 1.2246,11.2305 0.7486,10.7555 C0.2736,10.2795 0.2736,9.5095 0.7496,9.0355 L7.0536,2.7305 Z" id="Fill-2" fill="#000000"></path>
                    <path d="M9.7655,17.8936 L15.9455,11.7126 C16.4315,11.2266 17.2015,11.2266 17.6885,11.7126 L22.0795,16.1036 C22.5095,16.5356 22.5095,17.2366 22.0795,17.6656 C21.6495,18.0966 20.9585,18.0856 20.5295,17.6546 L16.9975,14.1246 L15.3915,15.7316 L18.4125,18.7526 C18.8435,19.1836 18.8435,19.8846 18.4125,20.3156 C17.9825,20.7466 17.2925,20.7346 16.8625,20.3036 L13.8405,17.2826 L12.1765,18.9466 L15.7635,22.5336 C16.1935,22.9626 16.1945,23.6646 15.7635,24.0956 C15.3335,24.5256 14.6435,24.5136 14.2125,24.0836 L9.7655,19.6356 C9.2795,19.1486 9.2795,18.3796 9.7655,17.8936" id="Fill-4" fill="#000000"></path>
                    <path d="M22.7909,19.0332 C22.8569,18.8982 22.9489,18.7382 23.0509,18.6372 C23.5369,18.1502 24.3069,18.1952 24.7939,18.6822 C25.2009,19.0902 25.2699,19.6792 25.0199,20.1542 L21.7379,26.5842 L28.1329,23.3572 C28.6759,23.0862 29.2649,23.1082 29.7059,23.5502 L29.8419,23.6852 C30.2829,24.1272 30.3159,24.7042 30.0339,25.2592 L26.8089,31.6542 L33.2369,28.3712 C33.6889,28.1442 34.2679,28.1562 34.6969,28.5862 C35.1719,29.0602 35.1949,29.8082 34.7209,30.2842 C34.6189,30.3872 34.4469,30.4882 34.3119,30.5542 L25.8689,34.5622 C25.2699,34.8462 24.6689,34.7892 24.2499,34.3702 L24.0679,34.1892 C23.6499,33.7702 23.5939,33.1932 23.8889,32.5822 L26.8649,26.4802 L20.7649,29.4582 C20.1529,29.7522 19.5759,29.6952 19.1569,29.2772 L18.9759,29.0962 C18.5569,28.6782 18.5009,28.0772 18.7829,27.4762 L22.7909,19.0332 Z" id="Fill-6" fill="#000000"></path>
                    <path d="M7.1718,1.1982 C7.6578,0.7122 8.4268,0.7122 8.9138,1.1982 L9.0948,1.3802 C9.5138,1.7982 9.5588,2.2512 9.4898,2.7942 L8.4378,10.5692 L12.5238,6.4832 C12.9998,6.0082 13.7698,6.0092 14.2438,6.4832 C14.7208,6.9602 14.7208,7.7282 14.2438,8.2042 L7.9408,14.5092 C7.4528,14.9952 6.6848,14.9952 6.1968,14.5092 L6.1408,14.4522 C5.7218,14.0322 5.6768,13.5812 5.7448,13.0382 L6.8308,4.9772 L2.5868,9.2212 C2.1108,9.6982 1.3418,9.6982 0.8668,9.2232 C0.3908,8.7472 0.3918,7.9772 0.8668,7.5032 L7.1718,1.1982 Z" id="Fill-8" fill="#FFFFFF"></path>
                    <path d="M9.8827,16.3613 L16.0637,10.1803 C16.5497,9.6943 17.3197,9.6943 17.8067,10.1803 L22.1967,14.5713 C22.6277,15.0033 22.6267,15.7043 22.1967,16.1333 C21.7677,16.5643 21.0767,16.5533 20.6467,16.1223 L17.1157,12.5923 L15.5097,14.1993 L18.5307,17.2203 C18.9607,17.6513 18.9607,18.3523 18.5307,18.7833 C18.1007,19.2143 17.4097,19.2023 16.9807,18.7713 L13.9587,15.7503 L12.2947,17.4143 L15.8807,21.0013 C16.3117,21.4303 16.3127,22.1323 15.8817,22.5633 C15.4507,22.9933 14.7617,22.9813 14.3307,22.5513 L9.8827,18.1033 C9.3967,17.6163 9.3967,16.8473 9.8827,16.3613" id="Fill-10" fill="#FFFFFF"></path>
                    <path d="M22.9081,17.501 C22.9751,17.366 23.0661,17.206 23.1681,17.105 C23.6541,16.618 24.4251,16.663 24.9121,17.15 C25.3181,17.558 25.3871,18.147 25.1381,18.622 L21.8551,25.052 L28.2501,21.825 C28.7941,21.554 29.3831,21.576 29.8241,22.018 L29.9591,22.153 C30.4001,22.595 30.4331,23.172 30.1521,23.727 L26.9261,30.122 L33.3551,26.839 C33.8071,26.612 34.3851,26.624 34.8141,27.054 C35.2901,27.528 35.3131,28.276 34.8381,28.752 C34.7361,28.855 34.5651,28.956 34.4291,29.022 L25.9861,33.03 C25.3871,33.314 24.7871,33.257 24.3671,32.838 L24.1861,32.657 C23.7671,32.238 23.7121,31.661 24.0061,31.05 L26.9821,24.948 L20.8831,27.926 C20.2711,28.22 19.6931,28.163 19.2751,27.745 L19.0941,27.564 C18.6751,27.146 18.6191,26.545 18.9011,25.944 L22.9081,17.501 Z" id="Fill-12" fill="#FFFFFF"></path>
                </g>
            </g>
        </g>
    </g>
</svg>