<?xml version="1.0" encoding="UTF-8" standalone="no"?>
<svg width="34px" height="38px" viewBox="0 0 34 38" version="1.1" xmlns="http://www.w3.org/2000/svg" xmlns:xlink="http://www.w3.org/1999/xlink">
    <!-- Generator: sketchtool 40 (33762) - http://www.bohemiancoding.com/sketch -->
    <title>8FD9E221-7408-4DFF-95E1-A62909D42261</title>
    <desc>Created with sketchtool.</desc>
    <defs>
        <rect id="path-1" x="0" y="13.6488086" width="21.5480769" height="4.81722658" rx="1.28"></rect>
        <mask id="mask-2" maskContentUnits="userSpaceOnUse" maskUnits="objectBoundingBox" x="0" y="0" width="21.5480769" height="4.81722658" fill="white">
            <use xlink:href="#path-1"></use>
        </mask>
    </defs>
    <g id="Page-1" stroke="none" stroke-width="1" fill="none" fill-rule="evenodd">
        <g id="Mobile-Modules" transform="translate(-266.000000, -988.000000)">
            <g id="Core" transform="translate(20.000000, 404.000000)">
                <g id="mods" transform="translate(0.000000, 161.000000)">
                    <g id="icn-redux" transform="translate(246.000000, 423.000000)">
                        <path d="M14.7514077,0.814146514 C15.9016706,0.146052569 17.7653998,0.145346651 18.916878,0.814146514 L31.1961275,7.94616185 C32.3463904,8.61425579 33.2788626,10.2376354 33.2788626,11.5558925 L33.2788626,25.8586084 C33.2788626,27.1841137 32.3476058,28.7995392 31.1961275,29.4683391 L18.916878,36.6003544 C17.7666151,37.2684484 15.902886,37.2691543 14.7514077,36.6003544 L2.4721582,29.4683391 C1.32189535,28.8002452 0.389423077,27.1768655 0.389423077,25.8586084 L0.389423077,11.5558925 C0.389423077,10.2303873 1.32067997,8.61496171 2.4721582,7.94616185 L14.7514077,0.814146514 Z" id="Polygon" stroke="#CCCCCC" stroke-width="0.5" fill="#201F6B"></path>
                        <g id="Group-7" transform="translate(6.375000, 9.142371)">
                            <use id="Rectangle-10" stroke="#FFFFFF" mask="url(#mask-2)" stroke-width="1.28" xlink:href="#path-1"></use>
                            <path d="M15.5890934,15.6560262 L15.5784348,15.6560262 L1.97958061,15.6560262 C1.77092897,15.6529372 1.59909821,15.8300387 1.5961913,16.0517588 C1.59328439,16.2734789 1.75994731,16.4557287 1.96859894,16.4588177 L1.97958061,16.4588177 L15.5784348,16.4588177 C15.7867634,16.4619067 15.9582712,16.2848052 15.9615011,16.0630851 C15.964408,15.841365 15.7974221,15.6591152 15.5890934,15.6560262" id="Fill-17" fill="#FFFFFF"></path>
                            <path d="M7.45715183,10.7605469 C7.25416114,10.7575359 7.08699234,10.9301653 7.0841643,11.1462865 C7.08133625,11.3624078 7.24347742,11.5400555 7.44646811,11.5430664 L12.6969951,11.5227149 C12.8996716,11.5257259 13.0665261,11.3530965 13.0696684,11.1369753 C13.0724965,10.920854 12.9100411,10.7432063 12.7073646,10.7401954 L7.45715183,10.7605469 Z" id="Fill-17" fill="#FFFFFF" transform="translate(10.076916, 11.240195) rotate(-270.000000) translate(-10.076916, -11.240195) "></path>
                            <path d="M17.1584832,15.6559864 C16.9384065,15.6559864 16.7596154,15.8355082 16.7596154,16.0575936 C16.7596154,16.2789924 16.9384065,16.4588575 17.1584832,16.4588575 C17.37856,16.4588575 17.5576923,16.2789924 17.5576923,16.0575936 C17.5576923,15.8355082 17.3789012,15.6559864 17.1584832,15.6559864" id="Fill-10" fill="#FFFFFF"></path>
                            <path d="M19.9517525,15.6559864 C19.7316757,15.6559864 19.5528846,15.8355082 19.5528846,16.0575936 C19.5528846,16.2789924 19.7316757,16.4588575 19.9517525,16.4588575 C20.1718293,16.4588575 20.3509615,16.2789924 20.3509615,16.0575936 C20.3509615,15.8355082 20.1721705,15.6559864 19.9517525,15.6559864" id="Fill-12" fill="#FFFFFF"></path>
                            <path d="M18.7546371,15.6559864 C18.5345603,15.6559864 18.3557692,15.8355082 18.3557692,16.0575936 C18.3557692,16.2789924 18.5345603,16.4588575 18.7546371,16.4588575 C18.9747139,16.4588575 19.1538462,16.2789924 19.1538462,16.0575936 C19.1538462,15.8355082 18.9750551,15.6559864 18.7546371,15.6559864" id="Fill-19" fill="#FFFFFF"></path>
                            <path d="M3.80515742,9.18460549 C3.97937068,9.08234698 4.04176621,8.85014851 3.94446625,8.66647398 C3.94292181,8.66321734 3.94137736,8.66028636 3.93921514,8.65670406 C2.84204225,6.65256749 2.84204225,4.18566229 3.93921514,2.18185138 C4.04145732,2.00110783 3.98554846,1.76728105 3.81442408,1.65981191 C3.7588241,1.62464019 3.69611968,1.606403 3.63217971,1.60575168 C3.49997532,1.60477468 3.37796426,1.67935175 3.3137154,1.80115011 C2.08773589,4.03943913 2.08773589,6.79911631 3.3137154,9.037731 C3.41070647,9.22140553 3.63094416,9.28718966 3.80515742,9.18460549" id="Fill-1" fill="#FFFFFF"></path>
                            <path d="M2.61553636,11.1926118 C2.78262501,11.0921035 2.84246882,10.8638791 2.74914803,10.6833482 C2.74766675,10.6801473 2.74588921,10.6772665 2.74411167,10.6737455 C1.07263262,7.54582372 1.07263262,3.69385779 2.74411167,0.566256066 C2.84246882,0.388605983 2.78855014,0.158461101 2.6241278,0.0528313225 C2.57139414,0.018581667 2.51095782,0.000656613594 2.44933647,1.64331163e-05 C2.32283496,-0.00126392784 2.20581365,0.0723568271 2.14389604,0.191750486 C0.349470549,3.55013727 0.349470549,7.68954424 2.14389604,11.0482511 C2.23721684,11.228782 2.44844771,11.2934402 2.61553636,11.1926118" id="Fill-3" fill="#FFFFFF"></path>
                            <path d="M16.8108132,8.6567521 C16.7085729,8.83749814 16.7641719,9.07100249 16.935602,9.17912445 C17.1070321,9.28692074 17.3288102,9.22797473 17.4310505,9.04722869 C17.4329038,9.04429767 17.4347571,9.04104099 17.4363015,9.0377843 C18.6622585,6.79913872 18.6622585,4.03942346 17.4363015,1.80077787 C17.3702005,1.67572115 17.2429407,1.60049172 17.1070321,1.60602808 C16.9078025,1.6141698 16.7521254,1.79133349 16.7601564,2.0013897 C16.7626274,2.06489506 16.779616,2.12709776 16.8108132,2.18181007 C17.907966,4.18564864 17.907966,6.65258787 16.8108132,8.6567521" id="Fill-8" fill="#FFFFFF"></path>
                            <path d="M18.0057054,10.6738111 C17.9076353,10.8514579 17.961559,11.0809583 18.1254043,11.1872263 C18.2898421,11.2931742 18.5025742,11.2352389 18.6006443,11.0575922 C18.6027183,11.0547114 18.6041997,11.0515106 18.6059774,11.0483097 C20.4005716,7.68966546 20.4005716,3.55033564 18.6059774,0.192011454 C18.5425726,0.0687790088 18.4202072,-0.00516045819 18.2898421,0.00028097445 C18.0987387,0.00860316554 17.9500039,0.182408926 17.9571148,0.389183366 C17.959485,0.451599799 17.976077,0.512735895 18.0057054,0.566189968 C19.6773416,3.69437356 19.6773416,7.54594762 18.0057054,10.6738111" id="Fill-5" fill="#FFFFFF"></path>
                            <path d="M12.3697236,3.62597004 C12.358274,3.62240642 12.3499189,3.62013865 12.3418733,3.61722296 C12.1787947,3.55955703 12.0147877,3.50480678 11.8476862,3.46107138 C11.8346894,3.45783172 11.8260249,3.45362017 11.8247871,3.43644997 C11.8176698,3.32597759 11.7984841,3.217449 11.7743472,3.10989231 C11.7149333,2.84294438 11.6242653,2.58830716 11.5023431,2.34598064 C11.3934177,2.13021933 11.2615932,1.93227614 11.0935634,1.76219403 C10.9558594,1.62321264 10.800517,1.51209233 10.6216565,1.4392 C10.522324,1.39870425 10.4195875,1.37181508 10.3134471,1.35853248 C10.2388703,1.34946143 10.1642936,1.34492591 10.0897168,1.35010936 C9.96160568,1.35918041 9.83535123,1.38121009 9.71095347,1.41490255 C9.52095291,1.4667371 9.33992631,1.54157323 9.16973037,1.64427043 C8.97385031,1.76284196 8.81324723,1.92028941 8.68142273,2.11304914 C8.45181293,2.44835388 8.29275709,2.81637918 8.20270796,3.21777297 C8.17454827,3.34411968 8.15164918,3.47143829 8.13896184,3.6007007 C8.13091622,3.68493184 8.12256114,3.76916298 8.11853833,3.85371809 C8.11327773,3.96386651 8.10925491,4.07466286 8.10956436,4.18513524 C8.11018326,4.30565057 8.11730054,4.42584193 8.12782174,4.54603329 C8.14453189,4.73620129 8.17300103,4.92410153 8.21384806,5.10973401 C8.28099809,5.41426199 8.37785506,5.70777513 8.50906066,5.98865359 C8.56166668,6.10106977 8.61984275,6.21057025 8.67647158,6.32071867 C8.69441951,6.35603096 8.69534785,6.3527913 8.73217207,6.34955164 C8.77332854,6.34598801 8.81510391,6.34372025 8.85595094,6.34793181 C8.95744961,6.35797475 9.051831,6.39199118 9.13631007,6.45257281 C9.28639195,6.5601295 9.37736942,6.70818193 9.40274409,6.89737803 C9.44823282,7.23592243 9.23780875,7.54077437 8.93269383,7.61139895 C8.5867319,7.69109457 8.26614463,7.46237462 8.19744736,7.11313934 C8.16866877,6.96573484 8.18909228,6.82383776 8.25531398,6.68971587 C8.25778956,6.68453241 8.25964624,6.67934896 8.26274071,6.6751374 C8.27202413,6.6618548 8.269858,6.64986806 8.26212182,6.63690942 C8.25036282,6.6171475 8.23984162,6.59706161 8.22901097,6.57697572 C7.98485715,6.12309945 7.80135498,5.64460177 7.69088234,5.13629922 C7.66055652,4.99699387 7.6354913,4.85704059 7.61970949,4.71514351 C7.60949773,4.62281322 7.60114266,4.53048293 7.59309703,4.43782867 C7.57917191,4.28070519 7.5804097,4.12325775 7.58443251,3.96581031 C7.58690809,3.87477588 7.59495372,3.78374145 7.60392768,3.69335496 C7.61382999,3.59713707 7.62651733,3.50156712 7.6407519,3.40599717 C7.66519822,3.24142248 7.70202244,3.07943951 7.74720172,2.91940034 C7.80290221,2.72145716 7.86757667,2.52675363 7.95205575,2.33982529 C8.05324498,2.11628879 8.17857108,1.9089506 8.32989075,1.71910656 C8.49699222,1.50885267 8.68915891,1.32743175 8.9094853,1.17905535 C9.14095178,1.02290377 9.3903662,0.911459491 9.66020413,0.851849759 C9.73199588,0.835651462 9.8056443,0.826904382 9.87836439,0.816213506 C9.98698035,0.80001521 10.0965246,0.800663142 10.2051406,0.80714246 C10.4031868,0.818805234 10.5944251,0.865132362 10.7788557,0.941588322 C11.0821139,1.06663917 11.3417401,1.258427 11.5651609,1.50561301 C11.7576371,1.71813466 11.9101945,1.95884135 12.0318072,2.22190169 C12.1466121,2.47038356 12.2286156,2.73020424 12.2855539,2.99909596 C12.3134042,3.13030216 12.3356844,3.26248026 12.3502284,3.39595423 C12.3567268,3.45718379 12.3635346,3.51841335 12.3694141,3.57964291 C12.3709613,3.59389741 12.3697236,3.60847588 12.3697236,3.62597004" id="Fill-21" fill="#FFFFFF"></path>
                            <path d="M10.9812973,8.87489611 C11.0210336,8.84296766 11.057641,8.81367248 11.0942484,8.78404814 C11.2184634,8.68332538 11.3420525,8.58227347 11.4584453,8.4720051 C11.4703349,8.46081368 11.4800343,8.4598262 11.4941141,8.46640939 C11.6624457,8.54376183 11.836722,8.60202303 12.0166303,8.64053467 C12.1001703,8.65830928 12.1843361,8.67180481 12.2688148,8.68497118 C12.3689376,8.70109999 12.470312,8.7066957 12.5716864,8.70570822 C12.7835089,8.7034041 12.9912638,8.67246313 13.1921353,8.59774396 C13.473418,8.49274213 13.7071423,8.31697105 13.893934,8.07240568 C14.0000016,7.9338296 14.0872963,7.78307463 14.1517504,7.61816581 C14.1977443,7.50098509 14.2277812,7.37919613 14.2431125,7.25312811 C14.2518732,7.18071306 14.2571923,7.10796885 14.2559407,7.03489548 C14.2518732,6.82160024 14.2118241,6.61521734 14.1407994,6.41541763 C13.9743452,5.94702391 13.7108969,5.5480828 13.3607797,5.21102365 C13.1442641,5.00233664 12.9039692,4.82952799 12.6489688,4.6781147 C12.3902137,4.5243973 12.1192562,4.39997507 11.8357834,4.30682298 C11.6737095,4.25349917 11.5094454,4.20939182 11.3420525,4.17943833 C11.2669604,4.16594279 11.1915553,4.15244726 11.1161503,4.14191416 C11.0554508,4.13335602 10.9941256,4.12940611 10.9331132,4.12315208 C10.8170333,4.1116315 10.7009533,4.10570664 10.5842476,4.10702327 C10.5213579,4.10768159 10.4581554,4.1116315 10.3949528,4.11360646 C10.3752411,4.11426478 10.3639773,4.12315208 10.3549037,4.14257248 C10.26229,4.3390806 10.1136701,4.46416114 9.90904404,4.50366026 C9.57144226,4.56916297 9.26168716,4.34138471 9.19222692,4.00267977 C9.11869919,3.64225031 9.33521488,3.29794965 9.67375532,3.22487628 C9.93470053,3.16891919 10.1843819,3.29235394 10.3195478,3.51980304 C10.3233024,3.52638622 10.3279956,3.53231109 10.3304987,3.53922344 C10.3376951,3.55798552 10.3505233,3.56160627 10.3686706,3.56160627 C10.4691063,3.56061879 10.5698549,3.55864384 10.6702907,3.56127711 C10.7635301,3.56358123 10.8567695,3.57082273 10.9500089,3.5767476 C10.9997575,3.58003919 11.0491931,3.5839891 11.0986288,3.58958481 C11.1577639,3.59583884 11.2168989,3.60275119 11.2757211,3.61262597 C11.3652059,3.62743814 11.4543779,3.64356694 11.5432369,3.66134155 C11.7146973,3.69524496 11.8830289,3.74132726 12.0491702,3.79596771 C12.2900909,3.87529511 12.5228765,3.97470122 12.7472143,4.09583186 C13.2068408,4.34335967 13.6110869,4.66725245 13.9580752,5.06948514 C14.1060693,5.24097715 14.2427996,5.42168562 14.3579409,5.61983954 C14.5300271,5.91542461 14.6523647,6.23174672 14.7174445,6.57209747 C14.7371562,6.67578265 14.7502974,6.78045532 14.7574937,6.8857863 C14.7653158,6.99638384 14.7668802,7.10698137 14.7603096,7.21692059 C14.7452912,7.47399402 14.6936654,7.72250931 14.5857204,7.95555411 C14.5231436,8.0908386 14.4433582,8.21493166 14.3510574,8.32947911 C14.1082595,8.63098905 13.8094553,8.85218412 13.4659088,9.00787648 C13.295387,9.08522892 13.1189205,9.14184433 12.936822,9.17838101 C12.858601,9.19418066 12.7791285,9.2043846 12.6999688,9.21425938 C12.5698091,9.2310465 12.4393365,9.23697137 12.308551,9.23038818 C12.2437841,9.22742575 12.17933,9.2205134 12.114563,9.2149177 C12.0260168,9.20734703 11.9384093,9.19253486 11.8511147,9.17574774 C11.7243967,9.15138995 11.599556,9.11814485 11.4765926,9.07831658 C11.3123285,9.02532192 11.1527577,8.95949006 10.9969415,8.88345425 C10.992874,8.8814793 10.9891194,8.87917518 10.9812973,8.87489611" id="Fill-23" fill="#FFFFFF"></path>
                            <path d="M7.3069506,4.81722658 C7.31241272,4.83931373 7.31787485,4.86140087 7.32301568,4.88380355 C7.35964406,5.04314653 7.40044936,5.20122739 7.45089371,5.356784 C7.45764104,5.37697797 7.45731974,5.37697797 7.43579253,5.39338556 C7.19899326,5.57765546 6.99593066,5.79284737 6.82756863,6.03896129 C6.71414917,6.20429935 6.62257821,6.38036546 6.5599244,6.57063044 C6.52329602,6.68169723 6.4979132,6.79497274 6.48473983,6.91140355 C6.47542209,6.99375705 6.47156647,7.07611056 6.47606469,7.15846406 C6.48698894,7.35377753 6.53261377,7.54151828 6.61293917,7.72042416 C6.68298291,7.87755843 6.77069825,8.02396465 6.88443901,8.15459434 C7.02002828,8.31078202 7.18421339,8.43036814 7.37217482,8.51808566 C7.52832739,8.59097324 7.6918699,8.64019603 7.86280235,8.66512295 C7.94023603,8.67648205 8.01831231,8.68405479 8.0960673,8.69194305 C8.18538914,8.70140897 8.27471098,8.70487981 8.36435413,8.7017245 C8.44564343,8.69888473 8.52661143,8.69288965 8.60757943,8.68657903 C8.7634107,8.67458887 8.91635025,8.64587558 9.0676833,8.6080119 C9.31122991,8.54711448 9.54417356,8.4587659 9.76779946,8.34706804 C10.076249,8.19245802 10.3702399,8.01576085 10.643025,7.80561744 C10.97011,7.55382397 11.2512489,7.26006493 11.4780878,6.91739864 C11.5484529,6.81138033 11.6133558,6.7018912 11.6718327,6.58924675 C11.6862912,6.56148005 11.6875765,6.56526642 11.664764,6.54097056 C11.5747996,6.44378712 11.5188931,6.32988055 11.5037919,6.19988192 C11.4617014,5.83291977 11.7219557,5.56061681 12.0188384,5.50792319 C12.2990134,5.45775381 12.5717984,5.59500965 12.6987126,5.83449742 C12.7369474,5.90706947 12.7594386,5.98405895 12.7665072,6.06578139 C12.7809658,6.22859521 12.7379113,6.37531697 12.6360587,6.50405347 C12.5329209,6.63436764 12.3973317,6.71293477 12.2305761,6.73786169 C12.2109767,6.74070147 12.2006951,6.75048292 12.1923413,6.76689051 C12.1210123,6.9098259 12.0419721,7.04834386 11.955542,7.18275992 C11.7383421,7.52195538 11.4800156,7.82770458 11.1776708,8.09748329 C10.8608675,8.37988323 10.5087209,8.61053614 10.1228377,8.7922818 C9.80988997,8.93995015 9.48376886,9.05133247 9.14575959,9.12832195 C9.03105492,9.154511 8.91570765,9.17659814 8.80003908,9.19710764 C8.73288705,9.20878227 8.66444981,9.2131997 8.59665517,9.22077243 C8.45721028,9.23654897 8.31744409,9.23370919 8.1776779,9.23055389 C8.11855841,9.22929176 8.05976022,9.2214035 8.00064073,9.21603948 C7.90521416,9.20752015 7.81107279,9.19205915 7.71725273,9.17218071 C7.34679199,9.09424464 7.00621231,8.95162478 6.70804444,8.71876316 C6.45614399,8.52218756 6.27332339,8.27544259 6.1544418,7.9823146 C6.08793237,7.81823866 6.04070104,7.64911423 6.01435431,7.47462578 C6.00214485,7.39511205 5.99604012,7.3143362 5.99025669,7.23387589 C5.98607977,7.17771143 5.98511586,7.12091591 5.98575847,7.06443592 C5.98704367,6.95967974 5.99604012,6.8552391 6.01146259,6.75111398 C6.03491761,6.58987781 6.0741164,6.43274355 6.12938028,6.27939565 C6.23765891,5.97743281 6.39927361,5.70481432 6.60426402,5.45680722 C6.8025071,5.21700392 7.03255904,5.01033134 7.28542339,4.82763909 C7.28992161,4.82448378 7.29441984,4.82132848 7.29891806,4.8184887 C7.30020326,4.81754211 7.30245238,4.81785764 7.3069506,4.81722658" id="Fill-25" fill="#FFFFFF"></path>
                        </g>
                    </g>
                </g>
            </g>
        </g>
    </g>
</svg>
