<?xml version="1.0" encoding="UTF-8" standalone="no"?>
<svg width="34px" height="38px" viewBox="0 0 34 38" version="1.1" xmlns="http://www.w3.org/2000/svg" xmlns:xlink="http://www.w3.org/1999/xlink">
    <!-- Generator: sketchtool 40 (33762) - http://www.bohemiancoding.com/sketch -->
    <title>EBEF3BEF-2744-44D3-872D-1DE25B495DAE</title>
    <desc>Created with sketchtool.</desc>
    <defs></defs>
    <g id="Page-1" stroke="none" stroke-width="1" fill="none" fill-rule="evenodd">
        <g id="Mobile-Modules" transform="translate(-266.000000, -1179.000000)">
            <g id="Core" transform="translate(20.000000, 404.000000)">
                <g id="mods" transform="translate(0.000000, 161.000000)">
                    <g id="icn-confippet" transform="translate(246.000000, 614.000000)">
                        <path d="M14.7514077,0.814146514 C15.9016706,0.146052569 17.7653998,0.145346651 18.916878,0.814146514 L31.1961275,7.94616185 C32.3463904,8.61425579 33.2788626,10.2376354 33.2788626,11.5558925 L33.2788626,25.8586084 C33.2788626,27.1841137 32.3476058,28.7995392 31.1961275,29.4683391 L18.916878,36.6003544 C17.7666151,37.2684484 15.902886,37.2691543 14.7514077,36.6003544 L2.4721582,29.4683391 C1.32189535,28.8002452 0.389423077,27.1768655 0.389423077,25.8586084 L0.389423077,11.5558925 C0.389423077,10.2303873 1.32067997,8.61496171 2.4721582,7.94616185 L14.7514077,0.814146514 Z" id="Polygon" stroke="#CCCCCC" stroke-width="0.5" fill="#1F3F6B"></path>
                        <g id="Group-16" transform="translate(7.572115, 9.142371)" fill="#FFFFFF">
                            <path d="M2.82739685,11.9763399 L2.82739685,0 L1.96106469,0 L1.96106469,11.9763399 C0.847179945,12.1800751 0,13.1522814 0,14.3197001 C0,15.4871188 0.847179945,16.4593251 1.96106469,16.6632632 L1.96106469,18.4660352 L2.82739685,18.4660352 L2.82739685,16.6630602 C3.94128159,16.4591222 4.78846154,15.4869158 4.78846154,14.3194972 C4.78846154,13.1520785 3.94128159,12.1798722 2.82739685,11.9763399 L2.82739685,11.9763399 Z M2.39423077,15.8412202 C1.551737,15.8412202 0.866332162,15.1587886 0.866332162,14.3194972 C0.866332162,13.4804086 1.551737,12.7977741 2.39423077,12.7977741 C3.23672453,12.7977741 3.92212938,13.4804086 3.92212938,14.3194972 C3.92212938,15.1587886 3.23672453,15.8412202 2.39423077,15.8412202 L2.39423077,15.8412202 Z" id="Shape"></path>
                            <path d="M9.21201223,3.18630423 L9.21201223,0 L8.34568007,0 L8.34568007,3.18630423 C7.23179533,3.39003939 6.38461538,4.36224571 6.38461538,5.52966439 C6.38461538,6.69708308 7.23179533,7.6692894 8.34568007,7.87302456 L8.34568007,18.4660352 L9.21201223,18.4660352 L9.21201223,7.87302456 C10.325897,7.6692894 11.1730769,6.69708308 11.1730769,5.52966439 C11.1730769,4.36224571 10.325897,3.39003939 9.21201223,3.18630423 L9.21201223,3.18630423 Z M8.77884615,7.05138745 C7.93635239,7.05138745 7.25094755,6.36875292 7.25094755,5.52966439 C7.25094755,4.69057587 7.93635239,4.00794134 8.77884615,4.00794134 C9.62133992,4.00794134 10.3067448,4.69057587 10.3067448,5.52966439 C10.3067448,6.36875292 9.62133992,7.05138745 8.77884615,7.05138745 L8.77884615,7.05138745 Z" id="Shape"></path>
                            <path d="M17.5576923,12.0114457 C17.5576923,10.844027 16.7105124,9.87182068 15.5966276,9.66788259 L15.5966276,0 L14.7302955,0 L14.7302955,9.66808552 C13.6164107,9.8720236 12.7692308,10.8442299 12.7692308,12.0116486 C12.7692308,13.1790673 13.6164107,14.1512736 14.7302955,14.3552117 L14.7302955,18.4660352 L15.5966276,18.4660352 L15.5966276,14.3550088 C16.7105124,14.1510707 17.5576923,13.1788644 17.5576923,12.0114457 L17.5576923,12.0114457 Z M15.1634615,13.5331687 C14.3209678,13.5331687 13.6355629,12.8505342 13.6355629,12.0114457 C13.6355629,11.1723572 14.3209678,10.4897226 15.1634615,10.4897226 C16.0059553,10.4897226 16.6913601,11.1723572 16.6913601,12.0114457 C16.6913601,12.8505342 16.0059553,13.5331687 15.1634615,13.5331687 L15.1634615,13.5331687 Z" id="Shape"></path>
                        </g>
                    </g>
                </g>
            </g>
        </g>
    </g>
</svg>