<?xml version="1.0" encoding="UTF-8" standalone="no"?>
<svg width="35px" height="39px" viewBox="0 0 35 39" version="1.1" xmlns="http://www.w3.org/2000/svg" xmlns:xlink="http://www.w3.org/1999/xlink">
    <!-- Generator: sketchtool 40 (33762) - http://www.bohemiancoding.com/sketch -->
    <title>3085B5F6-B159-4961-AA8B-20B7D2767FD8</title>
    <desc>Created with sketchtool.</desc>
    <defs></defs>
    <g id="Page-1" stroke="none" stroke-width="1" fill="none" fill-rule="evenodd">
        <g id="Mobile-Modules" transform="translate(-266.000000, -786.000000)">
            <g id="Core" transform="translate(20.000000, 404.000000)">
                <g id="mods" transform="translate(0.000000, 161.000000)">
                    <g id="icn-atf" transform="translate(247.000000, 222.000000)">
                        <path d="M14.4667458,0.717270072 C15.6083453,0.0531165329 17.4654863,0.0567482682 18.6008433,0.717270072 L30.919145,7.8837444 C32.0607445,8.54789794 32.9861938,10.1703699 32.9861938,11.4914135 L32.9861938,25.8243621 C32.9861938,27.1526692 32.054502,28.7715094 30.919145,29.4320312 L18.6008433,36.5985055 C17.4592438,37.2626591 15.6021028,37.2590273 14.4667458,36.5985055 L2.14844413,29.4320312 C1.00684461,28.7678777 0.0813953488,27.1454057 0.0813953488,25.8243621 L0.0813953488,11.4914135 C0.0813953488,10.1631064 1.01308712,8.5442662 2.14844413,7.8837444 L14.4667458,0.717270072 Z" id="Polygon" stroke="#CCCCCC" stroke-width="0.5" fill="#5F1F6B"></path>
                        <g id="Group-10" transform="translate(2.476744, 9.072790)" fill="#FFFFFF">
                            <path d="M11.8379957,1.20685228 L13.7120879,1.20685228 C13.8561554,1.20685228 13.9728682,1.11683066 13.9728682,1.00571023 C13.9728682,0.894589802 13.8561554,0.804568187 13.7120879,0.804568187 L11.8379957,0.804568187 C11.6939283,0.804568187 11.5775194,0.894589802 11.5775194,1.00571023 C11.5775194,1.11683066 11.6939283,1.20685228 11.8379957,1.20685228 L11.8379957,1.20685228 Z" id="Fill-1"></path>
                            <path d="M12.3758262,17.6091929 C12.2058825,17.6091929 12.067357,17.4696059 12.067357,17.2983599 C12.067357,17.1268262 12.2058825,16.9872391 12.3758262,16.9872391 C12.5460555,16.9872391 12.6842954,17.1268262 12.6842954,17.2983599 C12.6842954,17.4696059 12.5457698,17.6091929 12.3758262,17.6091929 M12.3758262,16.4936478 C11.9356864,16.4936478 11.5775194,16.8545595 11.5775194,17.2983599 C11.5775194,17.7421604 11.9356864,18.1027842 12.3758262,18.1027842 C12.8162516,18.1027842 13.1744186,17.7418726 13.1744186,17.2983599 C13.1744186,16.8545595 12.8162516,16.4936478 12.3758262,16.4936478" id="Fill-3"></path>
                            <path d="M16.6472133,10.3180384 L17.2818258,10.3180384 L17.2818258,9.44217722 L16.6472133,9.44217722 L16.6472133,10.3180384 Z M14.6606487,13.9065479 L25.0740118,13.9065479 L25.0740118,10.7935139 L14.6606487,10.7935139 L14.6606487,13.9065479 Z M17.2818258,15.7959808 L7.66214466,15.7959808 L7.66214466,2.72096078 L17.2818258,2.72096078 L17.2818258,2.87723592 L14.4224608,2.87723592 C14.2908745,2.87723592 14.1842729,2.98363601 14.1842729,3.11497363 L14.1842729,3.19227995 L8.53494501,3.19227995 C8.4033587,3.19227995 8.29675713,3.29868004 8.29675713,3.43001766 L8.29675713,6.85283115 C8.29675713,6.98416877 8.4033587,7.09056886 8.53494501,7.09056886 L14.1842729,7.09056886 L14.1842729,7.44495876 L8.53494501,7.44495876 C8.4033587,7.44495876 8.29675713,7.55108178 8.29675713,7.68241939 L8.29675713,12.0858317 C8.29675713,12.2171693 8.4033587,12.3232923 8.53494501,12.3232923 L14.1842729,12.3232923 L14.1842729,12.7009572 L8.53494501,12.7009572 C8.4033587,12.7009572 8.29675713,12.8073573 8.29675713,12.9386949 L8.29675713,15.0201468 C8.29675713,15.1512073 8.4033587,15.2576074 8.53494501,15.2576074 L16.4093031,15.2576074 C16.5408894,15.2576074 16.6472133,15.1512073 16.6472133,15.0201468 L16.6472133,14.3820233 L17.2818258,14.3820233 L17.2818258,15.7959808 Z M16.7663073,18.432154 L8.17766319,18.432154 C7.89339234,18.432154 7.66214466,18.2013434 7.66214466,17.9173327 L7.66214466,16.2714563 L17.2818258,16.2714563 L17.2818258,17.9173327 C17.2818258,18.2013434 17.0505781,18.432154 16.7663073,18.432154 L16.7663073,18.432154 Z M8.17766319,0.475475427 L16.7663073,0.475475427 C17.0505781,0.475475427 17.2818258,0.70628605 17.2818258,0.990019638 L17.2818258,2.24576243 L7.66214466,2.24576243 L7.66214466,0.990019638 C7.66214466,0.70628605 7.89339234,0.475475427 8.17766319,0.475475427 L8.17766319,0.475475427 Z M14.1842729,4.22691004 L9.48852935,4.22691004 C9.35722065,4.22691004 9.25061908,4.33331014 9.25061908,4.46464776 C9.25061908,4.59598537 9.35722065,4.70238547 9.48852935,4.70238547 L14.1842729,4.70238547 L14.1842729,6.61509344 L8.77285528,6.61509344 L8.77285528,3.66747829 L14.1842729,3.66747829 L14.1842729,4.22691004 Z M14.4224608,14.3820233 L16.1711152,14.3820233 L16.1711152,14.7824091 L8.77285528,14.7824091 L8.77285528,13.1764327 L14.1842729,13.1764327 L14.1842729,14.1442856 C14.1842729,14.2756232 14.2908745,14.3820233 14.4224608,14.3820233 L14.4224608,14.3820233 Z M14.4224608,10.3180384 C14.2908745,10.3180384 14.1842729,10.4247156 14.1842729,10.5557761 L14.1842729,11.848094 L8.77285528,11.848094 L8.77285528,7.92015711 L14.1842729,7.92015711 L14.1842729,8.5228139 L9.48852935,8.5228139 C9.35722065,8.5228139 9.25061908,8.62893691 9.25061908,8.76055161 C9.25061908,8.89161215 9.35722065,8.99801224 9.48852935,8.99801224 L14.1842729,8.99801224 L14.1842729,9.20443951 C14.1842729,9.33550004 14.2908745,9.44217722 14.4224608,9.44217722 L16.1711152,9.44217722 L16.1711152,10.3180384 L14.4224608,10.3180384 Z M14.6606487,8.9667018 L25.0740118,8.9667018 L25.0740118,3.35243426 L14.6606487,3.35243426 L14.6606487,8.9667018 Z M25.3121997,9.44190014 C25.443786,9.44190014 25.5503876,9.33550004 25.5503876,9.20443951 L25.5503876,3.11497363 C25.5503876,2.98363601 25.443786,2.87723592 25.3121997,2.87723592 L17.7582016,2.87723592 L17.7582016,0.990019638 C17.7582016,0.444164982 17.3134732,0 16.7663073,0 L8.17766319,0 C7.63077493,0 7.18604651,0.444164982 7.18604651,0.990019638 L7.18604651,17.9173327 C7.18604651,18.4631874 7.63077493,18.9073524 8.17766319,18.9073524 L16.7663073,18.9073524 C17.3134732,18.9073524 17.7582016,18.4634645 17.7582016,17.9173327 L17.7582016,14.3820233 L25.3121997,14.3820233 C25.443786,14.3820233 25.5503876,14.2756232 25.5503876,14.1442856 L25.5503876,10.5557761 C25.5503876,10.4244385 25.443786,10.3180384 25.3121997,10.3180384 L17.7582016,10.3180384 L17.7582016,9.44190014 L25.3121997,9.44190014 Z" id="Fill-11"></path>
                            <path d="M15.809183,4.42512503 L24.1132977,4.42512503 C24.2457165,4.42512503 24.3527132,4.33510341 24.3527132,4.22421741 C24.3527132,4.11309698 24.2457165,4.02284093 24.1132977,4.02284093 L15.809183,4.02284093 C15.6770435,4.02284093 15.5697674,4.11309698 15.5697674,4.22421741 C15.5697674,4.33510341 15.6770435,4.42512503 15.809183,4.42512503" id="Fill-13"></path>
                            <path d="M15.7951398,6.0342614 L19.735605,6.0342614 C19.8602567,6.0342614 19.9612403,5.94423978 19.9612403,5.83335378 C19.9612403,5.72199892 19.8602567,5.63197731 19.735605,5.63197731 L15.7951398,5.63197731 C15.6707511,5.63197731 15.5697674,5.72199892 15.5697674,5.83335378 C15.5697674,5.94423978 15.6707511,6.0342614 15.7951398,6.0342614" id="Fill-14"></path>
                            <path d="M15.809183,11.6662387 L24.1132977,11.6662387 C24.2457165,11.6662387 24.3527132,11.5761646 24.3527132,11.4652139 C24.3527132,11.3540287 24.2457165,11.2639546 24.1132977,11.2639546 L15.809183,11.2639546 C15.6770435,11.2639546 15.5697674,11.3540287 15.5697674,11.4652139 C15.5697674,11.5761646 15.6770435,11.6662387 15.809183,11.6662387" id="Fill-15"></path>
                            <path d="M15.7951398,12.873091 L19.735605,12.873091 C19.8602567,12.873091 19.9612403,12.7830694 19.9612403,12.6721834 C19.9612403,12.5610629 19.8602567,12.4708069 19.735605,12.4708069 L15.7951398,12.4708069 C15.6707511,12.4708069 15.5697674,12.5610629 15.5697674,12.6721834 C15.5697674,12.7830694 15.6707511,12.873091 15.7951398,12.873091" id="Fill-16"></path>
                            <path d="M15.8074235,7.24111368 L21.7194309,7.24111368 C21.8508767,7.24111368 21.9573643,7.15109206 21.9573643,7.03997163 C21.9573643,6.9288512 21.8508767,6.83882959 21.7194309,6.83882959 L15.8074235,6.83882959 C15.6762551,6.83882959 15.5697674,6.9288512 15.5697674,7.03997163 C15.5697674,7.15109206 15.6762551,7.24111368 15.8074235,7.24111368" id="Fill-17"></path>
                            <path d="M11.751061,13.6776592 L9.40811704,13.6776592 C9.28329345,13.6776592 9.18217054,13.7679152 9.18217054,13.8788012 C9.18217054,13.9899216 9.28329345,14.0799433 9.40811704,14.0799433 L11.751061,14.0799433 C11.8758846,14.0799433 11.9767442,13.9899216 11.9767442,13.8788012 C11.9767442,13.7679152 11.8758846,13.6776592 11.751061,13.6776592" id="Fill-18"></path>
                            <polygon id="Fill-19" points="0 9.65481824 1.19767442 9.65481824 1.19767442 8.85025005 0 8.85025005"></polygon>
                            <polygon id="Fill-23" points="1.99612403 9.65481824 3.19379845 9.65481824 3.19379845 8.85025005 1.99612403 8.85025005"></polygon>
                            <polygon id="Fill-24" points="3.59302326 9.65481824 4.79069767 9.65481824 4.79069767 8.85025005 3.59302326 8.85025005"></polygon>
                            <polygon id="Fill-25" points="24.3527132 9.65481824 25.9496124 9.65481824 25.9496124 8.85025005 24.3527132 8.85025005"></polygon>
                            <polygon id="Fill-26" points="26.748062 9.65481824 27.9457364 9.65481824 27.9457364 8.85025005 26.748062 8.85025005"></polygon>
                            <polygon id="Fill-31" points="5.58914729 9.65481824 6.78682171 9.65481824 6.78682171 8.85025005 5.58914729 8.85025005"></polygon>
                        </g>
                    </g>
                </g>
            </g>
        </g>
    </g>
</svg>
