<?xml version="1.0" encoding="UTF-8" standalone="no"?>
<svg width="35px" height="38px" viewBox="0 0 35 38" version="1.1" xmlns="http://www.w3.org/2000/svg" xmlns:xlink="http://www.w3.org/1999/xlink">
    <!-- Generator: sketchtool 40 (33762) - http://www.bohemiancoding.com/sketch -->
    <title>303277E4-E528-4F6B-B510-0E38AAB21BBF</title>
    <desc>Created with sketchtool.</desc>
    <defs>
        <rect id="path-1" x="12.5714286" y="6.48497854" width="10" height="10.2145923" rx="0.612"></rect>
        <mask id="mask-2" maskContentUnits="userSpaceOnUse" maskUnits="objectBoundingBox" x="0" y="0" width="10" height="10.2145923" fill="white">
            <use xlink:href="#path-1"></use>
        </mask>
    </defs>
    <g id="Page-1" stroke="none" stroke-width="1" fill="none" fill-rule="evenodd">
        <g id="Mobile-Modules" transform="translate(-265.000000, -1330.000000)">
            <g id="Core" transform="translate(20.000000, 404.000000)">
                <g id="mods" transform="translate(0.000000, 161.000000)">
                    <g id="icn-csrf" transform="translate(246.000000, 765.000000)">
                        <path d="M14.550862,0.814146514 C15.701662,0.146052569 17.5662615,0.145346651 18.7182775,0.814146514 L31.0032612,7.94616185 C32.1540612,8.61425579 33.086969,10.2376354 33.086969,11.5558925 L33.086969,25.8586084 C33.086969,27.1841137 32.1552772,28.7995392 31.0032612,29.4683391 L18.7182775,36.6003544 C17.5674775,37.2684484 15.702878,37.2691543 14.550862,36.6003544 L2.26587827,29.4683391 C1.11507827,28.8002452 0.182170543,27.1768655 0.182170543,25.8586084 L0.182170543,11.5558925 C0.182170543,10.2303873 1.11386232,8.61496171 2.26587827,7.94616185 L14.550862,0.814146514 Z" id="Polygon" stroke="#CCCCCC" stroke-width="0.5" fill="#6B4F1F"></path>
                        <g id="Group-14" transform="translate(5.000000, 7.005722)">
                            <g id="arrow" transform="translate(12.714286, 3.148069) scale(-1, 1) translate(-12.714286, -3.148069) translate(4.714286, 0.648069)" fill="#FFFFFF">
                                <path d="M14.7242314,2.48361803 C14.0061213,1.08091416 12.5796629,0.180828326 10.9662031,0.180828326 C9.01229687,0.180828326 7.27406771,1.44082833 6.74143378,3.24370386 C6.69140402,3.41134335 6.78810789,3.58499142 6.95863616,3.6342618 C7.12855432,3.68353219 7.30518378,3.58649356 7.35521354,3.42035622 C7.80182068,1.90829614 9.32010193,0.811429185 10.9662031,0.811429185 C12.4265231,0.811429185 13.7047225,1.68237339 14.2699978,3.01748069 L12.8066272,3.01748069 L12.8066272,3.6465794 L15.3648564,3.6465794 L15.3648564,1.12687983 L14.7242314,1.12687983 L14.7242314,2.48361803 Z" id="Fill-3"></path>
                                <polygon id="Fill-53" points="5.59023065 3.64892275 7.13444196 3.64892275 7.13444196 3.05737768 5.59023065 3.05737768"></polygon>
                                <polygon id="Fill-55" points="3.4359003 3.64892275 4.98011161 3.64892275 4.98011161 3.05737768 3.4359003 3.05737768"></polygon>
                                <polygon id="Fill-63" points="1.29560268 3.64892275 2.83981399 3.64892275 2.83981399 3.05737768 1.29560268 3.05737768"></polygon>
                                <polygon id="Fill-64" transform="translate(1.380022, 4.065107) rotate(-270.000000) translate(-1.380022, -4.065107) " points="0.607916639 4.15665236 2.15212795 4.15665236 2.15212795 3.5651073 0.607916639 3.5651073"></polygon>
                            </g>
                            <g id="arrow" transform="translate(12.071429, 20.036481) scale(1, -1) translate(-12.071429, -20.036481) translate(4.071429, 17.536481)" fill="#FFFFFF">
                                <path d="M14.7242314,2.48361803 C14.0061213,1.08091416 12.5796629,0.180828326 10.9662031,0.180828326 C9.01229688,0.180828326 7.27406771,1.44082833 6.74143378,3.24370386 C6.69140402,3.41134335 6.78810789,3.58499142 6.95863616,3.6342618 C7.12855432,3.68353219 7.30518378,3.58649356 7.35521354,3.42035622 C7.80182068,1.90829614 9.32010193,0.811429185 10.9662031,0.811429185 C12.4265231,0.811429185 13.7047225,1.68237339 14.2699978,3.01748069 L12.8066272,3.01748069 L12.8066272,3.6465794 L15.3648564,3.6465794 L15.3648564,1.12687983 L14.7242314,1.12687983 L14.7242314,2.48361803 Z" id="Fill-3"></path>
                                <polygon id="Fill-53" points="5.59023065 3.64892275 7.13444196 3.64892275 7.13444196 3.05737768 5.59023065 3.05737768"></polygon>
                                <polygon id="Fill-55" points="3.4359003 3.64892275 4.98011161 3.64892275 4.98011161 3.05737768 3.4359003 3.05737768"></polygon>
                                <polygon id="Fill-63" points="1.29560268 3.64892275 2.83981399 3.64892275 2.83981399 3.05737768 1.29560268 3.05737768"></polygon>
                                <polygon id="Fill-64" transform="translate(1.380022, 4.065107) rotate(-270.000000) translate(-1.380022, -4.065107) " points="0.607916639 4.15665236 2.15212795 4.15665236 2.15212795 3.5651073 0.607916639 3.5651073"></polygon>
                            </g>
                            <g id="server" transform="translate(0.785714, 6.484979)" fill="#FFFFFF">
                                <path d="M0.76831381,3.28928826 C0.528156142,3.28928826 0.333773066,3.08736076 0.333773066,2.83788207 L0.333773066,0.798133693 C0.333773066,0.54848989 0.528156142,0.346727504 0.76831381,0.346727504 L9.23152725,0.346727504 C9.47184386,0.346727504 9.66622693,0.54848989 9.66622693,0.798133693 L9.66622693,2.83788207 C9.66622693,3.08736076 9.47184386,3.28928826 9.23152725,3.28928826 L0.76831381,3.28928826 Z M10,2.83788207 L10,0.798133693 C10,0.357459546 9.65573692,0 9.23152725,0 L0.76831381,0 C0.344104137,0 0,0.357459546 0,0.798133693 L0,2.83788207 C0,3.09231401 0.117138452,3.31636602 0.296263331,3.46265201 C0.117138452,3.60893799 0,3.83299001 0,4.08742195 L0,6.12717032 C0,6.38176738 0.117138452,6.60565428 0.296263331,6.75194027 C0.117138452,6.89822625 0,7.12227826 0,7.37671021 L0,9.4167888 C0,9.85713273 0.344104137,10.2145923 0.76831381,10.2145923 L4.66614746,10.2145923 L4.66614746,9.86902053 L0.76831381,9.86902053 C0.528156142,9.86902053 0.333773066,9.66610238 0.333773066,9.4167888 L0.333773066,7.37671021 C0.333773066,7.12838727 0.528156142,6.92530402 0.76831381,6.92530402 L4.99992053,6.92530402 L4.99992053,6.57857651 L0.76831381,6.57857651 C0.528156142,6.57857651 0.333773066,6.37664902 0.333773066,6.12717032 L0.333773066,4.08742195 C0.333773066,3.83794326 0.528156142,3.63601576 0.76831381,3.63601576 L9.23152725,3.63601576 C9.47184386,3.63601576 9.66622693,3.83794326 9.66622693,4.08742195 L9.66622693,5.36734177 L10,5.36734177 L10,4.08742195 C10,3.83299001 9.88286155,3.60893799 9.70373667,3.46265201 C9.88286155,3.31636602 10,3.09231401 10,2.83788207 L10,2.83788207 Z" id="Fill-27"></path>
                                <path d="M0.76831381,3.28928826 C0.528156142,3.28928826 0.333773066,3.08736076 0.333773066,2.83788207 L0.333773066,0.798133693 C0.333773066,0.54848989 0.528156142,0.346727504 0.76831381,0.346727504 L9.23152725,0.346727504 C9.47184386,0.346727504 9.66622693,0.54848989 9.66622693,0.798133693 L9.66622693,2.83788207 C9.66622693,3.08736076 9.47184386,3.28928826 9.23152725,3.28928826 L0.76831381,3.28928826 Z M10,2.83788207 L10,0.798133693 C10,0.357459546 9.65573692,0 9.23152725,0 L0.76831381,0 C0.344104137,0 0,0.357459546 0,0.798133693 L0,2.83788207 C0,3.09231401 0.117138452,3.31636602 0.296263331,3.46265201 C0.117138452,3.60893799 0,3.83299001 0,4.08742195 L0,6.12717032 C0,6.38176738 0.117138452,6.60565428 0.296263331,6.75194027 C0.117138452,6.89822625 0,7.12227826 0,7.37671021 L0,9.4167888 C0,9.85713273 0.344104137,10.2145923 0.76831381,10.2145923 L4.66614746,10.2145923 L4.66614746,9.86902053 L0.76831381,9.86902053 C0.528156142,9.86902053 0.333773066,9.66610238 0.333773066,9.4167888 L0.333773066,7.37671021 C0.333773066,7.12838727 0.528156142,6.92530402 0.76831381,6.92530402 L4.99992053,6.92530402 L4.99992053,6.57857651 L0.76831381,6.57857651 C0.528156142,6.57857651 0.333773066,6.37664902 0.333773066,6.12717032 L0.333773066,4.08742195 C0.333773066,3.83794326 0.528156142,3.63601576 0.76831381,3.63601576 L9.23152725,3.63601576 C9.47184386,3.63601576 9.66622693,3.83794326 9.66622693,4.08742195 L9.66622693,5.36734177 L10,5.36734177 L10,4.08742195 C10,3.83299001 9.88286155,3.60893799 9.70373667,3.46265201 C9.88286155,3.31636602 10,3.09231401 10,2.83788207 L10,2.83788207 Z" id="Fill-27" transform="translate(5.000000, 5.107296) scale(-1, 1) translate(-5.000000, -5.107296) "></path>
                                <path d="M2.08704253,5.10778819 C2.08704253,5.34446489 1.89885288,5.53784106 1.66618495,5.53784106 C1.43431988,5.53784106 1.2451668,5.34446489 1.2451668,5.10778819 C1.2451668,4.86996337 1.43431988,4.67773531 1.66618495,4.67773531 C1.89885288,4.67773531 2.08704253,4.86996337 2.08704253,5.10778819 M0.909090909,5.10778819 C0.909090909,5.5343967 1.2485388,5.88112889 1.66618495,5.88112889 C2.08479453,5.88112889 2.42424242,5.5343967 2.42424242,5.10778819 C2.42424242,4.68019557 2.08479453,4.33346339 1.66618495,4.33346339 C1.2485388,4.33346339 0.909090909,4.68019557 0.909090909,5.10778819" id="Fill-29"></path>
                                <path d="M8.48484848,4.79724542 C8.48484848,4.88376089 8.41673882,4.95252959 8.33333333,4.95252959 C8.24992785,4.95252959 8.18181818,4.88376089 8.18181818,4.79724542 C8.18181818,4.71176519 8.24992785,4.64299649 8.33333333,4.64299649 C8.41673882,4.64299649 8.48484848,4.71176519 8.48484848,4.79724542" id="Fill-31"></path>
                                <path d="M7.87878788,4.79724542 C7.87878788,4.88376089 7.81067821,4.95252959 7.72727273,4.95252959 C7.64372294,4.95252959 7.57575758,4.88376089 7.57575758,4.79724542 C7.57575758,4.71176519 7.64372294,4.64299649 7.72727273,4.64299649 C7.81067821,4.64299649 7.87878788,4.71176519 7.87878788,4.79724542" id="Fill-33"></path>
                                <path d="M9.09090909,5.41682924 C9.09090909,5.50202454 9.02358511,5.57159579 8.93990068,5.57159579 C8.85520277,5.57159579 8.78787879,5.50202454 8.78787879,5.41682924 C8.78787879,5.33148654 8.85520277,5.26206269 8.93990068,5.26206269 C9.02358511,5.26206269 9.09090909,5.33148654 9.09090909,5.41682924" id="Fill-35"></path>
                                <path d="M8.18181818,5.41682924 C8.18181818,5.50202454 8.1144942,5.57159579 8.02979629,5.57159579 C7.94611186,5.57159579 7.87878788,5.50202454 7.87878788,5.41682924 C7.87878788,5.33148654 7.94611186,5.26206269 8.02979629,5.26206269 C8.1144942,5.26206269 8.18181818,5.33148654 8.18181818,5.41682924" id="Fill-37"></path>
                                <path d="M7.27272727,4.79724542 C7.27272727,4.88376089 7.20540329,4.95252959 7.12171886,4.95252959 C7.03702095,4.95252959 6.96969697,4.88376089 6.96969697,4.79724542 C6.96969697,4.71176519 7.03702095,4.64299649 7.12171886,4.64299649 C7.20540329,4.64299649 7.27272727,4.71176519 7.27272727,4.79724542" id="Fill-39"></path>
                                <path d="M7.57575758,5.41682924 C7.57575758,5.50202454 7.50779221,5.57159579 7.42424242,5.57159579 C7.34083694,5.57159579 7.27272727,5.50202454 7.27272727,5.41682924 C7.27272727,5.33148654 7.34083694,5.26206269 7.42424242,5.26206269 C7.50779221,5.26206269 7.57575758,5.33148654 7.57575758,5.41682924" id="Fill-41"></path>
                                <path d="M6.66666667,4.79724542 C6.66666667,4.88376089 6.59934269,4.95252959 6.51464478,4.95252959 C6.43096034,4.95252959 6.36363636,4.88376089 6.36363636,4.79724542 C6.36363636,4.71176519 6.43096034,4.64299649 6.51464478,4.64299649 C6.59934269,4.64299649 6.66666667,4.71176519 6.66666667,4.79724542" id="Fill-43"></path>
                                <path d="M6.96969697,5.41682924 C6.96969697,5.50202454 6.9015873,5.57159579 6.81818182,5.57159579 C6.73477633,5.57159579 6.66666667,5.50202454 6.66666667,5.41682924 C6.66666667,5.33148654 6.73477633,5.26206269 6.81818182,5.26206269 C6.9015873,5.26206269 6.96969697,5.33148654 6.96969697,5.41682924" id="Fill-45"></path>
                                <path d="M5.75757576,4.79724542 C5.75757576,4.88376089 5.68961039,4.95252959 5.60606061,4.95252959 C5.52265512,4.95252959 5.45454545,4.88376089 5.45454545,4.79724542 C5.45454545,4.71176519 5.52265512,4.64299649 5.60606061,4.64299649 C5.68961039,4.64299649 5.75757576,4.71176519 5.75757576,4.79724542" id="Fill-47"></path>
                                <path d="M6.36363636,5.41682924 C6.36363636,5.50202454 6.2955267,5.57159579 6.21212121,5.57159579 C6.12857143,5.57159579 6.06060606,5.50202454 6.06060606,5.41682924 C6.06060606,5.33148654 6.12857143,5.26206269 6.21212121,5.26206269 C6.2955267,5.26206269 6.36363636,5.33148654 6.36363636,5.41682924" id="Fill-49"></path>
                                <path d="M2.08704253,8.51265228 C2.08704253,8.74932898 1.89885288,8.94270516 1.66618495,8.94270516 C1.43431988,8.94270516 1.2451668,8.74932898 1.2451668,8.51265228 C1.2451668,8.27482746 1.43431988,8.08276342 1.66618495,8.08276342 C1.89885288,8.08276342 2.08704253,8.27482746 2.08704253,8.51265228 M0.909090909,8.51265228 C0.909090909,8.9392608 1.2485388,9.28599298 1.66618495,9.28599298 C2.08479453,9.28599298 2.42424242,8.9392608 2.42424242,8.51265228 C2.42424242,8.08587975 2.08479453,7.73832748 1.66618495,7.73832748 C1.2485388,7.73832748 0.909090909,8.08587975 0.909090909,8.51265228" id="Fill-51"></path>
                                <g id="Group-4" transform="translate(0.909091, 0.928599)">
                                    <path d="M0.757094043,1.20322955 C0.525389546,1.20322955 0.336075892,1.0110015 0.336075892,0.77317668 C0.336075892,0.536499983 0.525389546,0.343287821 0.757094043,0.343287821 C0.98992254,0.343287821 1.17795162,0.536499983 1.17795162,0.77317668 C1.17795162,1.0110015 0.98992254,1.20322955 0.757094043,1.20322955 M0.757094043,0 C0.339447891,0 2.22044605e-16,0.346732181 2.22044605e-16,0.77317668 C2.22044605e-16,1.20093332 0.339447891,1.5476655 0.757094043,1.5476655 C1.17570362,1.5476655 1.51515152,1.20093332 1.51515152,0.77317668 C1.51515152,0.346732181 1.17570362,0 0.757094043,0" id="Fill-5"></path>
                                    <path d="M7.57575758,0.464299649 C7.57575758,0.549642346 7.50764791,0.619066198 7.42424242,0.619066198 C7.34083694,0.619066198 7.27272727,0.549642346 7.27272727,0.464299649 C7.27272727,0.379104348 7.34083694,0.309533099 7.42424242,0.309533099 C7.50764791,0.309533099 7.57575758,0.379104348 7.57575758,0.464299649" id="Fill-7"></path>
                                    <path d="M6.96969697,0.464299649 C6.96969697,0.549642346 6.9015873,0.619066198 6.81818182,0.619066198 C6.73463203,0.619066198 6.66666667,0.549642346 6.66666667,0.464299649 C6.66666667,0.379104348 6.73463203,0.309533099 6.81818182,0.309533099 C6.9015873,0.309533099 6.96969697,0.379104348 6.96969697,0.464299649" id="Fill-9"></path>
                                    <path d="M8.18181818,1.08388346 C8.18181818,1.1693637 8.1144942,1.2381324 8.03080977,1.2381324 C7.94611186,1.2381324 7.87878788,1.1693637 7.87878788,1.08388346 C7.87878788,0.997367999 7.94611186,0.928599298 8.03080977,0.928599298 C8.1144942,0.928599298 8.18181818,0.997367999 8.18181818,1.08388346" id="Fill-11"></path>
                                    <path d="M7.27272727,1.08388346 C7.27272727,1.1693637 7.20540329,1.2381324 7.12070538,1.2381324 C7.03702095,1.2381324 6.96969697,1.1693637 6.96969697,1.08388346 C6.96969697,0.997367999 7.03702095,0.928599298 7.12070538,0.928599298 C7.20540329,0.928599298 7.27272727,0.997367999 7.27272727,1.08388346" id="Fill-13"></path>
                                    <path d="M6.36363636,0.464299649 C6.36363636,0.549642346 6.29631238,0.619066198 6.21262795,0.619066198 C6.12793004,0.619066198 6.06060606,0.549642346 6.06060606,0.464299649 C6.06060606,0.379104348 6.12793004,0.309533099 6.21262795,0.309533099 C6.29631238,0.309533099 6.36363636,0.379104348 6.36363636,0.464299649" id="Fill-15"></path>
                                    <path d="M6.66666667,1.08388346 C6.66666667,1.1693637 6.5987013,1.2381324 6.51515152,1.2381324 C6.43174603,1.2381324 6.36363636,1.1693637 6.36363636,1.08388346 C6.36363636,0.997367999 6.43174603,0.928599298 6.51515152,0.928599298 C6.5987013,0.928599298 6.66666667,0.997367999 6.66666667,1.08388346" id="Fill-17"></path>
                                    <path d="M5.75757576,0.464299649 C5.75757576,0.549642346 5.69025178,0.619066198 5.60555387,0.619066198 C5.52186943,0.619066198 5.45454545,0.549642346 5.45454545,0.464299649 C5.45454545,0.379104348 5.52186943,0.309533099 5.60555387,0.309533099 C5.69025178,0.309533099 5.75757576,0.379104348 5.75757576,0.464299649" id="Fill-19"></path>
                                    <path d="M6.06060606,1.08388346 C6.06060606,1.1693637 5.99249639,1.2381324 5.90909091,1.2381324 C5.82568543,1.2381324 5.75757576,1.1693637 5.75757576,1.08388346 C5.75757576,0.997367999 5.82568543,0.928599298 5.90909091,0.928599298 C5.99249639,0.928599298 6.06060606,0.997367999 6.06060606,1.08388346" id="Fill-21"></path>
                                    <path d="M4.84848485,0.464299649 C4.84848485,0.549642346 4.78051948,0.619066198 4.6969697,0.619066198 C4.61356421,0.619066198 4.54545455,0.549642346 4.54545455,0.464299649 C4.54545455,0.379104348 4.61356421,0.309533099 4.6969697,0.309533099 C4.78051948,0.309533099 4.84848485,0.379104348 4.84848485,0.464299649" id="Fill-23"></path>
                                    <path d="M5.45454545,1.08388346 C5.45454545,1.1693637 5.38643579,1.2381324 5.3030303,1.2381324 C5.21948052,1.2381324 5.15151515,1.1693637 5.15151515,1.08388346 C5.15151515,0.997367999 5.21948052,0.928599298 5.3030303,0.928599298 C5.38643579,0.928599298 5.45454545,0.997367999 5.45454545,1.08388346" id="Fill-25"></path>
                                </g>
                                <g id="Group-4" transform="translate(5.454545, 8.047861)">
                                    <path d="M3.03030303,0.15476655 C3.03030303,0.240109247 2.96219336,0.309533099 2.87878788,0.309533099 C2.7953824,0.309533099 2.72727273,0.240109247 2.72727273,0.15476655 C2.72727273,0.069571249 2.7953824,0 2.87878788,0 C2.96219336,0 3.03030303,0.069571249 3.03030303,0.15476655" id="Fill-7"></path>
                                    <path d="M2.42424242,0.15476655 C2.42424242,0.240109247 2.35613276,0.309533099 2.27272727,0.309533099 C2.18917749,0.309533099 2.12121212,0.240109247 2.12121212,0.15476655 C2.12121212,0.069571249 2.18917749,0 2.27272727,0 C2.35613276,0 2.42424242,0.069571249 2.42424242,0.15476655" id="Fill-9"></path>
                                    <path d="M3.63636364,0.774350362 C3.63636364,0.859830597 3.56903966,0.928599298 3.48535522,0.928599298 C3.40065731,0.928599298 3.33333333,0.859830597 3.33333333,0.774350362 C3.33333333,0.687834899 3.40065731,0.619066198 3.48535522,0.619066198 C3.56903966,0.619066198 3.63636364,0.687834899 3.63636364,0.774350362" id="Fill-11"></path>
                                    <path d="M2.72727273,0.774350362 C2.72727273,0.859830597 2.65994875,0.928599298 2.57525084,0.928599298 C2.4915664,0.928599298 2.42424242,0.859830597 2.42424242,0.774350362 C2.42424242,0.687834899 2.4915664,0.619066198 2.57525084,0.619066198 C2.65994875,0.619066198 2.72727273,0.687834899 2.72727273,0.774350362" id="Fill-13"></path>
                                    <path d="M1.81818182,0.15476655 C1.81818182,0.240109247 1.75085784,0.309533099 1.66717341,0.309533099 C1.5824755,0.309533099 1.51515152,0.240109247 1.51515152,0.15476655 C1.51515152,0.069571249 1.5824755,0 1.66717341,0 C1.75085784,0 1.81818182,0.069571249 1.81818182,0.15476655" id="Fill-15"></path>
                                    <path d="M2.12121212,0.774350362 C2.12121212,0.859830597 2.05324675,0.928599298 1.96969697,0.928599298 C1.88629149,0.928599298 1.81818182,0.859830597 1.81818182,0.774350362 C1.81818182,0.687834899 1.88629149,0.619066198 1.96969697,0.619066198 C2.05324675,0.619066198 2.12121212,0.687834899 2.12121212,0.774350362" id="Fill-17"></path>
                                    <path d="M1.21212121,0.15476655 C1.21212121,0.240109247 1.14479723,0.309533099 1.06009932,0.309533099 C0.976414889,0.309533099 0.909090909,0.240109247 0.909090909,0.15476655 C0.909090909,0.069571249 0.976414889,0 1.06009932,0 C1.14479723,0 1.21212121,0.069571249 1.21212121,0.15476655" id="Fill-19"></path>
                                    <path d="M1.51515152,0.774350362 C1.51515152,0.859830597 1.44704185,0.928599298 1.36363636,0.928599298 C1.28023088,0.928599298 1.21212121,0.859830597 1.21212121,0.774350362 C1.21212121,0.687834899 1.28023088,0.619066198 1.36363636,0.619066198 C1.44704185,0.619066198 1.51515152,0.687834899 1.51515152,0.774350362" id="Fill-21"></path>
                                    <path d="M0.303030303,0.15476655 C0.303030303,0.240109247 0.235064935,0.309533099 0.151515152,0.309533099 C0.0681096681,0.309533099 0,0.240109247 0,0.15476655 C0,0.069571249 0.0681096681,0 0.151515152,0 C0.235064935,0 0.303030303,0.069571249 0.303030303,0.15476655" id="Fill-23"></path>
                                    <path d="M0.909090909,0.774350362 C0.909090909,0.859830597 0.840981241,0.928599298 0.757575758,0.928599298 C0.674025974,0.928599298 0.606060606,0.859830597 0.606060606,0.774350362 C0.606060606,0.687834899 0.674025974,0.619066198 0.757575758,0.619066198 C0.840981241,0.619066198 0.909090909,0.687834899 0.909090909,0.774350362" id="Fill-25"></path>
                                </g>
                            </g>
                            <text id="&lt;/&gt;" font-family="GothamRounded-Bold, Gotham Rounded" font-size="3.672" font-weight="bold" fill="#FFFFFF">
                                <tspan x="14.3571429" y="12.4034335">&lt;/&gt;</tspan>
                            </text>
                            <use id="Rectangle-11" stroke="#FFFFFF" mask="url(#mask-2)" xlink:href="#path-1"></use>
                        </g>
                    </g>
                </g>
            </g>
        </g>
    </g>
</svg>
