<?xml version="1.0" encoding="UTF-8" standalone="no"?>
<svg width="35px" height="38px" viewBox="0 0 35 38" version="1.1" xmlns="http://www.w3.org/2000/svg" xmlns:xlink="http://www.w3.org/1999/xlink">
    <!-- Generator: sketchtool 40 (33762) - http://www.bohemiancoding.com/sketch -->
    <title>C82E23DB-9D7A-4A9E-BE1A-E1965FD10E5B</title>
    <desc>Created with sketchtool.</desc>
    <defs>
        <polygon id="path-1" points="0 18.4660352 37.9263566 18.4660352 37.9263566 0 0 0"></polygon>
    </defs>
    <g id="Page-1" stroke="none" stroke-width="1" fill="none" fill-rule="evenodd">
        <g id="Mobile-Modules" transform="translate(-266.000000, -607.000000)">
            <g id="Core" transform="translate(20.000000, 404.000000)">
                <g id="mods" transform="translate(0.000000, 161.000000)">
                    <g id="icn-ssr" transform="translate(247.000000, 42.253219)">
                        <path d="M14.4500868,0.814146514 C15.6008868,0.146052569 17.4654863,0.145346651 18.6175023,0.814146514 L30.902486,7.94616185 C32.053286,8.61425579 32.9861938,10.2376354 32.9861938,11.5558925 L32.9861938,25.8586084 C32.9861938,27.1841137 32.054502,28.7995392 30.902486,29.4683391 L18.6175023,36.6003544 C17.4667023,37.2684484 15.6021028,37.2691543 14.4500868,36.6003544 L2.16510308,29.4683391 C1.01430308,28.8002452 0.0813953488,27.1768655 0.0813953488,25.8586084 L0.0813953488,11.5558925 C0.0813953488,10.2303873 1.01308712,8.61496171 2.16510308,7.94616185 L14.4500868,0.814146514 Z" id="Polygon" stroke="#CCCCCC" stroke-width="0.5" fill="#1F6B23"></path>
                        <g id="Group-8" transform="translate(0.879845, 9.142371)">
                            <path d="M24.1037553,14.457708 C23.9337752,14.4269927 23.7714945,14.531195 23.7365508,14.692809 C23.3909641,16.3491373 22.0462258,17.4617765 20.3932136,17.4617765 C18.8317063,17.4617765 17.4591316,16.469989 16.9939072,15.0545029 L18.4526565,15.0545029 L18.4526565,14.4516797 L15.9689922,14.4516797 L15.9689922,16.8609628 L16.589094,16.8609628 L16.589094,15.7026813 C17.2624995,17.1107038 18.7357593,18.0645997 20.3932136,18.0645997 C22.3509463,18.0645997 23.9399939,16.7579088 24.3462879,14.8133736 C24.3809354,14.6503243 24.2719586,14.4915809 24.1037553,14.457708 L24.1037553,14.457708 Z" id="Fill-1" fill="#FFFFFF"></path>
                            <path d="M24.1300706,12.1694116 C23.4329869,10.8698137 22.0482956,10.0358887 20.4820782,10.0358887 C18.5853827,10.0358887 16.8980493,11.2032723 16.381011,12.8736273 C16.3324461,13.0289444 16.4263184,13.1898285 16.5918536,13.2354772 C16.7567965,13.281126 16.9282542,13.1912202 16.9768191,13.0372948 C17.4103495,11.6363788 18.8841752,10.6201372 20.4820782,10.6201372 C21.8996397,10.6201372 23.1404131,11.4270626 23.689137,12.6640327 L22.2686143,12.6640327 L22.2686143,13.2468894 L24.751938,13.2468894 L24.751938,10.9124006 L24.1300706,10.9124006 L24.1300706,12.1694116 Z" id="Fill-3" fill="#FFFFFF"></path>
                            <path d="M9.78011927,3.79040924 C9.35275918,3.79040924 9.00358556,3.44138664 9.00358556,3.00957541 C9.00358556,2.57984878 9.35275918,2.22903938 9.78011927,2.22903938 C10.2095525,2.22903938 10.5563568,2.57984878 10.5563568,3.00957541 C10.5563568,3.44138664 10.2095525,3.79040924 9.78011927,3.79040924 M9.78011927,1.60574219 C9.00980494,1.60574219 8.38372093,2.23529319 8.38372093,3.00957541 C8.38372093,3.78624003 9.00980494,4.41579103 9.78011927,4.41579103 C10.5522106,4.41579103 11.1782946,3.78624003 11.1782946,3.00957541 C11.1782946,2.23529319 10.5522106,1.60574219 9.78011927,1.60574219" id="Fill-5" fill="#FFFFFF"></path>
                            <path d="M22.3565891,2.40861329 C22.3565891,2.62997632 22.1771281,2.81004884 21.9573643,2.81004884 C21.7376006,2.81004884 21.5581395,2.62997632 21.5581395,2.40861329 C21.5581395,2.18763258 21.7376006,2.00717774 21.9573643,2.00717774 C22.1771281,2.00717774 22.3565891,2.18763258 22.3565891,2.40861329" id="Fill-7" fill="#FFFFFF"></path>
                            <path d="M20.7596899,2.40861329 C20.7596899,2.62997632 20.5802289,2.81004884 20.3604651,2.81004884 C20.1403212,2.81004884 19.9612403,2.62997632 19.9612403,2.40861329 C19.9612403,2.18763258 20.1403212,2.00717774 20.3604651,2.00717774 C20.5802289,2.00717774 20.7596899,2.18763258 20.7596899,2.40861329" id="Fill-9" fill="#FFFFFF"></path>
                            <path d="M22.755814,3.61426253 C22.755814,3.83598231 22.5784231,4.01435548 22.3579243,4.01435548 C22.1347552,4.01435548 21.9573643,3.83598231 21.9573643,3.61426253 C21.9573643,3.38985756 22.1347552,3.21148439 22.3579243,3.21148439 C22.5784231,3.21148439 22.755814,3.38985756 22.755814,3.61426253" id="Fill-11" fill="#FFFFFF"></path>
                            <path d="M21.5581395,3.61426253 C21.5581395,3.83598231 21.3807487,4.01435548 21.1575795,4.01435548 C20.9370808,4.01435548 20.7596899,3.83598231 20.7596899,3.61426253 C20.7596899,3.38985756 20.9370808,3.21148439 21.1575795,3.21148439 C21.3807487,3.21148439 21.5581395,3.38985756 21.5581395,3.61426253" id="Fill-13" fill="#FFFFFF"></path>
                            <path d="M19.5620155,2.40861329 C19.5620155,2.62997632 19.3846246,2.81004884 19.1641259,2.81004884 C18.9409568,2.81004884 18.7635659,2.62997632 18.7635659,2.40861329 C18.7635659,2.18763258 18.9409568,2.00717774 19.1641259,2.00717774 C19.3846246,2.00717774 19.5620155,2.18763258 19.5620155,2.40861329" id="Fill-15" fill="#FFFFFF"></path>
                            <path d="M20.3604651,3.61426253 C20.3604651,3.83598231 20.1813843,4.01435548 19.9612403,4.01435548 C19.7414766,4.01435548 19.5620155,3.83598231 19.5620155,3.61426253 C19.5620155,3.38985756 19.7414766,3.21148439 19.9612403,3.21148439 C20.1813843,3.21148439 20.3604651,3.38985756 20.3604651,3.61426253" id="Fill-17" fill="#FFFFFF"></path>
                            <path d="M18.7635659,2.40861329 C18.7635659,2.62997632 18.586175,2.81004884 18.3630059,2.81004884 C18.1425071,2.81004884 17.9651163,2.62997632 17.9651163,2.40861329 C17.9651163,2.18763258 18.1425071,2.00717774 18.3630059,2.00717774 C18.586175,2.00717774 18.7635659,2.18763258 18.7635659,2.40861329" id="Fill-19" fill="#FFFFFF"></path>
                            <path d="M18.7635659,3.61426253 C18.7635659,3.83598231 18.5841048,4.01435548 18.3643411,4.01435548 C18.1445773,4.01435548 17.9651163,3.83598231 17.9651163,3.61426253 C17.9651163,3.38985756 18.1445773,3.21148439 18.3643411,3.21148439 C18.5841048,3.21148439 18.7635659,3.38985756 18.7635659,3.61426253" id="Fill-21" fill="#FFFFFF"></path>
                            <path d="M17.1666667,2.40861329 C17.1666667,2.62997632 16.9875858,2.81004884 16.7674419,2.81004884 C16.5476781,2.81004884 16.3682171,2.62997632 16.3682171,2.40861329 C16.3682171,2.18763258 16.5476781,2.00717774 16.7674419,2.00717774 C16.9875858,2.00717774 17.1666667,2.18763258 17.1666667,2.40861329" id="Fill-23" fill="#FFFFFF"></path>
                            <path d="M17.9651163,3.61426253 C17.9651163,3.83598231 17.7856552,4.01435548 17.5658915,4.01435548 C17.3457475,4.01435548 17.1666667,3.83598231 17.1666667,3.61426253 C17.1666667,3.38985756 17.3457475,3.21148439 17.5658915,3.21148439 C17.7856552,3.21148439 17.9651163,3.38985756 17.9651163,3.61426253" id="Fill-25" fill="#FFFFFF"></path>
                            <path d="M7.79855459,5.81713631 C7.35752085,5.81713631 7.00054914,5.46002569 7.00054914,5.01882034 L7.00054914,1.41150672 C7.00054914,0.970009377 7.35752085,0.613190756 7.79855459,0.613190756 L23.3406884,0.613190756 C23.782014,0.613190756 24.1389857,0.970009377 24.1389857,1.41150672 L24.1389857,5.01882034 C24.1389857,5.46002569 23.782014,5.81713631 23.3406884,5.81713631 L7.79855459,5.81713631 Z M24.751938,5.01882034 L24.751938,1.41150672 C24.751938,0.63217047 24.1197215,0 23.3406884,0 L7.79855459,0 C7.01952147,0 6.3875969,0.63217047 6.3875969,1.41150672 L6.3875969,5.01882034 C6.3875969,5.46878556 6.60271395,5.86502358 6.93166499,6.12373168 C6.60271395,6.38243978 6.3875969,6.77867781 6.3875969,7.22864303 L6.3875969,10.8359566 C6.3875969,11.2862139 6.60271395,11.6821599 6.93166499,11.940868 C6.60271395,12.1995761 6.3875969,12.5958141 6.3875969,13.0457793 L6.3875969,16.6536769 C6.3875969,17.4324292 7.01952147,18.0645997 7.79855459,18.0645997 L14.9566693,18.0645997 L14.9566693,17.4534529 L7.79855459,17.4534529 C7.35752085,17.4534529 7.00054914,17.0945903 7.00054914,16.6536769 L7.00054914,13.0457793 C7.00054914,12.606618 7.35752085,12.2474634 7.79855459,12.2474634 L15.5696215,12.2474634 L15.5696215,11.6342726 L7.79855459,11.6342726 C7.35752085,11.6342726 7.00054914,11.277162 7.00054914,10.8359566 L7.00054914,7.22864303 C7.00054914,6.78743768 7.35752085,6.43032706 7.79855459,6.43032706 L23.3406884,6.43032706 C23.782014,6.43032706 24.1389857,6.78743768 24.1389857,7.22864303 L24.1389857,9.4921929 L24.751938,9.4921929 L24.751938,7.22864303 C24.751938,6.77867781 24.5368209,6.38243978 24.2078699,6.12373168 C24.5368209,5.86502358 24.751938,5.46878556 24.751938,5.01882034 L24.751938,5.01882034 Z" id="Fill-27" fill="#FFFFFF"></path>
                            <path d="M10.5563568,9.03319324 C10.5563568,9.46291987 10.2092563,9.81402707 9.78011927,9.81402707 C9.35246302,9.81402707 9.00358556,9.46291987 9.00358556,9.03319324 C9.00358556,8.601382 9.35246302,8.25235941 9.78011927,8.25235941 C10.2092563,8.25235941 10.5563568,8.601382 10.5563568,9.03319324 M8.38372093,9.03319324 C8.38372093,9.80777326 9.00980494,10.4373243 9.78011927,10.4373243 C10.5522106,10.4373243 11.1782946,9.80777326 11.1782946,9.03319324 C11.1782946,8.25682642 10.5522106,7.62727542 9.78011927,7.62727542 C9.00980494,7.62727542 8.38372093,8.25682642 8.38372093,9.03319324" id="Fill-29" fill="#FFFFFF"></path>
                            <path d="M22.3565891,8.42880392 C22.3565891,8.65320889 22.1771281,8.83158206 21.9573643,8.83158206 C21.7376006,8.83158206 21.5581395,8.65320889 21.5581395,8.42880392 C21.5581395,8.20708414 21.7376006,8.02871097 21.9573643,8.02871097 C22.1771281,8.02871097 22.3565891,8.20708414 22.3565891,8.42880392" id="Fill-31" fill="#FFFFFF"></path>
                            <path d="M20.7596899,8.42880392 C20.7596899,8.65320889 20.5802289,8.83158206 20.3604651,8.83158206 C20.1403212,8.83158206 19.9612403,8.65320889 19.9612403,8.42880392 C19.9612403,8.20708414 20.1403212,8.02871097 20.3604651,8.02871097 C20.5802289,8.02871097 20.7596899,8.20708414 20.7596899,8.42880392" id="Fill-33" fill="#FFFFFF"></path>
                            <path d="M22.755814,9.23301761 C22.755814,9.45399832 22.5784231,9.63445316 22.3579243,9.63445316 C22.1347552,9.63445316 21.9573643,9.45399832 21.9573643,9.23301761 C21.9573643,9.01165458 22.1347552,8.83158206 22.3579243,8.83158206 C22.5784231,8.83158206 22.755814,9.01165458 22.755814,9.23301761" id="Fill-35" fill="#FFFFFF"></path>
                            <path d="M21.5581395,9.23301761 C21.5581395,9.45399832 21.3807487,9.63445316 21.1575795,9.63445316 C20.9370808,9.63445316 20.7596899,9.45399832 20.7596899,9.23301761 C20.7596899,9.01165458 20.9370808,8.83158206 21.1575795,8.83158206 C21.3807487,8.83158206 21.5581395,9.01165458 21.5581395,9.23301761" id="Fill-37" fill="#FFFFFF"></path>
                            <path d="M19.5620155,8.42880392 C19.5620155,8.65320889 19.3846246,8.83158206 19.1641259,8.83158206 C18.9409568,8.83158206 18.7635659,8.65320889 18.7635659,8.42880392 C18.7635659,8.20708414 18.9409568,8.02871097 19.1641259,8.02871097 C19.3846246,8.02871097 19.5620155,8.20708414 19.5620155,8.42880392" id="Fill-39" fill="#FFFFFF"></path>
                            <path d="M20.3604651,9.23301761 C20.3604651,9.45399832 20.1813843,9.63445316 19.9612403,9.63445316 C19.7414766,9.63445316 19.5620155,9.45399832 19.5620155,9.23301761 C19.5620155,9.01165458 19.7414766,8.83158206 19.9612403,8.83158206 C20.1813843,8.83158206 20.3604651,9.01165458 20.3604651,9.23301761" id="Fill-41" fill="#FFFFFF"></path>
                            <path d="M18.7635659,8.42880392 C18.7635659,8.65320889 18.586175,8.83158206 18.3630059,8.83158206 C18.1425071,8.83158206 17.9651163,8.65320889 17.9651163,8.42880392 C17.9651163,8.20708414 18.1425071,8.02871097 18.3630059,8.02871097 C18.586175,8.02871097 18.7635659,8.20708414 18.7635659,8.42880392" id="Fill-43" fill="#FFFFFF"></path>
                            <path d="M18.7635659,9.23301761 C18.7635659,9.45399832 18.5841048,9.63445316 18.3643411,9.63445316 C18.1445773,9.63445316 17.9651163,9.45399832 17.9651163,9.23301761 C17.9651163,9.01165458 18.1445773,8.83158206 18.3643411,8.83158206 C18.5841048,8.83158206 18.7635659,9.01165458 18.7635659,9.23301761" id="Fill-45" fill="#FFFFFF"></path>
                            <path d="M17.1666667,8.42880392 C17.1666667,8.65320889 16.9875858,8.83158206 16.7674419,8.83158206 C16.5476781,8.83158206 16.3682171,8.65320889 16.3682171,8.42880392 C16.3682171,8.20708414 16.5476781,8.02871097 16.7674419,8.02871097 C16.9875858,8.02871097 17.1666667,8.20708414 17.1666667,8.42880392" id="Fill-47" fill="#FFFFFF"></path>
                            <path d="M17.9651163,9.23301761 C17.9651163,9.45399832 17.7856552,9.63445316 17.5658915,9.63445316 C17.3457475,9.63445316 17.1666667,9.45399832 17.1666667,9.23301761 C17.1666667,9.01165458 17.3457475,8.83158206 17.5658915,8.83158206 C17.7856552,8.83158206 17.9651163,9.01165458 17.9651163,9.23301761" id="Fill-49" fill="#FFFFFF"></path>
                            <path d="M10.5563568,14.6532909 C10.5563568,15.0830175 10.2092563,15.4341247 9.78011927,15.4341247 C9.35246302,15.4341247 9.00358556,15.0830175 9.00358556,14.6532909 C9.00358556,14.2214797 9.35246302,13.8727549 9.78011927,13.8727549 C10.2092563,13.8727549 10.5563568,14.2214797 10.5563568,14.6532909 M8.38372093,14.6532909 C8.38372093,15.4278709 9.00980494,16.0574219 9.78011927,16.0574219 C10.5522106,16.0574219 11.1782946,15.4278709 11.1782946,14.6532909 C11.1782946,13.8784131 10.5522106,13.2473731 9.78011927,13.2473731 C9.00980494,13.2473731 8.38372093,13.8784131 8.38372093,14.6532909" id="Fill-51" fill="#FFFFFF"></path>
                            <mask id="mask-2" fill="white">
                                <use xlink:href="#path-1"></use>
                            </mask>
                            <g id="Clip-54"></g>
                            <polygon id="Fill-53" fill="#FFFFFF" mask="url(#mask-2)" points="15.5697674 13.6488086 16.7674419 13.6488086 16.7674419 12.8459375 15.5697674 12.8459375"></polygon>
                            <polygon id="Fill-55" fill="#FFFFFF" mask="url(#mask-2)" points="13.1744186 13.6488086 14.372093 13.6488086 14.372093 12.8459375 13.1744186 12.8459375"></polygon>
                            <polygon id="Fill-56" fill="#FFFFFF" mask="url(#mask-2)" points="23.9534884 15.2545508 25.1511628 15.2545508 25.1511628 14.4516797 23.9534884 14.4516797"></polygon>
                            <polygon id="Fill-57" fill="#FFFFFF" mask="url(#mask-2)" points="25.9496124 15.2545508 27.1472868 15.2545508 27.1472868 14.4516797 25.9496124 14.4516797"></polygon>
                            <polygon id="Fill-58" fill="#FFFFFF" mask="url(#mask-2)" points="27.9457364 15.2545508 29.1434109 15.2545508 29.1434109 14.4516797 27.9457364 14.4516797"></polygon>
                            <polygon id="Fill-63" fill="#FFFFFF" mask="url(#mask-2)" points="11.1782946 13.6488086 12.375969 13.6488086 12.375969 12.8459375 11.1782946 12.8459375"></polygon>
                            <polygon id="Fill-64" fill="#FFFFFF" mask="url(#mask-2)" points="9.18217054 13.6488086 10.379845 13.6488086 10.379845 12.8459375 9.18217054 12.8459375"></polygon>
                            <polygon id="Fill-65" fill="#FFFFFF" mask="url(#mask-2)" points="7.18604651 13.6488086 8.38372093 13.6488086 8.38372093 12.8459375 7.18604651 12.8459375"></polygon>
                            <polygon id="Fill-66" fill="#FFFFFF" mask="url(#mask-2)" points="5.98837209 13.6488086 7.18604651 13.6488086 7.18604651 12.8459375 5.98837209 12.8459375"></polygon>
                            <polygon id="Fill-67" fill="#FFFFFF" mask="url(#mask-2)" points="3.99224806 13.6488086 5.18992248 13.6488086 5.18992248 12.8459375 3.99224806 12.8459375"></polygon>
                            <polygon id="Fill-68" fill="#FFFFFF" mask="url(#mask-2)" points="1.59689922 13.6488086 2.79457364 13.6488086 2.79457364 12.8459375 1.59689922 12.8459375"></polygon>
                        </g>
                    </g>
                </g>
            </g>
        </g>
    </g>
</svg>
