<?xml version="1.0" encoding="UTF-8" standalone="no"?>
<svg width="20px" height="20px" viewBox="0 0 20 20" version="1.1" xmlns="http://www.w3.org/2000/svg" xmlns:xlink="http://www.w3.org/1999/xlink">
    <!-- Generator: sketchtool 40.1 (33804) - http://www.bohemiancoding.com/sketch -->
    <title>62860A19-33DD-498B-B97F-29EEDDE6692E</title>
    <desc>Created with sketchtool.</desc>
    <defs></defs>
    <g id="Page-1" stroke="none" stroke-width="1" fill="none" fill-rule="evenodd">
        <g id="Desktop_HD-Home" transform="translate(-1327.000000, -5175.000000)" fill="#FEFEFE">
            <g id="footer" transform="translate(0.000000, 5111.000000)">
                <g id="container" transform="translate(0.000000, 30.000000)">
                    <g id="nav">
                        <g id="social" transform="translate(1217.000000, 34.000000)">
                            <path d="M128.896191,0 L111.103809,0 C110.494129,0 110,0.494126904 110,1.10380487 L110,18.8961202 C110,19.5057232 110.494129,20 111.103809,20 L120.682668,20 L120.682668,12.2549317 L118.07624,12.2549317 L118.07624,9.23651623 L120.682668,9.23651623 L120.682668,7.01054722 C120.682668,4.42735907 122.260373,3.02073849 124.564809,3.02073849 C125.668692,3.02073849 126.617384,3.10286817 126.893823,3.13958673 L126.893823,5.83922516 L125.295586,5.83997452 C124.042354,5.83997452 123.799636,6.43548961 123.799636,7.30939133 L123.799636,9.23651623 L126.788613,9.23651623 L126.399469,12.2549317 L123.799636,12.2549317 L123.799636,20 L128.896191,20 C129.505796,20 130,19.5057232 130,18.8961202 L130,1.10380487 C130,0.494126904 129.505796,0 128.896191,0" id="sm_fb"></path>
                        </g>
                    </g>
                </g>
            </g>
        </g>
    </g>
</svg>