<?xml version="1.0" encoding="UTF-8" standalone="no"?>
<svg width="24px" height="22px" viewBox="0 0 24 22" version="1.1" xmlns="http://www.w3.org/2000/svg" xmlns:xlink="http://www.w3.org/1999/xlink">
    <!-- Generator: sketchtool 40.1 (33804) - http://www.bohemiancoding.com/sketch -->
    <title>9F93ED50-4F7C-49DB-9D2E-37B1D83376BE</title>
    <desc>Created with sketchtool.</desc>
    <defs></defs>
    <g id="Page-1" stroke="none" stroke-width="1" fill="none" fill-rule="evenodd">
        <g id="Desktop_HD-Home" transform="translate(-1379.000000, -5175.000000)" fill="#FFFFFF">
            <g id="footer" transform="translate(0.000000, 5111.000000)">
                <g id="container" transform="translate(0.000000, 30.000000)">
                    <g id="nav">
                        <g id="social" transform="translate(1217.000000, 34.000000)">
                            <path d="M180.799551,9.21474654 L175.154957,14.7723502 C174.835915,15.0857143 174.425889,15.2430108 174.015862,15.2430108 C173.605238,15.2430108 173.195211,15.0857143 172.876768,14.7723502 L167.230976,9.21474654 C166.575533,8.56897081 166.553386,7.49984639 167.182492,6.82642089 C167.811597,6.15299539 168.853124,6.13087558 169.509166,6.77665131 L174.015862,11.2129032 L178.521362,6.77665131 C179.177404,6.13087558 180.21893,6.15360983 180.848036,6.82580645 C181.477142,7.49984639 181.454994,8.56835637 180.799551,9.21474654 L180.799551,9.21474654 Z M185.881481,1.47096774 C185.569622,0.591705069 184.747175,0 183.835541,0 L164.176431,0 C163.279761,0 162.462103,0.578801843 162.14306,1.44086022 C162.047886,1.69708141 162,1.96313364 162,2.23410138 L162,9.66697389 L162.082604,11.1459293 C162.430378,14.5081413 164.130939,17.4457757 166.761092,19.4949309 C166.80838,19.5324117 166.856266,19.5686636 166.904153,19.6043011 L166.93468,19.6258065 C168.344931,20.6844854 169.923382,21.4009217 171.626936,21.7536098 C172.412869,21.9170507 173.21676,22 174.015264,22 C174.752712,22 175.494351,21.9299539 176.222821,21.7910906 C176.310213,21.7732719 176.397007,21.756682 176.484998,21.73702 C176.50954,21.7321045 176.535279,21.721659 176.562215,21.7087558 C178.192742,21.3425499 179.707744,20.6451613 181.06532,19.6258065 L181.095249,19.6043011 C181.143135,19.5686636 181.19162,19.5324117 181.238908,19.4949309 C183.869061,17.4457757 185.569622,14.5081413 185.916798,11.1459293 L186,9.66697389 L186,2.23410138 C186,1.97726575 185.969473,1.72227343 185.881481,1.47096774 L185.881481,1.47096774 Z" id="sm_pocket"></path>
                        </g>
                    </g>
                </g>
            </g>
        </g>
    </g>
</svg>