<?xml version="1.0" encoding="UTF-8" standalone="no"?>
<svg width="24px" height="20px" viewBox="0 0 24 20" version="1.1" xmlns="http://www.w3.org/2000/svg" xmlns:xlink="http://www.w3.org/1999/xlink">
    <!-- Generator: sketchtool 40.1 (33804) - http://www.bohemiancoding.com/sketch -->
    <title>CED9DDB7-98AA-420D-A33E-4C31685DB9AE</title>
    <desc>Created with sketchtool.</desc>
    <defs></defs>
    <g id="Page-1" stroke="none" stroke-width="1" fill="none" fill-rule="evenodd">
        <g id="Desktop_HD-Home" transform="translate(-1271.000000, -5175.000000)" fill="#FFFFFF">
            <g id="footer" transform="translate(0.000000, 5111.000000)">
                <g id="container" transform="translate(0.000000, 30.000000)">
                    <g id="nav">
                        <g id="social" transform="translate(1217.000000, 34.000000)">
                            <path d="M75.557664,5.63466517 C75.557664,5.41603914 75.553344,5.19839746 75.543552,4.98193702 C76.504896,4.26935987 77.340672,3.3801888 78,2.36777604 C77.117664,2.7695912 76.168224,3.04048667 75.172224,3.16254713 C76.188864,2.53767632 76.969344,1.54859286 77.337408,0.369725069 C76.385856,0.948035713 75.332448,1.36865212 74.21088,1.59515302 C73.312416,0.613845987 72.032736,0 70.616736,0 C67.897248,0 65.692032,2.26117001 65.692032,5.04857809 C65.692032,5.44488084 65.735328,5.83006034 65.819712,6.19978541 C61.72752,5.98883737 58.09872,3.97966315 55.6704,0.924706415 C55.247136,1.67065332 55.003584,2.53767632 55.003584,3.4622843 C55.003584,5.21404877 55.872864,6.7603776 57.194688,7.6650031 C56.387136,7.63950821 55.628256,7.41192452 54.964608,7.03334022 C54.963456,7.0544055 54.963456,7.07556921 54.963456,7.09771727 C54.963456,9.54325764 56.661024,11.5846204 58.913856,12.0475642 C58.500384,12.162931 58.06512,12.2251425 57.61584,12.2251425 C57.298656,12.2251425 56.990112,12.192954 56.690208,12.1340893 C57.317088,14.1400152 59.134752,15.5997204 61.290144,15.6408666 C59.604576,16.9950487 57.481632,17.8020258 55.174656,17.8020258 C54.777312,17.8020258 54.38544,17.7787949 54,17.7321364 C56.179296,19.1640827 58.766688,20 61.547808,20 C70.604832,20 75.557664,12.3061552 75.557664,5.63466517 Z" id="sm_twitter"></path>
                        </g>
                    </g>
                </g>
            </g>
        </g>
    </g>
</svg>
