<?xml version="1.0" encoding="UTF-8" standalone="no"?>
<svg width="48px" height="72px" viewBox="0 0 48 72" version="1.1" xmlns="http://www.w3.org/2000/svg" xmlns:xlink="http://www.w3.org/1999/xlink">
    <!-- Generator: sketchtool 40 (33762) - http://www.bohemiancoding.com/sketch -->
    <title>4FDB19F9-E3EA-4352-A3E8-8D0D16F3A141</title>
    <desc>Created with sketchtool.</desc>
    <defs>
        <polygon id="path-1" points="0.000363636364 22.8379938 23.6938182 22.8379938 23.6938182 0 0.000363636364 0"></polygon>
    </defs>
    <g id="Page-1" stroke="none" stroke-width="1" fill="none" fill-rule="evenodd">
        <g id="Desktop_HD-Home" transform="translate(-1072.000000, -3994.000000)">
            <g id="Tools-Explorer" transform="translate(-87.000000, 3544.000000)">
                <g id="explorer" transform="translate(407.000000, 449.000000)">
                    <g id="social-git2b" transform="translate(752.000000, 1.000000)">
                        <rect id="Rectangle-2" fill="#333333" x="0" y="0" width="48" height="72" rx="4"></rect>
                        <g id="Page-1" transform="translate(12.000000, 34.000000)">
                            <mask id="mask-2" fill="white">
                                <use xlink:href="#path-1"></use>
                            </mask>
                            <g id="Clip-2"></g>
                            <path d="M11.8461818,0 C5.30436364,0 0.000363636364,5.24184375 0.000363636364,11.7084375 C0.000363636364,16.8812813 3.39454545,21.26925 8.10218182,22.8181563 C8.69490909,22.92525 8.91090909,22.5637188 8.91090909,22.2532188 C8.91090909,21.9757813 8.90072727,21.2390625 8.89490909,20.2622813 C5.59963636,20.9695312 4.90436364,18.6925313 4.90436364,18.6925313 C4.36545455,17.3405625 3.58872727,16.97975 3.58872727,16.97975 C2.51309091,16.2538125 3.67018182,16.2681875 3.67018182,16.2681875 C4.85927273,16.3508437 5.48472727,17.4749687 5.48472727,17.4749687 C6.54145455,19.2639375 8.25781818,18.7471563 8.93272727,18.4481563 C9.04036364,17.6913125 9.34581818,17.17525 9.68472727,16.8827188 C7.05418182,16.5873125 4.28836364,15.5825 4.28836364,11.0960625 C4.28836364,9.818125 4.75018182,8.7730625 5.508,7.95440625 C5.38581818,7.65828125 4.97927273,6.46803125 5.62363636,4.855875 C5.62363636,4.855875 6.61854545,4.5410625 8.88181818,6.0561875 C9.82654545,5.796 10.8403636,5.666625 11.8476364,5.6623125 C12.8534545,5.666625 13.8672727,5.796 14.8134545,6.0561875 C17.0752727,4.5410625 18.068,4.855875 18.068,4.855875 C18.7145455,6.46803125 18.308,7.65828125 18.1858182,7.95440625 C18.9450909,8.7730625 19.404,9.818125 19.404,11.0960625 C19.404,15.594 16.6338182,16.5837188 13.9945455,16.873375 C14.42,17.2349062 14.7989091,17.9493438 14.7989091,19.0418438 C14.7989091,20.6065625 14.7843636,21.8694063 14.7843636,22.2532188 C14.7843636,22.5665938 14.9974545,22.931 15.5989091,22.8167188 C20.3029091,21.2649375 23.6941818,16.8798438 23.6941818,11.7084375 C23.6941818,5.24184375 18.3894545,0 11.8461818,0" id="Fill-1" fill="#FFFFFF" mask="url(#mask-2)"></path>
                        </g>
                    </g>
                </g>
            </g>
        </g>
    </g>
</svg>