<?xml version="1.0" encoding="UTF-8" standalone="no"?>
<svg width="48px" height="72px" viewBox="0 0 48 72" version="1.1" xmlns="http://www.w3.org/2000/svg" xmlns:xlink="http://www.w3.org/1999/xlink">
    <!-- Generator: sketchtool 40 (33762) - http://www.bohemiancoding.com/sketch -->
    <title>5685D5AA-45C9-4F8E-922D-A5D222DF908C</title>
    <desc>Created with sketchtool.</desc>
    <defs></defs>
    <g id="Page-1" stroke="none" stroke-width="1" fill="none" fill-rule="evenodd">
        <g id="Desktop-HD" transform="translate(-1367.000000, -2515.000000)">
            <g id="Fixed-Header" transform="translate(0.000000, 2514.000000)">
                <g id="nav">
                    <g id="social" transform="translate(1367.000000, 1.000000)">
                        <rect id="Rectangle-2" fill="#38BBFF" x="0" y="0" width="48" height="72" rx="4"></rect>
                        <path d="M26.1291957,50.4427 L21.2573581,46.7716125 C21.4127529,46.375725 21.50065,45.9505125 21.50065,45.4997125 C21.50065,45.0391375 21.4067531,44.5984 21.2429586,44.194175 L26.0415986,40.5006625 C26.659278,40.9319125 27.4239525,41.1875 28.250125,41.1875 C30.321256,41.1875 32,39.57865 32,37.59375 C32,35.60885 30.321256,34 28.250125,34 C26.1759941,34 24.50025,35.60885 24.50025,37.59375 C24.50025,38.003725 24.5704477,38.3967375 24.7024433,38.7630125 L19.8306056,42.5125875 C19.2387254,42.1307875 18.5211493,41.90625 17.750475,41.90625 C15.6772441,41.90625 14,43.5151 14,45.5 C14,47.4849 15.6772441,49.09375 17.750475,49.09375 C18.5325489,49.09375 19.2651245,48.8634625 19.8687044,48.467575 L24.740542,52.137225 C24.5851472,52.5331125 24.50025,52.9612 24.50025,53.40625 C24.50025,55.39115 26.1759941,57 28.250125,57 C30.321256,57 32,55.39115 32,53.40625 C32,51.42135 30.321256,49.8125 28.250125,49.8125 C27.4650512,49.8125 26.7324756,50.0456625 26.1291957,50.4427 Z" id="Shape" fill="#FFFFFF"></path>
                    </g>
                </g>
            </g>
        </g>
    </g>
</svg>
