<?xml version="1.0" encoding="utf-8"?>
<!-- Generator: Adobe Illustrator 21.0.2, SVG Export Plug-In . SVG Version: 6.00 Build 0)  -->
<svg version="1.1" id="Layer_1" xmlns="http://www.w3.org/2000/svg" xmlns:xlink="http://www.w3.org/1999/xlink" x="0px" y="0px"
	 viewBox="0 0 224.5 44.5" style="enable-background:new 0 0 224.5 44.5;" xml:space="preserve">
<style type="text/css">
	.st0{fill:#FFFFFF;}
</style>
<g>
	<g>
		<path class="st0" d="M78.8,27.4h4.6V4.6h-4.6V27.4z M58,4.6l-2.1,9.8c-0.5,2.9-1.1,5.1-1.4,7.7h-0.1c-0.3-2.5-0.8-4.7-1.3-7.5
			l-2.1-10h-5.1l-2.3,9.8c-0.7,3-1.2,5.4-1.6,7.9h-0.1c-0.4-2.4-0.9-5.4-1.5-8.2c0,0-1.3-7-1.9-9.4h-5.1c0,0,4.1,16.6,4.7,19.2
			c0.8,3.2,2.1,4.3,6,3.5l2.5-10.2c0.7-2.5,1.1-4.4,1.4-6.9h0.1c0.3,2.6,0.7,4.4,1.2,6.9c0,0,1,4.6,1.5,7.2c0.5,2.4,2,4,5.8,3.2
			l6-22.8H58V4.6z M76.3,17.1c0-3.9-1.7-7.3-7.3-7.3c-2.9,0-5.2,0.8-6.4,1.5l0.9,3.1c1.1-0.8,3-1.3,4.6-1.3c2.9,0,3.3,1.6,3.3,2.6
			V16c-6.2,0-10.1,2.1-10.1,6.5c0,2.6,2,5.2,5.5,5.2c2.1,0,4-0.9,5-2.2h0.1c0,0,0.7,3,4.6,1.9c-0.2-1.2-0.2-2.5-0.2-4.1
			C76.3,23.3,76.3,17.1,76.3,17.1z M71.4,21.2c0,0.3,0,0.7-0.1,0.9c-0.3,1.2-1.5,2.2-3.1,2.2c-1.3,0-2.3-0.8-2.3-2.3
			c0-2.3,2.5-3,5.5-3V21.2z M105.9,9.9c-1.3,0-2.4,0.3-3.4,0.9c-0.8,0.6-1.5,1.2-2.2,2.1l0,0c-0.8-1.9-2.4-3.1-4.7-3.1
			c-2.9,0-4.2,1.4-5,2.8h-0.1v-2.3h-4.4v17h4.6v-10c0-0.4,0-1,0.2-1.4c0.3-1,1.3-2.2,2.9-2.2c1.9,0,2.8,1.5,2.8,3.8v9.8h4.6V17.1
			c0-0.4,0.1-1,0.2-1.4c0.3-1.1,1.4-2.1,2.8-2.1c1.9,0,2.9,1.5,2.9,4.3v9.4h4.6V17.1C111.6,12,108.9,9.9,105.9,9.9z M134.6,13.4
			h-0.1v-3.2h-4.2v17h4.7v-8.8c0-0.4,0-0.9,0.1-1.2c0.3-1.9,1.8-3,3.7-3c0.5,0,1,0.1,1.3,0.1V10c-0.3-0.1-0.7-0.1-1.1-0.1
			C137.5,9.9,135.5,11,134.6,13.4z M150.8,14.3V9.9h-4.1V4.6h-4.5v16.8c0,2.3,0.4,4,1.3,5c0.8,0.9,2.2,1.4,3.7,1.4
			c1.3,0,2.8-0.2,3.3-0.5l-0.1-3.6c-0.4,0.1-1,0.2-1.8,0.2c-1.5,0-2.1-1-2.1-3.1v-6.4h4.2V14.3z M128,17.1c0-3.9-1.6-7.3-7.3-7.3
			c-2.9,0-5.2,0.8-6.4,1.5l0.9,3.1c1.1-0.8,3-1.3,4.6-1.3c2.9,0,3.3,1.6,3.3,2.6V16c-6.2,0-10.1,2.1-10.1,6.5c0,2.6,2,5.2,5.5,5.2
			c2.1,0,4-0.9,4.9-2.2h0.1c0,0,0.7,3,4.6,1.9c-0.2-1.2-0.2-2.5-0.2-4.1V17.1z M123.2,21.2c0,0.3,0,0.7-0.1,0.9
			c-0.3,1.2-1.5,2.2-3.1,2.2c-1.3,0-2.3-0.8-2.3-2.3c0-2.3,2.5-3,5.5-3V21.2z"/>
	</g>
	<polygon class="st0" points="165.1,4.6 160.7,4.6 160.7,27.4 174.3,27.4 174.3,23.7 165.1,23.7 	"/>
	<path class="st0" d="M190.1,17.1c0-3.9-1.7-7.3-7.3-7.3c-2.9,0-5.2,0.8-6.4,1.5l0.9,3.1c1.1-0.8,3-1.3,4.6-1.3
		c2.9,0,3.3,1.6,3.3,2.6V16c-6.2,0-10.1,2.1-10.1,6.5c0,2.6,2,5.2,5.5,5.2c2.1,0,4-0.9,4.9-2.2h0.1c0,0,0.7,3,4.6,1.9
		c-0.2-1.2-0.2-2.5-0.2-4.1V17.1z M185.2,21.2c0,0.3,0,0.7-0.1,0.9c-0.3,1.2-1.5,2.2-3.1,2.2c-1.3,0-2.3-0.8-2.3-2.3
		c0-2.3,2.5-3,5.5-3L185.2,21.2L185.2,21.2z"/>
	<path class="st0" d="M202.9,10.1c-2.6,0-4.5,1.1-5.5,2.8h-0.1V4.7h-4.4v17.9c0,0.5,0,0.9,0,1.2c0,1.3-0.1,2.4-0.2,3.4
		c3.5,1,4.5-1.2,4.6-1.8c1.2,1.5,3,2.2,4.9,2.2c4,0,7.9-3,7.9-9.1C210.2,13.5,207.1,10.1,202.9,10.1z M201.3,24.3
		c-1.9,0-3.4-1.3-3.8-3c-0.1-0.3-0.1-0.7-0.1-1v-2.8c0-0.4,0.1-0.8,0.1-1.1c0.6-1.9,2.1-3.1,3.8-3.1c3,0,4.4,2.4,4.4,5.4
		C205.7,22.2,204,24.3,201.3,24.3z"/>
	<path class="st0" d="M218.7,17.2c-2.2-0.8-3.1-1.3-3.1-2.3s0.9-1.8,2.4-1.8s3,0.5,3.6,1l0.9-3c-1-0.6-2.6-1-4.6-1
		c-4.1,0-6.6,2.3-6.6,5.3c0,2,1.4,3.7,4.7,4.9c2.1,0.8,2.9,1.3,2.9,2.4s-0.9,1.9-2.8,1.9c-1.5,0-3.4-0.7-4.4-1.2l-0.9,3.1
		c1.3,0.7,3.2,1.2,5.3,1.2c4.6,0,7-2.2,7-5.3C223.3,19.9,221.9,18.3,218.7,17.2z"/>
</g>
<path class="st0" d="M25.5,19.1H12.4l4.7-17.8H7.5L2,22c-0.8,3.1,1.1,5.6,4.4,5.7h5.9L8.6,42.1c0,0.2,0.2,0.3,0.3,0.1l17-22.6
	C26,19.4,25.9,19.1,25.5,19.1z M5.9,23.5l5.5-20.4h0.8L7,22.7h11.6c0.2,0,0.4,0.2,0.4,0.4l0,0c0,0.2-0.2,0.4-0.4,0.4H5.9V23.5z"/>
</svg>
