<?xml version="1.0" encoding="UTF-8" standalone="no"?>
<svg width="224px" height="28px" viewBox="0 0 224 28" version="1.1" xmlns="http://www.w3.org/2000/svg" xmlns:xlink="http://www.w3.org/1999/xlink">
    <!-- Generator: sketchtool 40 (33762) - http://www.bohemiancoding.com/sketch -->
    <title>C058A47C-BF6F-4547-8EFA-C8C23D30C544</title>
    <desc>Created with sketchtool.</desc>
    <defs>
        <polygon id="path-1" points="0.5518 20 15.1108 20 15.1108 0.9152 0.5518 0.9152 0.5518 20"></polygon>
        <polygon id="path-3" points="0.0124 28 17.4754 28 17.4754 0.8063 0.0124 0.8063 0.0124 28"></polygon>
    </defs>
    <g id="Page-1" stroke="none" stroke-width="1" fill="none" fill-rule="evenodd">
        <g id="Desktop_HD-Home" transform="translate(-36.000000, -39.000000)">
            <g id="Header">
                <g id="walmart-labs_1" transform="translate(36.000000, 38.000000)">
                    <path d="M122.3304,20.8849 C122.3304,21.2179 122.2994,21.5679 122.2074,21.8729 C121.8254,23.1359 120.5144,24.2029 118.8764,24.2029 C117.5094,24.2029 116.4244,23.4299 116.4244,21.7889 C116.4244,19.2809 119.1874,18.5889 122.3304,18.6029 L122.3304,20.8849 Z M127.2624,16.5139 C127.2624,12.3759 125.4944,8.7329 119.5204,8.7329 C116.4534,8.7329 114.0204,9.5959 112.6904,10.3599 L113.6634,13.6869 C114.8754,12.9219 116.8134,12.2859 118.6434,12.2859 C121.6744,12.2779 122.1704,14.0029 122.1704,15.1089 L122.1704,15.3689 C115.5644,15.3579 111.3904,17.6449 111.3904,22.3049 C111.3904,25.1489 113.5154,27.8179 117.2124,27.8179 C119.4854,27.8179 121.3884,26.9099 122.5254,25.4569 L122.6374,25.4569 C122.6374,25.4569 123.3914,28.6129 127.5524,27.4059 C127.3334,26.0929 127.2624,24.6929 127.2624,23.0039 L127.2624,16.5139 Z" id="Fill-1" fill="#FFFFFF"></path>
                    <path d="M24.3463,3.0971 C24.3463,3.0971 28.6613,20.7811 29.3513,23.6541 C30.1543,27.0051 31.6033,28.2371 35.7813,27.4061 L38.4763,16.4411 C39.1593,13.7171 39.6173,11.7771 40.0563,9.0021 L40.1333,9.0021 C40.4413,11.8021 40.8813,13.7261 41.4433,16.4501 C41.4433,16.4501 42.5413,21.4281 43.1013,24.0401 C43.6653,26.6551 45.2323,28.3021 49.3243,27.4061 L55.7463,3.0971 L50.5613,3.0971 L48.3673,13.6081 C47.7803,16.6681 47.2453,19.0591 46.8323,21.8561 L46.7593,21.8561 C46.3843,19.0851 45.9063,16.7891 45.3073,13.8091 L43.0253,3.0971 L37.6213,3.0971 L35.1823,13.5401 C34.4893,16.7101 33.8423,19.2721 33.4303,21.9771 L33.3563,21.9771 C32.9353,19.4311 32.3733,16.2121 31.7663,13.1411 C31.7663,13.1411 30.3153,5.6701 29.8063,3.0971 L24.3463,3.0971 Z" id="Fill-3" fill="#FFFFFF"></path>
                    <path d="M65.5493,20.8849 C65.5493,21.2179 65.5213,21.5679 65.4293,21.8729 C65.0453,23.1359 63.7333,24.2029 62.0953,24.2029 C60.7293,24.2029 59.6443,23.4299 59.6443,21.7889 C59.6443,19.2809 62.4063,18.5889 65.5493,18.6029 L65.5493,20.8849 Z M70.4813,16.5139 C70.4813,12.3759 68.7143,8.7329 62.7413,8.7329 C59.6733,8.7329 57.2373,9.5959 55.9103,10.3599 L56.8813,13.6869 C58.0973,12.9219 60.0323,12.2859 61.8613,12.2859 C64.8943,12.2779 65.3913,14.0029 65.3913,15.1089 L65.3913,15.3689 C58.7853,15.3579 54.6103,17.6449 54.6103,22.3049 C54.6103,25.1489 56.7333,27.8179 60.4293,27.8179 C62.7033,27.8179 64.6043,26.9099 65.7453,25.4569 L65.8563,25.4569 C65.8563,25.4569 66.6113,28.6129 70.7693,27.4059 C70.5523,26.0929 70.4813,24.6929 70.4813,23.0039 L70.4813,16.5139 Z" id="Fill-5" fill="#FFFFFF"></path>
                    <polygon id="Fill-7" fill="#FFFFFF" points="78.7101 22.2457 78.7101 3.0967 73.7741 3.0967 73.7741 27.4057 78.7101 27.4057"></polygon>
                    <path d="M143.2972,3.0971 L143.2972,21.0301 C143.2972,23.5031 143.7622,25.2331 144.7562,26.2911 C145.6292,27.2181 147.0632,27.8171 148.7792,27.8171 C150.2382,27.8171 151.6742,27.5401 152.3492,27.2881 L152.2842,23.4331 C151.7812,23.5531 151.2042,23.6541 150.4122,23.6541 C148.7322,23.6541 148.1692,22.5761 148.1692,20.3581 L148.1692,13.4961 L152.4642,13.4961 L152.4642,8.8481 L148.1692,8.8481 L148.1692,3.0971 L143.2972,3.0971 Z" id="Fill-9" fill="#FFFFFF"></path>
                    <path d="M130.5551,9.1449 L130.5551,27.4059 L135.6481,27.4059 L135.6481,18.0539 C135.6481,17.5499 135.6761,17.1109 135.7571,16.7079 C136.1321,14.7479 137.6331,13.4959 139.7841,13.4959 C140.3711,13.4959 140.7971,13.5599 141.2531,13.6279 L141.2531,8.8479 C140.8691,8.7699 140.6061,8.7329 140.1331,8.7329 C138.2291,8.7329 136.0651,9.9599 135.1611,12.5919 L135.0241,12.5919 L135.0241,9.1449 L130.5551,9.1449 Z" id="Fill-11" fill="#FFFFFF"></path>
                    <path d="M82.1678,9.1449 L82.1678,27.4059 L87.1288,27.4059 L87.1288,16.6989 C87.1288,16.1949 87.1878,15.6629 87.3628,15.2039 C87.7728,14.1229 88.7768,12.8629 90.3798,12.8629 C92.3818,12.8629 93.3188,14.5569 93.3188,16.9989 L93.3188,27.4059 L98.2758,27.4059 L98.2758,16.5679 C98.2758,16.0889 98.3418,15.5119 98.4828,15.0869 C98.8898,13.8599 99.9708,12.8629 101.4598,12.8629 C103.4898,12.8629 104.4648,14.5259 104.4648,17.3989 L104.4648,27.4059 L109.4248,27.4059 L109.4248,16.6519 C109.4248,10.9789 106.5458,8.7329 103.2928,8.7329 C101.8538,8.7329 100.7168,9.0949 99.6888,9.7249 C98.8258,10.2569 98.0528,11.0069 97.3758,11.9979 L97.3038,11.9979 C96.5188,10.0299 94.6748,8.7329 92.2698,8.7329 C89.1818,8.7329 87.7928,10.2989 86.9528,11.6289 L86.8768,11.6289 L86.8768,9.1449 L82.1678,9.1449 Z" id="Fill-13" fill="#FFFFFF"></path>
                    <path d="M15.4042,10.9348 C15.0432,10.7908 14.4302,10.6458 13.6002,10.6458 C10.3892,10.6458 7.8282,13.6408 7.8282,17.1398 C7.8282,18.7268 8.6222,19.8808 10.2092,19.8808 C12.3012,19.8808 14.2502,17.2118 14.6462,14.9748 L15.4042,10.9348 Z M17.3522,26.5188 C15.3682,27.5648 13.3482,27.9618 10.9312,27.9618 C5.0142,27.9618 0.0002,23.6328 0.0002,16.6708 C0.0002,9.2388 5.1592,2.8178 13.1672,2.8178 C19.4442,2.8178 23.6292,7.2188 23.6292,13.2438 C23.6292,18.6548 20.6352,21.8298 17.2442,21.8298 C15.8012,21.8298 14.5022,20.8918 14.5742,18.6548 L14.4662,18.6548 C13.1672,20.7838 11.5082,21.8298 9.3432,21.8298 C7.2512,21.8298 5.4472,20.1338 5.4472,17.2838 C5.4472,12.8108 8.9832,8.7338 13.9972,8.7338 C15.5482,8.7338 16.9552,9.0588 17.8572,9.4918 L16.6672,16.0208 C16.1252,18.7628 16.5222,20.0258 17.7132,20.0618 C19.5522,20.1338 21.6092,17.6448 21.6092,13.4958 C21.6092,8.2288 18.4702,4.4778 12.8792,4.4778 C6.9982,4.4778 2.0562,9.1308 2.0562,16.4548 C2.0562,22.4788 5.9882,26.2308 11.3272,26.2308 C13.4202,26.2308 15.3322,25.7618 16.7752,24.9678 L17.3522,26.5188 Z" id="Fill-15" fill="#FDBB30"></path>
                    <polygon id="Fill-17" fill="#FDBB30" points="155.2599 2.3577 158.5789 2.3577 158.5789 25.0257 169.4419 25.0257 169.4419 27.7787 155.2599 27.7787"></polygon>
                    <g id="Group-21" transform="translate(171.000000, 8.193600)">
                        <mask id="mask-2" fill="white">
                            <use xlink:href="#path-1"></use>
                        </mask>
                        <g id="Clip-20"></g>
                        <path d="M11.6028,10.2692 C7.9818,10.1932 3.8708,10.8352 3.8708,14.3802 C3.8708,16.5682 5.3038,17.5482 6.9638,17.5482 C9.3778,17.5482 10.9238,16.0402 11.4518,14.4932 C11.5648,14.1542 11.6028,13.7772 11.6028,13.4372 L11.6028,10.2692 Z M14.8458,15.2102 C14.8458,16.7942 14.9218,18.3402 15.1108,19.5852 L12.1308,19.5852 L11.8288,17.2842 L11.7158,17.2842 C10.7348,18.7172 8.7358,20.0002 6.1338,20.0002 C2.4378,20.0002 0.5518,17.3972 0.5518,14.7572 C0.5518,10.3442 4.4738,7.9302 11.5268,7.9682 L11.5268,7.5912 C11.5268,6.0822 11.1128,3.3292 7.3788,3.3672 C5.6438,3.3672 3.8708,3.8572 2.5888,4.7252 L1.8338,2.4992 C3.3428,1.5562 5.5678,0.9152 7.8688,0.9152 C13.4888,0.9152 14.8458,4.7252 14.8458,8.3832 L14.8458,15.2102 Z" id="Fill-19" fill="#FDBB30" mask="url(#mask-2)"></path>
                    </g>
                    <g id="Group-24" transform="translate(191.000000, 0.193600)">
                        <mask id="mask-4" fill="white">
                            <use xlink:href="#path-3"></use>
                        </mask>
                        <g id="Clip-23"></g>
                        <path d="M3.4824,20.2683 C3.4824,20.6833 3.5204,21.0983 3.5954,21.4753 C4.2364,23.7753 6.1974,25.3603 8.5744,25.3603 C12.0814,25.3603 14.1184,22.5313 14.1184,18.3443 C14.1184,14.6483 12.2324,11.5183 8.6874,11.5183 C6.4244,11.5183 4.3124,13.1023 3.6714,15.5913 C3.5574,16.0063 3.4824,16.4583 3.4824,16.9863 L3.4824,20.2683 Z M0.1634,0.8063 L3.4824,0.8063 L3.4824,12.2343 L3.5574,12.2343 C4.7264,10.1983 6.8394,8.9153 9.7814,8.9153 C14.3074,8.9153 17.4754,12.6873 17.4754,18.1933 C17.4754,24.7563 13.3264,28.0003 9.2534,28.0003 C6.6134,28.0003 4.5384,26.9813 3.1424,24.5683 L3.0674,24.5683 L2.8784,27.5853 L0.0124,27.5853 C0.1254,26.3403 0.1634,24.4923 0.1634,22.8703 L0.1634,0.8063 Z" id="Fill-22" fill="#FDBB30" mask="url(#mask-4)"></path>
                    </g>
                    <path d="M212.1691,24.3844 C213.1881,24.9874 214.9221,25.6664 216.5821,25.6664 C218.9581,25.6664 220.0901,24.4974 220.0901,22.9514 C220.0901,21.3664 219.1471,20.5374 216.7331,19.6324 C213.4141,18.4254 211.8681,16.6144 211.8681,14.4644 C211.8681,11.5234 214.2811,9.1094 218.1661,9.1094 C220.0141,9.1094 221.6361,9.5994 222.6171,10.2404 L221.8241,12.6164 C221.1081,12.2014 219.7881,11.5604 218.0911,11.5604 C216.1291,11.5604 215.0731,12.6924 215.0731,14.0494 C215.0731,15.5584 216.1291,16.2374 218.5061,17.1804 C221.6361,18.3494 223.2951,19.9334 223.2951,22.6494 C223.2951,25.8934 220.7691,28.1564 216.5071,28.1564 C214.5081,28.1564 212.6591,27.6274 211.3771,26.8734 L212.1691,24.3844 Z" id="Fill-25" fill="#FDBB30"></path>
                </g>
            </g>
        </g>
    </g>
</svg>
